Sinistre-Bold.ufo
<glyph name="exclam" format="2">
  <advance width="309.82812"/>
  <unicode hex="0021"/>
  <outline>
    <contour>
      <point x="97" y="541" type="curve" smooth="yes"/>
      <point x="135" y="172" type="line"/>
      <point x="177" y="172" type="line"/>
      <point x="198" y="408" type="line" smooth="yes"/>
      <point x="218" y="621"/>
      <point x="229" y="681"/>
      <point x="263" y="735" type="curve"/>
      <point x="204" y="731"/>
      <point x="117" y="707"/>
      <point x="58" y="699" type="curve"/>
      <point x="76" y="675"/>
      <point x="87" y="635"/>
    </contour>
    <component base="period" xOffset="57" yOffset="-16" identifier="A85A30B4"/>
  </outline>
</glyph>
<glyph name="ampersand" format="2">
  <advance width="1149"/>
  <unicode hex="0026"/>
  <outline>
    <contour>
      <point x="60" y="356" type="curve" smooth="yes"/>
      <point x="60" y="61"/>
      <point x="332" y="-100"/>
      <point x="612" y="-92" type="curve" smooth="yes"/>
      <point x="897" y="-84"/>
      <point x="1089" y="92"/>
      <point x="1089" y="328" type="curve" smooth="yes"/>
      <point x="1089" y="492"/>
      <point x="987" y="669"/>
      <point x="757" y="787" type="curve"/>
      <point x="746" y="773" type="line"/>
      <point x="887" y="691"/>
      <point x="965" y="500"/>
      <point x="965" y="325" type="curve" smooth="yes"/>
      <point x="965" y="108"/>
      <point x="844" y="-42"/>
      <point x="641" y="-45" type="curve" smooth="yes"/>
      <point x="363" y="-49"/>
      <point x="182" y="156"/>
      <point x="213" y="455" type="curve"/>
      <point x="624" y="455" type="line"/>
      <point x="624" y="104" type="line" smooth="yes"/>
      <point x="624" y="64"/>
      <point x="620" y="44"/>
      <point x="609" y="20" type="curve"/>
      <point x="766" y="20" type="line"/>
      <point x="757" y="42"/>
      <point x="753" y="63"/>
      <point x="753" y="100" type="curve" smooth="yes"/>
      <point x="753" y="455" type="line"/>
      <point x="840" y="455" type="line"/>
      <point x="857" y="509" type="line"/>
      <point x="838" y="496"/>
      <point x="810" y="495"/>
      <point x="771" y="495" type="curve" smooth="yes"/>
      <point x="753" y="495" type="line"/>
      <point x="753" y="518" type="line" smooth="yes"/>
      <point x="753" y="579"/>
      <point x="755" y="666"/>
      <point x="763" y="723" type="curve"/>
      <point x="754" y="729" type="line"/>
      <point x="603" y="594" type="line"/>
      <point x="603" y="585" type="line"/>
      <point x="615" y="568"/>
      <point x="623" y="548"/>
      <point x="623" y="515" type="curve" smooth="yes"/>
      <point x="623" y="495" type="line"/>
      <point x="448" y="495" type="line"/>
      <point x="533" y="522"/>
      <point x="580" y="569"/>
      <point x="579" y="623" type="curve" smooth="yes"/>
      <point x="578" y="691"/>
      <point x="507" y="729"/>
      <point x="416" y="729" type="curve" smooth="yes"/>
      <point x="216" y="729"/>
      <point x="60" y="581"/>
    </contour>
    <contour>
      <point x="308" y="495" type="curve" smooth="yes"/>
      <point x="217" y="495" type="line"/>
      <point x="242" y="626"/>
      <point x="311" y="683"/>
      <point x="377" y="685" type="curve" smooth="yes"/>
      <point x="436" y="687"/>
      <point x="470" y="655"/>
      <point x="470" y="608" type="curve" smooth="yes"/>
      <point x="469" y="555"/>
      <point x="414" y="495"/>
    </contour>
  </outline>
</glyph>
<glyph name="quotesingle" format="2">
  <advance width="254"/>
  <unicode hex="0027"/>
  <note>
quotesingle
</note>
  <outline>
    <contour>
      <point x="128" y="770" type="line"/>
      <point x="173" y="745"/>
      <point x="194" y="707"/>
      <point x="194" y="665" type="curve" smooth="yes"/>
      <point x="194" y="603"/>
      <point x="146" y="534"/>
      <point x="68" y="500" type="curve"/>
      <point x="60" y="512" type="line"/>
      <point x="104" y="536"/>
      <point x="128" y="576"/>
      <point x="128" y="615" type="curve" smooth="yes"/>
      <point x="128" y="650"/>
      <point x="108" y="684"/>
      <point x="68" y="703" type="curve"/>
    </contour>
  </outline>
</glyph>
<glyph name="parenleft" format="2">
  <advance width="236"/>
  <unicode hex="0028"/>
  <outline>
    <contour>
      <point x="95" y="-110" type="curve"/>
      <point x="207" y="-24" type="line"/>
      <point x="87" y="235"/>
      <point x="33" y="540"/>
      <point x="216" y="840" type="curve"/>
      <point x="188" y="857" type="line"/>
      <point x="-8" y="566"/>
      <point x="-48" y="151"/>
    </contour>
  </outline>
</glyph>
<glyph name="asterisk" format="2">
  <advance width="343"/>
  <unicode hex="002A"/>
  <outline>
    <contour>
      <point x="118" y="505" type="line"/>
      <point x="173" y="535" type="line"/>
      <point x="226" y="505" type="line"/>
      <point x="188" y="599" type="line"/>
      <point x="282" y="562" type="line"/>
      <point x="252" y="617" type="line"/>
      <point x="283" y="670" type="line"/>
      <point x="188" y="633" type="line"/>
      <point x="226" y="728" type="line"/>
      <point x="171" y="696" type="line"/>
      <point x="118" y="729" type="line"/>
      <point x="156" y="633" type="line"/>
      <point x="61" y="670" type="line"/>
      <point x="91" y="616" type="line"/>
      <point x="60" y="562" type="line"/>
      <point x="155" y="599" type="line"/>
    </contour>
  </outline>
</glyph>
<glyph name="plus" format="2">
  <advance width="623.51562"/>
  <unicode hex="002B"/>
  <outline>
    <contour>
      <point x="248" y="9" type="line"/>
      <point x="365" y="9" type="line"/>
      <point x="335" y="251" type="line"/>
      <point x="567" y="223" type="line"/>
      <point x="567" y="334" type="line"/>
      <point x="335" y="300" type="line"/>
      <point x="366" y="537" type="line"/>
      <point x="248" y="537" type="line"/>
      <point x="284" y="299" type="line"/>
      <point x="47" y="322" type="line"/>
      <point x="47" y="223" type="line"/>
      <point x="284" y="251" type="line"/>
    </contour>
  </outline>
</glyph>
<glyph name="comma" format="2">
  <advance width="217"/>
  <unicode hex="002C"/>
  <outline>
    <contour>
      <point x="21" y="-122" type="curve"/>
      <point x="27" y="-134" type="line"/>
      <point x="105" y="-98"/>
      <point x="154" y="-23"/>
      <point x="154" y="41" type="curve" smooth="yes"/>
      <point x="154" y="83"/>
      <point x="133" y="121"/>
      <point x="84" y="141" type="curve"/>
      <point x="71" y="112"/>
      <point x="46" y="77"/>
      <point x="20" y="61" type="curve"/>
      <point x="64" y="39"/>
      <point x="84" y="8"/>
      <point x="84" y="-25" type="curve" smooth="yes"/>
      <point x="84" y="-59"/>
      <point x="62" y="-94"/>
    </contour>
  </outline>
</glyph>
<glyph name="period" format="2">
  <advance width="239.34375"/>
  <unicode hex="002E"/>
  <outline>
    <contour>
      <point x="98" y="-15" type="curve"/>
      <point x="121" y="18"/>
      <point x="152" y="51"/>
      <point x="176" y="64" type="curve"/>
      <point x="145" y="85"/>
      <point x="112" y="114"/>
      <point x="98" y="143" type="curve"/>
      <point x="79" y="112"/>
      <point x="50" y="77"/>
      <point x="20" y="64" type="curve"/>
      <point x="52" y="44"/>
      <point x="87" y="13"/>
    </contour>
  </outline>
</glyph>
<glyph name="zero" format="2">
  <advance width="640"/>
  <unicode hex="0030"/>
  <outline>
    <contour>
      <point x="321" y="-18" type="curve" smooth="yes"/>
      <point x="492" y="-18"/>
      <point x="600" y="150"/>
      <point x="600" y="354" type="curve" smooth="yes"/>
      <point x="600" y="557"/>
      <point x="494" y="728"/>
      <point x="321" y="728" type="curve" smooth="yes"/>
      <point x="151" y="728"/>
      <point x="40" y="557"/>
      <point x="40" y="351" type="curve" smooth="yes"/>
      <point x="41" y="150"/>
      <point x="145" y="-18"/>
    </contour>
    <contour>
      <point x="329" y="29" type="curve" smooth="yes"/>
      <point x="249" y="29"/>
      <point x="192" y="169"/>
      <point x="182" y="350" type="curve" smooth="yes"/>
      <point x="175" y="550"/>
      <point x="225" y="680"/>
      <point x="311" y="680" type="curve" smooth="yes"/>
      <point x="394" y="680"/>
      <point x="451" y="543"/>
      <point x="457" y="363" type="curve" smooth="yes"/>
      <point x="465" y="173"/>
      <point x="415" y="29"/>
    </contour>
  </outline>
</glyph>
<glyph name="one" format="2">
  <advance width="264"/>
  <unicode hex="0031"/>
  <outline>
    <contour>
      <point x="50" y="0" type="curve"/>
      <point x="214" y="0" type="line"/>
      <point x="203" y="24"/>
      <point x="199" y="44"/>
      <point x="199" y="84" type="curve" smooth="yes"/>
      <point x="199" y="644" type="line" smooth="yes"/>
      <point x="199" y="673"/>
      <point x="200" y="693"/>
      <point x="207" y="718" type="curve"/>
      <point x="197" y="727" type="line"/>
      <point x="40" y="618" type="line"/>
      <point x="40" y="603" type="line"/>
      <point x="63" y="586"/>
      <point x="65" y="556"/>
      <point x="65" y="525" type="curve" smooth="yes"/>
      <point x="65" y="84" type="line" smooth="yes"/>
      <point x="65" y="44"/>
      <point x="61" y="24"/>
    </contour>
  </outline>
</glyph>
<glyph name="two" format="2">
  <advance width="569.3125"/>
  <unicode hex="0032"/>
  <outline>
    <contour>
      <point x="473" y="-29" type="curve"/>
      <point x="493" y="46"/>
      <point x="518" y="139"/>
      <point x="537" y="223" type="curve"/>
      <point x="521" y="228" type="line"/>
      <point x="491" y="149"/>
      <point x="412" y="69"/>
      <point x="308" y="62" type="curve"/>
      <point x="198" y="60" type="line"/>
      <point x="348" y="197"/>
      <point x="523" y="376"/>
      <point x="523" y="548" type="curve" smooth="yes"/>
      <point x="523" y="672"/>
      <point x="432" y="734"/>
      <point x="328" y="734" type="curve" smooth="yes"/>
      <point x="222" y="734"/>
      <point x="91" y="669"/>
      <point x="41" y="528" type="curve"/>
      <point x="78" y="519"/>
      <point x="137" y="474"/>
      <point x="138" y="372" type="curve"/>
      <point x="155" y="372" type="line"/>
      <point x="173" y="603"/>
      <point x="253" y="697"/>
      <point x="315" y="697" type="curve" smooth="yes"/>
      <point x="355" y="697"/>
      <point x="385" y="658"/>
      <point x="385" y="580" type="curve" smooth="yes"/>
      <point x="385" y="425"/>
      <point x="205" y="229"/>
      <point x="46" y="72" type="curve"/>
      <point x="46" y="0" type="line"/>
      <point x="342" y="0" type="line" smooth="yes"/>
      <point x="419" y="0"/>
      <point x="448" y="-7"/>
    </contour>
  </outline>
</glyph>
<glyph name="three" format="2">
  <advance width="577"/>
  <unicode hex="0033"/>
  <outline>
    <contour>
      <point x="345" y="628" type="line"/>
      <point x="174" y="382" type="line"/>
      <point x="183" y="372" type="line"/>
      <point x="207" y="392"/>
      <point x="232" y="401"/>
      <point x="257" y="401" type="curve" smooth="yes"/>
      <point x="349" y="401"/>
      <point x="399" y="297"/>
      <point x="399" y="200" type="curve" smooth="yes"/>
      <point x="399" y="115"/>
      <point x="360" y="35"/>
      <point x="276" y="35" type="curve" smooth="yes"/>
      <point x="192" y="35"/>
      <point x="99" y="126"/>
      <point x="97" y="285" type="curve"/>
      <point x="81" y="285" type="line"/>
      <point x="73" y="172"/>
      <point x="72" y="137"/>
      <point x="30" y="86" type="curve"/>
      <point x="69" y="17"/>
      <point x="163" y="-8"/>
      <point x="258" y="-8" type="curve" smooth="yes"/>
      <point x="451" y="-8"/>
      <point x="547" y="138"/>
      <point x="547" y="267" type="curve" smooth="yes"/>
      <point x="547" y="371"/>
      <point x="485" y="465"/>
      <point x="361" y="465" type="curve" smooth="yes"/>
      <point x="332" y="465"/>
      <point x="305" y="460"/>
      <point x="280" y="451" type="curve"/>
      <point x="277" y="455" type="line"/>
      <point x="499" y="719" type="line"/>
      <point x="493" y="729" type="line"/>
      <point x="468" y="724"/>
      <point x="446" y="722"/>
      <point x="300" y="722" type="curve" smooth="yes"/>
      <point x="190" y="722"/>
      <point x="143" y="725"/>
      <point x="103" y="735" type="curve"/>
      <point x="65" y="535" type="line"/>
      <point x="79" y="530" type="line"/>
      <point x="112" y="606"/>
      <point x="149" y="628"/>
      <point x="245" y="628" type="curve" smooth="yes"/>
    </contour>
  </outline>
</glyph>
<glyph name="four" format="2">
  <advance width="616"/>
  <unicode hex="0034"/>
  <outline>
    <contour>
      <point x="317" y="-161" type="curve"/>
      <point x="331" y="-171" type="line"/>
      <point x="378" y="-106"/>
      <point x="444" y="-18"/>
      <point x="510" y="-14" type="curve"/>
      <point x="510" y="211" type="line"/>
      <point x="555" y="212"/>
      <point x="571" y="208"/>
      <point x="586" y="202" type="curve"/>
      <point x="572" y="262" type="line"/>
      <point x="510" y="262" type="line"/>
      <point x="510" y="722" type="line"/>
      <point x="301" y="722" type="line"/>
      <point x="301" y="706" type="line"/>
      <point x="319" y="706" type="line" smooth="yes"/>
      <point x="354" y="706"/>
      <point x="371" y="686"/>
      <point x="371" y="642" type="curve" smooth="yes"/>
      <point x="371" y="262" type="line"/>
      <point x="144" y="262" type="line"/>
      <point x="231" y="392"/>
      <point x="277" y="487"/>
      <point x="277" y="574" type="curve" smooth="yes"/>
      <point x="277" y="671"/>
      <point x="226" y="726"/>
      <point x="154" y="734" type="curve"/>
      <point x="104" y="736"/>
      <point x="49" y="697"/>
      <point x="30" y="607" type="curve"/>
      <point x="39" y="602" type="line"/>
      <point x="102" y="651"/>
      <point x="170" y="606"/>
      <point x="168" y="500" type="curve" smooth="yes"/>
      <point x="167" y="412"/>
      <point x="129" y="295"/>
      <point x="65" y="211" type="curve"/>
      <point x="371" y="211" type="line"/>
      <point x="371" y="34" type="line" smooth="yes"/>
      <point x="371" y="-43"/>
      <point x="363" y="-92"/>
    </contour>
  </outline>
</glyph>
<glyph name="five" format="2">
  <advance width="559"/>
  <unicode hex="0035"/>
  <outline>
    <contour>
      <point x="85" y="25"/>
      <point x="170" y="-9"/>
      <point x="255" y="-9" type="curve" smooth="yes"/>
      <point x="388" y="-9"/>
      <point x="519" y="74"/>
      <point x="520" y="242" type="curve" smooth="yes"/>
      <point x="521" y="410"/>
      <point x="405" y="497"/>
      <point x="284" y="497" type="curve" smooth="yes"/>
      <point x="242" y="497"/>
      <point x="199" y="486"/>
      <point x="160" y="465" type="curve"/>
      <point x="155" y="469" type="line"/>
      <point x="187" y="626" type="line"/>
      <point x="294" y="626" type="line" smooth="yes"/>
      <point x="407" y="626"/>
      <point x="453" y="601"/>
      <point x="477" y="536" type="curve"/>
      <point x="490" y="538" type="line"/>
      <point x="482" y="583"/>
      <point x="462" y="693"/>
      <point x="446" y="738" type="curve"/>
      <point x="428" y="723"/>
      <point x="413" y="723"/>
      <point x="344" y="722" type="curve" smooth="yes"/>
      <point x="264" y="722"/>
      <point x="179" y="719"/>
      <point x="120" y="731" type="curve"/>
      <point x="110" y="722" type="line"/>
      <point x="130" y="686"/>
      <point x="123" y="589"/>
      <point x="89" y="403" type="curve"/>
      <point x="100" y="394" type="line"/>
      <point x="135" y="411"/>
      <point x="169" y="422"/>
      <point x="202" y="422" type="curve" smooth="yes"/>
      <point x="317" y="422"/>
      <point x="372" y="304"/>
      <point x="372" y="198" type="curve" smooth="yes"/>
      <point x="372" y="111"/>
      <point x="335" y="33"/>
      <point x="264" y="33" type="curve" smooth="yes"/>
      <point x="182" y="33"/>
      <point x="89" y="117"/>
      <point x="82" y="273" type="curve"/>
      <point x="67" y="272" type="line"/>
      <point x="65" y="160"/>
      <point x="62" y="125"/>
      <point x="30" y="91" type="curve"/>
    </contour>
  </outline>
</glyph>
<glyph name="six" format="2">
  <advance width="581"/>
  <unicode hex="0036"/>
  <outline>
    <contour>
      <point x="296" y="-6" type="curve" smooth="yes"/>
      <point x="448" y="-6"/>
      <point x="541" y="133"/>
      <point x="541" y="262" type="curve" smooth="yes"/>
      <point x="541" y="369"/>
      <point x="475" y="468"/>
      <point x="322" y="471" type="curve"/>
      <point x="181" y="357" type="line"/>
      <point x="195" y="337" type="line"/>
      <point x="216" y="354"/>
      <point x="248" y="369"/>
      <point x="283" y="369" type="curve" smooth="yes"/>
      <point x="361" y="369"/>
      <point x="411" y="308"/>
      <point x="411" y="197" type="curve" smooth="yes"/>
      <point x="411" y="111"/>
      <point x="372" y="36"/>
      <point x="310" y="36" type="curve" smooth="yes"/>
      <point x="232" y="36"/>
      <point x="185" y="188"/>
      <point x="185" y="303" type="curve" smooth="yes"/>
      <point x="185" y="458"/>
      <point x="247" y="626"/>
      <point x="410" y="744" type="curve"/>
      <point x="404" y="757" type="line"/>
      <point x="158" y="649"/>
      <point x="40" y="453"/>
      <point x="40" y="275" type="curve" smooth="yes"/>
      <point x="40" y="115"/>
      <point x="140" y="-6"/>
    </contour>
  </outline>
</glyph>
<glyph name="seven" format="2">
  <advance width="550.17188"/>
  <unicode hex="0037"/>
  <outline>
    <contour>
      <point x="158" y="2" type="curve"/>
      <point x="178" y="-1" type="line"/>
      <point x="205" y="143"/>
      <point x="333" y="407"/>
      <point x="435" y="585" type="curve" smooth="yes"/>
      <point x="466" y="638"/>
      <point x="496" y="683"/>
      <point x="518" y="716" type="curve"/>
      <point x="509" y="729" type="line"/>
      <point x="484" y="724"/>
      <point x="415" y="722"/>
      <point x="269" y="722" type="curve" smooth="yes"/>
      <point x="159" y="722"/>
      <point x="112" y="725"/>
      <point x="72" y="735" type="curve"/>
      <point x="15" y="535" type="line"/>
      <point x="28" y="528" type="line"/>
      <point x="72" y="604"/>
      <point x="118" y="628"/>
      <point x="214" y="628" type="curve" smooth="yes"/>
      <point x="319" y="628" type="line"/>
      <point x="281" y="526"/>
      <point x="192" y="302"/>
    </contour>
  </outline>
</glyph>
<glyph name="eight" format="2">
  <advance width="607"/>
  <unicode hex="0038"/>
  <outline>
    <contour>
      <point x="304" y="-17" type="curve" smooth="yes"/>
      <point x="460" y="-17"/>
      <point x="567" y="76"/>
      <point x="567" y="202" type="curve" smooth="yes"/>
      <point x="567" y="325"/>
      <point x="462" y="416"/>
      <point x="306" y="416" type="curve" smooth="yes"/>
      <point x="148" y="416"/>
      <point x="40" y="323"/>
      <point x="40" y="198" type="curve" smooth="yes"/>
      <point x="40" y="75"/>
      <point x="146" y="-17"/>
    </contour>
    <contour>
      <point x="305" y="14" type="curve" smooth="yes"/>
      <point x="248" y="14"/>
      <point x="190" y="73"/>
      <point x="187" y="199" type="curve" smooth="yes"/>
      <point x="186" y="324"/>
      <point x="245" y="382"/>
      <point x="301" y="382" type="curve" smooth="yes"/>
      <point x="358" y="382"/>
      <point x="417" y="326"/>
      <point x="419" y="204" type="curve" smooth="yes"/>
      <point x="420" y="75"/>
      <point x="361" y="14"/>
    </contour>
    <contour>
      <point x="304" y="392" type="curve" smooth="yes"/>
      <point x="428" y="392"/>
      <point x="513" y="463"/>
      <point x="513" y="561" type="curve" smooth="yes"/>
      <point x="513" y="658"/>
      <point x="428" y="730"/>
      <point x="305" y="730" type="curve" smooth="yes"/>
      <point x="181" y="730"/>
      <point x="94" y="657"/>
      <point x="94" y="558" type="curve" smooth="yes"/>
      <point x="94" y="462"/>
      <point x="178" y="392"/>
    </contour>
    <contour>
      <point x="305" y="417" type="curve" smooth="yes"/>
      <point x="259" y="417"/>
      <point x="214" y="462"/>
      <point x="213" y="561" type="curve" smooth="yes"/>
      <point x="211" y="659"/>
      <point x="257" y="702"/>
      <point x="302" y="702" type="curve" smooth="yes"/>
      <point x="347" y="702"/>
      <point x="393" y="660"/>
      <point x="395" y="564" type="curve" smooth="yes"/>
      <point x="395" y="463"/>
      <point x="349" y="417"/>
    </contour>
  </outline>
</glyph>
<glyph name="nine" format="2">
  <advance width="545"/>
  <unicode hex="0039"/>
  <outline>
    <contour>
      <point x="111" y="-12" type="curve"/>
      <point x="117" y="-25" type="line"/>
      <point x="398" y="98"/>
      <point x="515" y="301"/>
      <point x="515" y="466" type="curve" smooth="yes"/>
      <point x="515" y="612"/>
      <point x="421" y="728"/>
      <point x="267" y="728" type="curve" smooth="yes"/>
      <point x="132" y="728"/>
      <point x="31" y="616"/>
      <point x="31" y="479" type="curve" smooth="yes"/>
      <point x="31" y="370"/>
      <point x="102" y="269"/>
      <point x="234" y="269" type="curve"/>
      <point x="363" y="370" type="line"/>
      <point x="349" y="396" type="line"/>
      <point x="324" y="373"/>
      <point x="300" y="362"/>
      <point x="271" y="362" type="curve" smooth="yes"/>
      <point x="204" y="362"/>
      <point x="135" y="436"/>
      <point x="135" y="555" type="curve" smooth="yes"/>
      <point x="135" y="640"/>
      <point x="181" y="683"/>
      <point x="234" y="683" type="curve" smooth="yes"/>
      <point x="307" y="683"/>
      <point x="379" y="593"/>
      <point x="379" y="455" type="curve" smooth="yes"/>
      <point x="379" y="302"/>
      <point x="304" y="112"/>
    </contour>
  </outline>
</glyph>
<glyph name="less" format="2">
  <advance width="568.4375"/>
  <unicode hex="003C"/>
  <note>
less
</note>
  <outline>
    <contour>
      <point x="522" y="-9" type="curve"/>
      <point x="525" y="7" type="line"/>
      <point x="468" y="20"/>
      <point x="428" y="62"/>
      <point x="388" y="111" type="curve" smooth="yes"/>
      <point x="318" y="199"/>
      <point x="210" y="348"/>
      <point x="144" y="393" type="curve"/>
      <point x="330" y="620" type="line" smooth="yes"/>
      <point x="387" y="690"/>
      <point x="436" y="708"/>
      <point x="506" y="706" type="curve"/>
      <point x="506" y="722" type="line"/>
      <point x="243" y="722" type="line"/>
      <point x="243" y="717" type="line"/>
      <point x="301" y="696"/>
      <point x="285" y="649"/>
      <point x="242" y="598" type="curve" smooth="yes"/>
      <point x="99" y="432" type="line" smooth="yes"/>
      <point x="78" y="408"/>
      <point x="56" y="382"/>
      <point x="37" y="369" type="curve"/>
      <point x="37" y="354" type="line"/>
      <point x="92" y="316"/>
      <point x="190" y="167"/>
      <point x="267" y="75" type="curve" smooth="yes"/>
      <point x="322" y="8"/>
      <point x="401" y="0"/>
    </contour>
  </outline>
</glyph>
<glyph name="equal" format="2">
  <advance width="705.3125"/>
  <unicode hex="003D"/>
  <outline>
    <contour>
      <point x="68" y="323" type="line"/>
      <point x="620" y="352" type="line"/>
      <point x="620" y="500" type="line"/>
      <point x="68" y="375" type="line"/>
    </contour>
    <contour>
      <point x="68" y="113" type="line"/>
      <point x="620" y="126" type="line"/>
      <point x="620" y="273" type="line"/>
      <point x="68" y="166" type="line"/>
    </contour>
  </outline>
</glyph>
<glyph name="greater" format="2">
  <advance width="562.96875"/>
  <unicode hex="003E"/>
  <note>
greater
</note>
  <outline>
    <contour>
      <point x="36" y="7" type="curve"/>
      <point x="39" y="-9" type="line"/>
      <point x="160" y="0"/>
      <point x="239" y="8"/>
      <point x="294" y="75" type="curve" smooth="yes"/>
      <point x="371" y="167"/>
      <point x="469" y="316"/>
      <point x="524" y="354" type="curve"/>
      <point x="524" y="369" type="line"/>
      <point x="505" y="382"/>
      <point x="483" y="408"/>
      <point x="462" y="432" type="curve" smooth="yes"/>
      <point x="319" y="598" type="line" smooth="yes"/>
      <point x="276" y="649"/>
      <point x="260" y="696"/>
      <point x="318" y="717" type="curve"/>
      <point x="318" y="722" type="line"/>
      <point x="55" y="722" type="line"/>
      <point x="55" y="706" type="line"/>
      <point x="125" y="708"/>
      <point x="174" y="690"/>
      <point x="230" y="620" type="curve" smooth="yes"/>
      <point x="416" y="393" type="line"/>
      <point x="350" y="348"/>
      <point x="243" y="199"/>
      <point x="173" y="111" type="curve" smooth="yes"/>
      <point x="133" y="62"/>
      <point x="93" y="20"/>
    </contour>
  </outline>
</glyph>
<glyph name="question" format="2">
  <advance width="444"/>
  <unicode hex="003F"/>
  <outline>
    <contour>
      <point x="30" y="685" type="curve"/>
      <point x="58" y="491" type="line"/>
      <point x="72" y="492" type="line"/>
      <point x="82" y="635"/>
      <point x="142" y="692"/>
      <point x="199" y="692" type="curve" smooth="yes"/>
      <point x="252" y="692"/>
      <point x="291" y="649"/>
      <point x="291" y="545" type="curve" smooth="yes"/>
      <point x="291" y="445"/>
      <point x="240" y="330"/>
      <point x="103" y="292" type="curve"/>
      <point x="103" y="264"/>
      <point x="104" y="158"/>
      <point x="103" y="134" type="curve"/>
      <point x="177" y="149" type="line"/>
      <point x="173" y="180"/>
      <point x="171" y="240"/>
      <point x="171" y="276" type="curve"/>
      <point x="342" y="339"/>
      <point x="434" y="463"/>
      <point x="434" y="567" type="curve" smooth="yes"/>
      <point x="434" y="659"/>
      <point x="362" y="738"/>
      <point x="227" y="738" type="curve" smooth="yes"/>
      <point x="165" y="738"/>
      <point x="96" y="719"/>
    </contour>
    <contour>
      <point x="205" y="5" type="curve"/>
      <point x="186" y="53"/>
      <point x="178" y="98"/>
      <point x="194" y="125" type="curve"/>
      <point x="148" y="107"/>
      <point x="102" y="100"/>
      <point x="73" y="116" type="curve"/>
      <point x="93" y="71"/>
      <point x="100" y="25"/>
      <point x="85" y="-5" type="curve"/>
      <point x="131" y="14"/>
      <point x="176" y="21"/>
    </contour>
  </outline>
</glyph>
<glyph name="at" format="2">
  <advance width="913.34375"/>
  <unicode hex="0040"/>
  <note>
at
</note>
  <outline>
    <contour>
      <point x="303" y="-240" type="curve" smooth="yes"/>
      <point x="460" y="-240"/>
      <point x="716" y="-80"/>
      <point x="836" y="115" type="curve"/>
      <point x="823" y="123" type="line"/>
      <point x="707" y="-34"/>
      <point x="539" y="-111"/>
      <point x="399" y="-111" type="curve" smooth="yes"/>
      <point x="237" y="-111"/>
      <point x="124" y="-2"/>
      <point x="124" y="177" type="curve" smooth="yes"/>
      <point x="124" y="422"/>
      <point x="426" y="635"/>
      <point x="597" y="638" type="curve" smooth="yes"/>
      <point x="722" y="640"/>
      <point x="776" y="527"/>
      <point x="773" y="415" type="curve" smooth="yes"/>
      <point x="769" y="272"/>
      <point x="690" y="138"/>
      <point x="615" y="122" type="curve" smooth="yes"/>
      <point x="581" y="115"/>
      <point x="561" y="174"/>
      <point x="569" y="257" type="curve" smooth="yes"/>
      <point x="577" y="348"/>
      <point x="601" y="435"/>
      <point x="635" y="493" type="curve"/>
      <point x="636" y="509"/>
      <point x="621" y="536"/>
      <point x="608" y="543" type="curve"/>
      <point x="404" y="495"/>
      <point x="232" y="344"/>
      <point x="232" y="185" type="curve" smooth="yes"/>
      <point x="232" y="126"/>
      <point x="261" y="58"/>
      <point x="339" y="6" type="curve"/>
      <point x="390" y="46"/>
      <point x="454" y="126"/>
      <point x="497" y="202" type="curve"/>
      <point x="502" y="201" type="line"/>
      <point x="490" y="151"/>
      <point x="484" y="71"/>
      <point x="518" y="11" type="curve"/>
      <point x="640" y="36"/>
      <point x="871" y="259"/>
      <point x="880" y="501" type="curve" smooth="yes"/>
      <point x="886" y="621"/>
      <point x="826" y="725"/>
      <point x="722" y="740" type="curve" smooth="yes"/>
      <point x="602" y="760"/>
      <point x="50" y="512"/>
      <point x="39" y="86" type="curve" smooth="yes"/>
      <point x="34" y="-117"/>
      <point x="164" y="-240"/>
    </contour>
    <contour>
      <point x="383" y="141" type="curve"/>
      <point x="333" y="181"/>
      <point x="312" y="226"/>
      <point x="312" y="268" type="curve" smooth="yes"/>
      <point x="312" y="350"/>
      <point x="396" y="427"/>
      <point x="506" y="451" type="curve"/>
      <point x="511" y="448" type="line"/>
      <point x="500" y="325"/>
      <point x="477" y="218"/>
    </contour>
  </outline>
</glyph>
<glyph name="A" format="2">
  <advance width="748"/>
  <unicode hex="0041"/>
  <anchor x="394" y="0" name="bottom"/>
  <anchor x="680" y="10" name="ogonek"/>
  <anchor x="394" y="722" name="top"/>
  <outline>
    <contour>
      <point x="537" y="0" type="curve"/>
      <point x="728" y="0" type="line"/>
      <point x="422" y="673" type="line" smooth="yes"/>
      <point x="415" y="688"/>
      <point x="407" y="706"/>
      <point x="404" y="722" type="curve"/>
      <point x="117" y="722" type="line"/>
      <point x="117" y="706" type="line"/>
      <point x="154" y="706" type="line" smooth="yes"/>
      <point x="228" y="706"/>
      <point x="253" y="684"/>
      <point x="271" y="644" type="curve" smooth="yes"/>
      <point x="327" y="521" type="line"/>
      <point x="66" y="424"/>
      <point x="56" y="130"/>
      <point x="40" y="-30" type="curve"/>
      <point x="52" y="-38" type="line"/>
      <point x="196" y="106"/>
      <point x="312" y="237"/>
      <point x="394" y="371" type="curve"/>
      <point x="526" y="80" type="line" smooth="yes"/>
      <point x="539" y="53"/>
      <point x="547" y="22"/>
    </contour>
    <contour>
      <point x="187" y="154" type="curve"/>
      <point x="170" y="301"/>
      <point x="238" y="423"/>
      <point x="346" y="489" type="curve"/>
      <point x="368" y="441" type="line"/>
      <point x="326" y="339"/>
      <point x="268" y="244"/>
    </contour>
  </outline>
</glyph>
<glyph name="B" format="2">
  <advance width="662.20312"/>
  <unicode hex="0042"/>
  <anchor x="302" y="0" name="bottom"/>
  <anchor x="302" y="722" name="top"/>
  <outline>
    <contour>
      <point x="79" y="0" type="curve"/>
      <point x="166" y="-2"/>
      <point x="229" y="-2"/>
      <point x="292" y="0" type="curve" smooth="yes"/>
      <point x="496" y="6"/>
      <point x="625" y="114"/>
      <point x="625" y="251" type="curve" smooth="yes"/>
      <point x="625" y="367"/>
      <point x="532" y="460"/>
      <point x="372" y="477" type="curve"/>
      <point x="459" y="495"/>
      <point x="524" y="563"/>
      <point x="524" y="629" type="curve" smooth="yes"/>
      <point x="524" y="691"/>
      <point x="470" y="727"/>
      <point x="392" y="727" type="curve" smooth="yes"/>
      <point x="339" y="727"/>
      <point x="282" y="712"/>
      <point x="235" y="684" type="curve"/>
      <point x="235" y="722" type="line"/>
      <point x="24" y="722" type="line"/>
      <point x="24" y="706" type="line"/>
      <point x="42" y="706" type="line" smooth="yes"/>
      <point x="77" y="706"/>
      <point x="94" y="686"/>
      <point x="94" y="642" type="curve" smooth="yes"/>
      <point x="94" y="84" type="line" smooth="yes"/>
      <point x="94" y="44"/>
      <point x="90" y="24"/>
    </contour>
    <contour>
      <point x="235" y="46" type="curve"/>
      <point x="235" y="648" type="line"/>
      <point x="259" y="663"/>
      <point x="285" y="670"/>
      <point x="309" y="670" type="curve" smooth="yes"/>
      <point x="364" y="670"/>
      <point x="397" y="636"/>
      <point x="397" y="592" type="curve" smooth="yes"/>
      <point x="397" y="540"/>
      <point x="354" y="490"/>
      <point x="235" y="480" type="curve"/>
      <point x="235" y="451" type="line"/>
      <point x="388" y="454"/>
      <point x="470" y="375"/>
      <point x="470" y="252" type="curve" smooth="yes"/>
      <point x="470" y="128"/>
      <point x="378" y="45"/>
    </contour>
  </outline>
</glyph>
<glyph name="C" format="2">
  <advance width="739"/>
  <unicode hex="0043"/>
  <anchor x="365" y="0" name="bottom"/>
  <anchor x="365" y="722" name="top"/>
  <outline>
    <contour>
      <point x="434" y="-17" type="curve" smooth="yes"/>
      <point x="516" y="-15"/>
      <point x="597" y="0"/>
      <point x="675" y="34" type="curve"/>
      <point x="705" y="246" type="line"/>
      <point x="693" y="249" type="line"/>
      <point x="643" y="130"/>
      <point x="552" y="37"/>
      <point x="448" y="34" type="curve" smooth="yes"/>
      <point x="300" y="29"/>
      <point x="205" y="178"/>
      <point x="200" y="368" type="curve" smooth="yes"/>
      <point x="196" y="567"/>
      <point x="307" y="690"/>
      <point x="440" y="690" type="curve" smooth="yes"/>
      <point x="552" y="690"/>
      <point x="625" y="599"/>
      <point x="650" y="491" type="curve"/>
      <point x="663" y="492" type="line"/>
      <point x="677" y="686" type="line"/>
      <point x="614" y="718"/>
      <point x="539" y="737"/>
      <point x="454" y="737" type="curve" smooth="yes"/>
      <point x="218" y="738"/>
      <point x="35" y="597"/>
      <point x="40" y="346" type="curve" smooth="yes"/>
      <point x="45" y="112"/>
      <point x="206" y="-21"/>
    </contour>
  </outline>
</glyph>
<glyph name="D" format="2">
  <advance width="765.8125"/>
  <unicode hex="0044"/>
  <anchor x="348" y="0" name="bottom"/>
  <anchor x="348" y="361" name="center"/>
  <anchor x="348" y="722" name="top"/>
  <outline>
    <contour>
      <point x="82" y="0" type="curve"/>
      <point x="300" y="0" type="line" smooth="yes"/>
      <point x="584" y="0"/>
      <point x="725" y="167"/>
      <point x="724" y="380" type="curve" smooth="yes"/>
      <point x="724" y="579"/>
      <point x="594" y="726"/>
      <point x="329" y="724" type="curve" smooth="yes"/>
      <point x="247" y="723"/>
      <point x="185" y="721"/>
      <point x="108" y="722" type="curve" smooth="yes"/>
      <point x="28" y="723" type="line"/>
      <point x="27" y="707" type="line"/>
      <point x="45" y="707" type="line" smooth="yes"/>
      <point x="80" y="706"/>
      <point x="97" y="686"/>
      <point x="97" y="642" type="curve" smooth="yes"/>
      <point x="97" y="84" type="line" smooth="yes"/>
      <point x="97" y="44"/>
      <point x="93" y="24"/>
    </contour>
    <contour>
      <point x="238" y="49" type="curve"/>
      <point x="238" y="677" type="line"/>
      <point x="269" y="679"/>
      <point x="297" y="678"/>
      <point x="323" y="673" type="curve"/>
      <point x="476" y="654"/>
      <point x="562" y="539"/>
      <point x="563" y="382" type="curve" smooth="yes"/>
      <point x="563" y="186"/>
      <point x="440" y="43"/>
    </contour>
  </outline>
</glyph>
<glyph name="E" format="2">
  <advance width="627.8125"/>
  <unicode hex="0045"/>
  <anchor x="322" y="0" name="bottom"/>
  <anchor x="558" y="10" name="ogonek"/>
  <anchor x="322" y="722" name="top"/>
  <anchor x="47" y="722" name="topleft"/>
  <outline>
    <contour>
      <point x="80" y="0" type="curve"/>
      <point x="547" y="0" type="line"/>
      <point x="598" y="216" type="line"/>
      <point x="580" y="222" type="line"/>
      <point x="533" y="90"/>
      <point x="420" y="56"/>
      <point x="236" y="55" type="curve"/>
      <point x="236" y="417" type="line"/>
      <point x="360" y="417" type="line" smooth="yes"/>
      <point x="441" y="417"/>
      <point x="499" y="406"/>
      <point x="512" y="360" type="curve"/>
      <point x="524" y="363" type="line"/>
      <point x="524" y="513" type="line"/>
      <point x="512" y="516" type="line"/>
      <point x="499" y="472"/>
      <point x="441" y="459"/>
      <point x="360" y="459" type="curve" smooth="yes"/>
      <point x="236" y="459" type="line"/>
      <point x="236" y="680" type="line"/>
      <point x="323" y="680" type="line" smooth="yes"/>
      <point x="461" y="680"/>
      <point x="505" y="641"/>
      <point x="557" y="549" type="curve"/>
      <point x="572" y="556" type="line"/>
      <point x="530" y="722" type="line"/>
      <point x="25" y="722" type="line"/>
      <point x="25" y="706" type="line"/>
      <point x="43" y="706" type="line" smooth="yes"/>
      <point x="78" y="706"/>
      <point x="95" y="686"/>
      <point x="95" y="642" type="curve" smooth="yes"/>
      <point x="95" y="84" type="line" smooth="yes"/>
      <point x="95" y="44"/>
      <point x="91" y="24"/>
    </contour>
  </outline>
</glyph>
<glyph name="F" format="2">
  <advance width="596.20312"/>
  <unicode hex="0046"/>
  <anchor x="260" y="0" name="bottom"/>
  <anchor x="260" y="722" name="top"/>
  <outline>
    <contour>
      <point x="46" y="-162" type="curve"/>
      <point x="60" y="-171" type="line"/>
      <point x="106" y="-101"/>
      <point x="163" y="-18"/>
      <point x="236" y="-14" type="curve"/>
      <point x="236" y="416" type="line"/>
      <point x="360" y="416" type="line" smooth="yes"/>
      <point x="441" y="416"/>
      <point x="499" y="406"/>
      <point x="512" y="360" type="curve"/>
      <point x="524" y="363" type="line"/>
      <point x="524" y="513" type="line"/>
      <point x="512" y="516" type="line"/>
      <point x="499" y="472"/>
      <point x="441" y="458"/>
      <point x="360" y="458" type="curve" smooth="yes"/>
      <point x="236" y="458" type="line"/>
      <point x="236" y="680" type="line"/>
      <point x="323" y="680" type="line" smooth="yes"/>
      <point x="461" y="680"/>
      <point x="504" y="636"/>
      <point x="559" y="550" type="curve"/>
      <point x="572" y="556" type="line"/>
      <point x="530" y="722" type="line"/>
      <point x="25" y="722" type="line"/>
      <point x="25" y="706" type="line"/>
      <point x="43" y="706" type="line" smooth="yes"/>
      <point x="78" y="706"/>
      <point x="95" y="686"/>
      <point x="95" y="642" type="curve" smooth="yes"/>
      <point x="95" y="45" type="line" smooth="yes"/>
      <point x="95" y="-40"/>
      <point x="88" y="-94"/>
    </contour>
  </outline>
</glyph>
<glyph name="G" format="2">
  <advance width="765"/>
  <unicode hex="0047"/>
  <anchor x="378" y="0" name="bottom"/>
  <anchor x="378" y="722" name="top"/>
  <outline>
    <contour>
      <point x="425" y="-16" type="curve" smooth="yes"/>
      <point x="554" y="-16"/>
      <point x="656" y="31"/>
      <point x="735" y="98" type="curve"/>
      <point x="727" y="118"/>
      <point x="726" y="141"/>
      <point x="726" y="165" type="curve" smooth="yes"/>
      <point x="726" y="433" type="line"/>
      <point x="473" y="433" type="line"/>
      <point x="473" y="416" type="line"/>
      <point x="576" y="417"/>
      <point x="588" y="405"/>
      <point x="588" y="305" type="curve" smooth="yes"/>
      <point x="588" y="94" type="line"/>
      <point x="565" y="74"/>
      <point x="525" y="39"/>
      <point x="449" y="39" type="curve" smooth="yes"/>
      <point x="300" y="40"/>
      <point x="205" y="181"/>
      <point x="205" y="360" type="curve" smooth="yes"/>
      <point x="205" y="558"/>
      <point x="305" y="692"/>
      <point x="444" y="692" type="curve" smooth="yes"/>
      <point x="536" y="692"/>
      <point x="627" y="630"/>
      <point x="665" y="508" type="curve"/>
      <point x="681" y="510" type="line"/>
      <point x="672" y="688" type="line"/>
      <point x="612" y="722"/>
      <point x="535" y="740"/>
      <point x="456" y="740" type="curve" smooth="yes"/>
      <point x="242" y="740"/>
      <point x="40" y="605"/>
      <point x="40" y="355" type="curve" smooth="yes"/>
      <point x="40" y="140"/>
      <point x="182" y="-16"/>
    </contour>
  </outline>
</glyph>
<glyph name="H" format="2">
  <advance width="728"/>
  <unicode hex="0048"/>
  <anchor x="372" y="0" name="bottom"/>
  <anchor x="365" y="722" name="top"/>
  <outline>
    <contour>
      <point x="508" y="0" type="curve"/>
      <point x="678" y="0" type="line"/>
      <point x="669" y="22"/>
      <point x="665" y="43"/>
      <point x="665" y="80" type="curve" smooth="yes"/>
      <point x="665" y="602" type="line" smooth="yes"/>
      <point x="665" y="658"/>
      <point x="667" y="689"/>
      <point x="670" y="722" type="curve"/>
      <point x="453" y="722" type="line"/>
      <point x="453" y="706" type="line"/>
      <point x="471" y="706" type="line" smooth="yes"/>
      <point x="506" y="706"/>
      <point x="523" y="686"/>
      <point x="523" y="642" type="curve" smooth="yes"/>
      <point x="523" y="84" type="line" smooth="yes"/>
      <point x="523" y="44"/>
      <point x="519" y="24"/>
    </contour>
    <contour>
      <point x="75" y="0" type="curve"/>
      <point x="245" y="0" type="line"/>
      <point x="236" y="22"/>
      <point x="232" y="43"/>
      <point x="232" y="80" type="curve" smooth="yes"/>
      <point x="232" y="602" type="line" smooth="yes"/>
      <point x="232" y="658"/>
      <point x="234" y="689"/>
      <point x="237" y="722" type="curve"/>
      <point x="20" y="722" type="line"/>
      <point x="20" y="706" type="line"/>
      <point x="38" y="706" type="line" smooth="yes"/>
      <point x="73" y="706"/>
      <point x="90" y="686"/>
      <point x="90" y="642" type="curve" smooth="yes"/>
      <point x="90" y="84" type="line" smooth="yes"/>
      <point x="90" y="44"/>
      <point x="86" y="24"/>
    </contour>
    <contour>
      <point x="212" y="422" type="line"/>
      <point x="543" y="422" type="line"/>
      <point x="543" y="464" type="line"/>
      <point x="212" y="464" type="line"/>
    </contour>
  </outline>
</glyph>
<glyph name="J" format="2">
  <advance width="288.78125"/>
  <unicode hex="004A"/>
  <anchor x="134" y="0" name="bottom"/>
  <anchor x="134" y="722" name="top"/>
  <outline>
    <contour>
      <point x="-22" y="-233" type="curve"/>
      <point x="-7" y="-248" type="line"/>
      <point x="138" y="-140"/>
      <point x="239" y="-75"/>
      <point x="239" y="104" type="curve" smooth="yes"/>
      <point x="239" y="722" type="line"/>
      <point x="28" y="722" type="line"/>
      <point x="28" y="706" type="line"/>
      <point x="46" y="706" type="line" smooth="yes"/>
      <point x="81" y="706"/>
      <point x="98" y="686"/>
      <point x="98" y="642" type="curve" smooth="yes"/>
      <point x="98" y="114" type="line" smooth="yes"/>
      <point x="98" y="-54"/>
      <point x="79" y="-145"/>
    </contour>
  </outline>
</glyph>
<glyph name="K" format="2">
  <advance width="713"/>
  <unicode hex="004B"/>
  <anchor x="371" y="0" name="bottom"/>
  <anchor x="371" y="722" name="top"/>
  <outline>
    <contour>
      <point x="748" y="-140" type="curve"/>
      <point x="753" y="-125" type="line"/>
      <point x="659" y="-84"/>
      <point x="653" y="97"/>
      <point x="598" y="233" type="curve" smooth="yes"/>
      <point x="560" y="329"/>
      <point x="499" y="408"/>
      <point x="341" y="397" type="curve"/>
      <point x="533" y="637" type="line" smooth="yes"/>
      <point x="573" y="686"/>
      <point x="594" y="703"/>
      <point x="653" y="707" type="curve"/>
      <point x="653" y="722" type="line"/>
      <point x="466" y="722" type="line"/>
      <point x="453" y="687"/>
      <point x="368" y="585"/>
      <point x="235" y="420" type="curve"/>
      <point x="235" y="722" type="line"/>
      <point x="24" y="722" type="line"/>
      <point x="24" y="706" type="line"/>
      <point x="42" y="706" type="line" smooth="yes"/>
      <point x="77" y="706"/>
      <point x="94" y="686"/>
      <point x="94" y="642" type="curve" smooth="yes"/>
      <point x="94" y="84" type="line" smooth="yes"/>
      <point x="94" y="44"/>
      <point x="90" y="24"/>
      <point x="79" y="0" type="curve"/>
      <point x="250" y="0" type="line"/>
      <point x="239" y="24"/>
      <point x="235" y="44"/>
      <point x="235" y="84" type="curve" smooth="yes"/>
      <point x="235" y="355" type="line"/>
      <point x="251" y="357"/>
      <point x="269" y="357"/>
      <point x="281" y="357" type="curve" smooth="yes"/>
      <point x="391" y="354"/>
      <point x="429" y="269"/>
      <point x="478" y="127" type="curve" smooth="yes"/>
      <point x="519" y="8"/>
      <point x="558" y="-95"/>
    </contour>
  </outline>
</glyph>
<glyph name="L" format="2">
  <advance width="597.59375"/>
  <unicode hex="004C"/>
  <anchor x="292" y="0" name="bottom"/>
  <anchor x="292" y="361" name="center"/>
  <anchor x="292" y="722" name="top"/>
  <anchor x="568" y="722" name="topright"/>
  <outline>
    <contour>
      <point x="81" y="0" type="curve"/>
      <point x="543" y="0" type="line"/>
      <point x="575" y="265" type="line"/>
      <point x="558" y="268" type="line"/>
      <point x="518" y="106"/>
      <point x="447" y="57"/>
      <point x="235" y="55" type="curve"/>
      <point x="235" y="722" type="line"/>
      <point x="24" y="722" type="line"/>
      <point x="24" y="706" type="line"/>
      <point x="42" y="706" type="line" smooth="yes"/>
      <point x="77" y="706"/>
      <point x="94" y="686"/>
      <point x="94" y="642" type="curve" smooth="yes"/>
      <point x="94" y="118" type="line" smooth="yes"/>
      <point x="94" y="62"/>
      <point x="91" y="34"/>
    </contour>
  </outline>
</glyph>
<glyph name="M" format="2">
  <advance width="893.54688"/>
  <unicode hex="004D"/>
  <anchor x="425" y="0" name="bottom"/>
  <anchor x="425" y="722" name="top"/>
  <outline>
    <contour>
      <point x="35" y="0" type="curve"/>
      <point x="135" y="0" type="line"/>
      <point x="120" y="31"/>
      <point x="117" y="54"/>
      <point x="123" y="111" type="curve" smooth="yes"/>
      <point x="172" y="541" type="line"/>
      <point x="387" y="-5" type="line"/>
      <point x="421" y="-5" type="line"/>
      <point x="626" y="519" type="line"/>
      <point x="681" y="119" type="line" smooth="yes"/>
      <point x="688" y="59"/>
      <point x="686" y="36"/>
      <point x="675" y="0" type="curve"/>
      <point x="858" y="0" type="line"/>
      <point x="844" y="26"/>
      <point x="834" y="55"/>
      <point x="827" y="121" type="curve" smooth="yes"/>
      <point x="764" y="639" type="line" smooth="yes"/>
      <point x="759" y="684"/>
      <point x="782" y="705"/>
      <point x="824" y="705" type="curve" smooth="yes"/>
      <point x="845" y="705" type="line"/>
      <point x="845" y="722" type="line"/>
      <point x="650" y="722" type="line"/>
      <point x="455" y="240" type="line"/>
      <point x="265" y="722" type="line"/>
      <point x="38" y="722" type="line"/>
      <point x="38" y="705" type="line"/>
      <point x="60" y="705" type="line" smooth="yes"/>
      <point x="102" y="705"/>
      <point x="117" y="684"/>
      <point x="125" y="639" type="curve" smooth="yes"/>
      <point x="123" y="651" type="line"/>
      <point x="65" y="111" type="line" smooth="yes"/>
      <point x="59" y="54"/>
      <point x="50" y="27"/>
    </contour>
  </outline>
</glyph>
<glyph name="N" format="2">
  <advance width="807"/>
  <unicode hex="004E"/>
  <anchor x="391" y="0" name="bottom"/>
  <anchor x="391" y="722" name="top"/>
  <outline>
    <contour>
      <point x="112" y="0" type="curve"/>
      <point x="305" y="0" type="line"/>
      <point x="305" y="16" type="line"/>
      <point x="248" y="24"/>
      <point x="226" y="59"/>
      <point x="211" y="112" type="curve" smooth="yes"/>
      <point x="189" y="196"/>
      <point x="189" y="348"/>
      <point x="188" y="569" type="curve"/>
      <point x="695" y="0" type="line"/>
      <point x="746" y="0" type="line"/>
      <point x="746" y="588" type="line" smooth="yes"/>
      <point x="746" y="652"/>
      <point x="749" y="684"/>
      <point x="757" y="722" type="curve"/>
      <point x="572" y="722" type="line"/>
      <point x="572" y="708" type="line"/>
      <point x="607" y="708"/>
      <point x="639" y="701"/>
      <point x="661" y="653" type="curve" smooth="yes"/>
      <point x="687" y="593"/>
      <point x="692" y="495"/>
      <point x="692" y="218" type="curve"/>
      <point x="244" y="722" type="line"/>
      <point x="10" y="722" type="line"/>
      <point x="10" y="706" type="line"/>
      <point x="65" y="705"/>
      <point x="82" y="693"/>
      <point x="133" y="632" type="curve"/>
      <point x="127" y="112" type="line" smooth="yes"/>
      <point x="126" y="58"/>
      <point x="123" y="32"/>
    </contour>
  </outline>
</glyph>
<glyph name="O" format="2">
  <advance width="832"/>
  <unicode hex="004F"/>
  <anchor x="428" y="0" name="bottom"/>
  <anchor x="428" y="361" name="center"/>
  <anchor x="791" y="10" name="ogonek"/>
  <anchor x="428" y="722" name="top"/>
  <anchor x="-7" y="722" name="topleft"/>
  <anchor x="862" y="722" name="topright"/>
  <outline>
    <contour>
      <point x="419" y="-19" type="curve" smooth="yes"/>
      <point x="673" y="-19"/>
      <point x="792" y="166"/>
      <point x="792" y="358" type="curve" smooth="yes"/>
      <point x="792" y="542"/>
      <point x="673" y="735"/>
      <point x="418" y="735" type="curve" smooth="yes"/>
      <point x="191" y="735"/>
      <point x="40" y="568"/>
      <point x="40" y="358" type="curve" smooth="yes"/>
      <point x="40" y="137"/>
      <point x="181" y="-19"/>
    </contour>
    <contour>
      <point x="428" y="36" type="curve" smooth="yes"/>
      <point x="297" y="36"/>
      <point x="209" y="168"/>
      <point x="203" y="361" type="curve" smooth="yes"/>
      <point x="196" y="554"/>
      <point x="277" y="680"/>
      <point x="407" y="680" type="curve" smooth="yes"/>
      <point x="532" y="680"/>
      <point x="621" y="550"/>
      <point x="627" y="360" type="curve" smooth="yes"/>
      <point x="634" y="163"/>
      <point x="552" y="36"/>
    </contour>
  </outline>
</glyph>
<glyph name="P" format="2">
  <advance width="671.5625"/>
  <unicode hex="0050"/>
  <anchor x="295" y="0" name="bottom"/>
  <anchor x="295" y="722" name="top"/>
  <outline>
    <contour>
      <point x="79" y="0" type="curve"/>
      <point x="250" y="0" type="line"/>
      <point x="239" y="24"/>
      <point x="235" y="44"/>
      <point x="235" y="84" type="curve" smooth="yes"/>
      <point x="235" y="305" type="line"/>
      <point x="274" y="293"/>
      <point x="314" y="288"/>
      <point x="353" y="288" type="curve" smooth="yes"/>
      <point x="527" y="288"/>
      <point x="638" y="393"/>
      <point x="638" y="528" type="curve" smooth="yes"/>
      <point x="638" y="632"/>
      <point x="559" y="730"/>
      <point x="421" y="730" type="curve" smooth="yes"/>
      <point x="368" y="730"/>
      <point x="304" y="714"/>
      <point x="235" y="675" type="curve"/>
      <point x="235" y="722" type="line"/>
      <point x="24" y="722" type="line"/>
      <point x="24" y="706" type="line"/>
      <point x="42" y="706" type="line" smooth="yes"/>
      <point x="77" y="706"/>
      <point x="94" y="686"/>
      <point x="94" y="642" type="curve" smooth="yes"/>
      <point x="94" y="84" type="line" smooth="yes"/>
      <point x="94" y="44"/>
      <point x="90" y="24"/>
    </contour>
    <contour>
      <point x="235" y="352" type="curve"/>
      <point x="235" y="629" type="line"/>
      <point x="275" y="650"/>
      <point x="311" y="658"/>
      <point x="342" y="658" type="curve" smooth="yes"/>
      <point x="436" y="658"/>
      <point x="487" y="585"/>
      <point x="487" y="509" type="curve" smooth="yes"/>
      <point x="487" y="415"/>
      <point x="415" y="344"/>
      <point x="304" y="344" type="curve" smooth="yes"/>
      <point x="283" y="344"/>
      <point x="260" y="347"/>
    </contour>
  </outline>
</glyph>
<glyph name="Q" format="2">
  <advance width="829"/>
  <unicode hex="0051"/>
  <anchor x="434" y="0" name="bottom"/>
  <anchor x="434" y="722" name="top"/>
  <outline>
    <contour>
      <point x="1003" y="-292" type="curve" smooth="yes"/>
      <point x="1168" y="-292"/>
      <point x="1312" y="-237"/>
      <point x="1449" y="-119" type="curve"/>
      <point x="1441" y="-109" type="line"/>
      <point x="1330" y="-196"/>
      <point x="1237" y="-224"/>
      <point x="1130" y="-224" type="curve" smooth="yes"/>
      <point x="953" y="-224"/>
      <point x="732" y="-142"/>
      <point x="470" y="-11" type="curve"/>
      <point x="664" y="9"/>
      <point x="798" y="158"/>
      <point x="798" y="361" type="curve" smooth="yes"/>
      <point x="798" y="577"/>
      <point x="646" y="735"/>
      <point x="419" y="735" type="curve" smooth="yes"/>
      <point x="174" y="735"/>
      <point x="40" y="553"/>
      <point x="41" y="343" type="curve" smooth="yes"/>
      <point x="42" y="85"/>
      <point x="268" y="-39"/>
      <point x="450" y="-133" type="curve" smooth="yes"/>
      <point x="654" y="-235"/>
      <point x="839" y="-292"/>
    </contour>
    <contour>
      <point x="423" y="36" type="curve" smooth="yes"/>
      <point x="299" y="36"/>
      <point x="201" y="172"/>
      <point x="198" y="363" type="curve" smooth="yes"/>
      <point x="196" y="556"/>
      <point x="282" y="679"/>
      <point x="414" y="679" type="curve" smooth="yes"/>
      <point x="541" y="679"/>
      <point x="633" y="550"/>
      <point x="635" y="361" type="curve" smooth="yes"/>
      <point x="638" y="164"/>
      <point x="550" y="36"/>
    </contour>
  </outline>
</glyph>
<glyph name="S" format="2">
  <advance width="647"/>
  <unicode hex="0053"/>
  <anchor x="300" y="0" name="bottom"/>
  <anchor x="300" y="727" name="top"/>
  <outline>
    <contour>
      <point x="35" y="80" type="line"/>
      <point x="103" y="16"/>
      <point x="215" y="-23"/>
      <point x="320" y="-23" type="curve" smooth="yes"/>
      <point x="472" y="-23"/>
      <point x="616" y="57"/>
      <point x="612" y="215" type="curve" smooth="yes"/>
      <point x="609" y="331"/>
      <point x="524" y="386"/>
      <point x="413" y="428" type="curve" smooth="yes"/>
      <point x="292" y="474"/>
      <point x="184" y="502"/>
      <point x="183" y="592" type="curve" smooth="yes"/>
      <point x="182" y="643"/>
      <point x="236" y="677"/>
      <point x="307" y="677" type="curve" smooth="yes"/>
      <point x="389" y="678"/>
      <point x="441" y="647"/>
      <point x="469" y="599" type="curve" smooth="yes"/>
      <point x="490" y="563"/>
      <point x="498" y="518"/>
      <point x="497" y="470" type="curve"/>
      <point x="517" y="466" type="line"/>
      <point x="563" y="671" type="line"/>
      <point x="495" y="714"/>
      <point x="408" y="736"/>
      <point x="322" y="737" type="curve" smooth="yes"/>
      <point x="191" y="738"/>
      <point x="68" y="680"/>
      <point x="68" y="543" type="curve" smooth="yes"/>
      <point x="68" y="414"/>
      <point x="176" y="369"/>
      <point x="285" y="327" type="curve" smooth="yes"/>
      <point x="401" y="282"/>
      <point x="485" y="248"/>
      <point x="486" y="156" type="curve" smooth="yes"/>
      <point x="487" y="77"/>
      <point x="421" y="39"/>
      <point x="345" y="39" type="curve" smooth="yes"/>
      <point x="257" y="39"/>
      <point x="175" y="84"/>
      <point x="144" y="164" type="curve" smooth="yes"/>
      <point x="125" y="206"/>
      <point x="119" y="256"/>
      <point x="128" y="310" type="curve"/>
      <point x="110" y="316" type="line"/>
    </contour>
  </outline>
</glyph>
<glyph name="T" format="2">
  <advance width="694.21875"/>
  <unicode hex="0054"/>
  <anchor x="312" y="0" name="bottom"/>
  <anchor x="312" y="361" name="center"/>
  <anchor x="312" y="722" name="top"/>
  <outline>
    <contour>
      <point x="262" y="-1" type="curve"/>
      <point x="433" y="0" type="line"/>
      <point x="422" y="24"/>
      <point x="418" y="44"/>
      <point x="418" y="84" type="curve" smooth="yes"/>
      <point x="418" y="680" type="line"/>
      <point x="541" y="674"/>
      <point x="623" y="610"/>
      <point x="647" y="473" type="curve"/>
      <point x="662" y="476" type="line"/>
      <point x="631" y="722" type="line"/>
      <point x="64" y="722" type="line"/>
      <point x="32" y="476" type="line"/>
      <point x="47" y="473" type="line"/>
      <point x="75" y="610"/>
      <point x="151" y="674"/>
      <point x="277" y="680" type="curve"/>
      <point x="277" y="83" type="line" smooth="yes"/>
      <point x="277" y="43"/>
      <point x="273" y="23"/>
    </contour>
  </outline>
</glyph>
<glyph name="U" format="2">
  <advance width="676.375"/>
  <unicode hex="0055"/>
  <anchor x="328" y="0" name="bottom"/>
  <anchor x="599" y="10" name="ogonek"/>
  <anchor x="328" y="722" name="top"/>
  <anchor x="647" y="722" name="topright"/>
  <outline>
    <contour>
      <point x="338" y="-24" type="curve" smooth="yes"/>
      <point x="504" y="-25"/>
      <point x="617" y="73"/>
      <point x="617" y="276" type="curve" smooth="yes"/>
      <point x="617" y="638" type="line" smooth="yes"/>
      <point x="617" y="678"/>
      <point x="621" y="698"/>
      <point x="632" y="722" type="curve"/>
      <point x="450" y="722" type="line"/>
      <point x="450" y="706" type="line"/>
      <point x="472" y="706" type="line" smooth="yes"/>
      <point x="514" y="706"/>
      <point x="534" y="686"/>
      <point x="534" y="642" type="curve" smooth="yes"/>
      <point x="534" y="240" type="line" smooth="yes"/>
      <point x="534" y="109"/>
      <point x="459" y="53"/>
      <point x="366" y="53" type="curve" smooth="yes"/>
      <point x="278" y="53"/>
      <point x="198" y="88"/>
      <point x="198" y="223" type="curve" smooth="yes"/>
      <point x="198" y="642" type="line" smooth="yes"/>
      <point x="198" y="686"/>
      <point x="219" y="706"/>
      <point x="263" y="706" type="curve" smooth="yes"/>
      <point x="285" y="706" type="line"/>
      <point x="285" y="722" type="line"/>
      <point x="42" y="722" type="line"/>
      <point x="53" y="698"/>
      <point x="57" y="678"/>
      <point x="57" y="638" type="curve" smooth="yes"/>
      <point x="57" y="250" type="line" smooth="yes"/>
      <point x="57" y="36"/>
      <point x="197" y="-23"/>
    </contour>
  </outline>
</glyph>
<glyph name="V" format="2">
  <advance width="763"/>
  <unicode hex="0056"/>
  <anchor x="376" y="0" name="bottom"/>
  <anchor x="376" y="722" name="top"/>
  <outline>
    <contour>
      <point x="92" y="636" type="curve" smooth="yes"/>
      <point x="370" y="-5" type="line"/>
      <point x="412" y="-5" type="line"/>
      <point x="669" y="643" type="line" smooth="yes"/>
      <point x="685" y="684"/>
      <point x="694" y="706"/>
      <point x="733" y="706" type="curve" smooth="yes"/>
      <point x="748" y="706" type="line"/>
      <point x="748" y="722" type="line"/>
      <point x="617" y="722" type="line"/>
      <point x="623" y="695"/>
      <point x="618" y="657"/>
      <point x="594" y="594" type="curve" smooth="yes"/>
      <point x="493" y="333" type="line" smooth="yes"/>
      <point x="455" y="234"/>
      <point x="447" y="218"/>
      <point x="443" y="202" type="curve"/>
      <point x="437" y="218"/>
      <point x="425" y="247"/>
      <point x="415" y="270" type="curve" smooth="yes"/>
      <point x="279" y="588" type="line" smooth="yes"/>
      <point x="248" y="660"/>
      <point x="240" y="688"/>
      <point x="240" y="722" type="curve"/>
      <point x="10" y="722" type="line"/>
      <point x="10" y="706" type="line"/>
      <point x="29" y="706" type="line" smooth="yes"/>
      <point x="66" y="706"/>
      <point x="73" y="680"/>
    </contour>
  </outline>
</glyph>
<glyph name="W" format="2">
  <advance width="1120.1875"/>
  <unicode hex="0057"/>
  <anchor x="590" y="0" name="bottom"/>
  <anchor x="520" y="723" name="top"/>
  <outline>
    <contour>
      <point x="106" y="636" type="curve" smooth="yes"/>
      <point x="326" y="-5" type="line"/>
      <point x="382" y="-5" type="line"/>
      <point x="569" y="512" type="line"/>
      <point x="762" y="-5" type="line"/>
      <point x="821" y="-6" type="line"/>
      <point x="1038" y="643" type="line" smooth="yes"/>
      <point x="1052" y="685"/>
      <point x="1061" y="706"/>
      <point x="1097" y="706" type="curve" smooth="yes"/>
      <point x="1115" y="706" type="line"/>
      <point x="1115" y="722" type="line"/>
      <point x="979" y="722" type="line"/>
      <point x="991" y="698"/>
      <point x="993" y="665"/>
      <point x="969" y="594" type="curve" smooth="yes"/>
      <point x="841" y="210" type="line"/>
      <point x="653" y="721" type="line"/>
      <point x="438" y="722" type="line"/>
      <point x="438" y="705" type="line"/>
      <point x="458" y="705" type="line" smooth="yes"/>
      <point x="496" y="705"/>
      <point x="505" y="681"/>
      <point x="522" y="636" type="curve" smooth="yes"/>
      <point x="543" y="581" type="line"/>
      <point x="408" y="211" type="line"/>
      <point x="241" y="721" type="line"/>
      <point x="26" y="722" type="line"/>
      <point x="25" y="706" type="line"/>
      <point x="44" y="706" type="line" smooth="yes"/>
      <point x="81" y="706"/>
      <point x="90" y="681"/>
    </contour>
  </outline>
</glyph>
<glyph name="X" format="2">
  <advance width="765"/>
  <unicode hex="0058"/>
  <anchor x="292" y="0" name="bottom"/>
  <anchor x="292" y="722" name="top"/>
  <outline>
    <contour>
      <point x="760" y="14" type="curve"/>
      <point x="756" y="31" type="line"/>
      <point x="694" y="17"/>
      <point x="662" y="56"/>
      <point x="630" y="107" type="curve" smooth="yes"/>
      <point x="283" y="664" type="line" smooth="yes"/>
      <point x="267" y="688"/>
      <point x="258" y="705"/>
      <point x="256" y="722" type="curve"/>
      <point x="30" y="722" type="line"/>
      <point x="30" y="705" type="line"/>
      <point x="52" y="705" type="line" smooth="yes"/>
      <point x="94" y="705"/>
      <point x="100" y="680"/>
      <point x="125" y="641" type="curve" smooth="yes"/>
      <point x="481" y="74" type="line" smooth="yes"/>
      <point x="522" y="8"/>
      <point x="560" y="-20"/>
      <point x="617" y="-22" type="curve" smooth="yes"/>
      <point x="656" y="-24"/>
      <point x="703" y="-13"/>
    </contour>
    <contour>
      <point x="15" y="14" type="curve"/>
      <point x="16" y="0" type="line"/>
      <point x="221" y="0" type="line"/>
      <point x="209" y="26"/>
      <point x="207" y="62"/>
      <point x="239" y="122" type="curve" smooth="yes"/>
      <point x="396" y="401" type="line"/>
      <point x="345" y="438" type="line"/>
      <point x="132" y="96" type="line" smooth="yes"/>
      <point x="99" y="43"/>
      <point x="72" y="19"/>
    </contour>
    <contour>
      <point x="436" y="367" type="line"/>
      <point x="567" y="563" type="line" smooth="yes"/>
      <point x="639" y="670"/>
      <point x="669" y="704"/>
      <point x="733" y="708" type="curve"/>
      <point x="733" y="722" type="line"/>
      <point x="542" y="722" type="line"/>
      <point x="544" y="692"/>
      <point x="540" y="653"/>
      <point x="497" y="581" type="curve" smooth="yes"/>
      <point x="395" y="412" type="line"/>
    </contour>
  </outline>
</glyph>
<glyph name="Y" format="2">
  <advance width="652"/>
  <unicode hex="0059"/>
  <anchor x="341" y="0" name="bottom"/>
  <anchor x="341" y="722" name="top"/>
  <anchor x="36" y="722" name="topleft"/>
  <outline>
    <contour>
      <point x="222" y="-131" type="curve"/>
      <point x="239" y="-141" type="line"/>
      <point x="289" y="-60"/>
      <point x="341" y="-5"/>
      <point x="410" y="0" type="curve"/>
      <point x="410" y="374" type="line"/>
      <point x="529" y="590" type="line" smooth="yes"/>
      <point x="576" y="676"/>
      <point x="603" y="704"/>
      <point x="640" y="706" type="curve"/>
      <point x="640" y="722" type="line"/>
      <point x="490" y="722" type="line"/>
      <point x="502" y="688"/>
      <point x="506" y="657"/>
      <point x="464" y="582" type="curve" smooth="yes"/>
      <point x="386" y="442" type="line"/>
      <point x="256" y="662" type="line" smooth="yes"/>
      <point x="241" y="687"/>
      <point x="232" y="705"/>
      <point x="230" y="722" type="curve"/>
      <point x="12" y="722" type="line"/>
      <point x="12" y="706" type="line"/>
      <point x="33" y="706" type="line" smooth="yes"/>
      <point x="75" y="706"/>
      <point x="82" y="681"/>
      <point x="106" y="641" type="curve" smooth="yes"/>
      <point x="269" y="367" type="line"/>
      <point x="269" y="46" type="line" smooth="yes"/>
      <point x="269" y="-31"/>
      <point x="262" y="-65"/>
    </contour>
  </outline>
</glyph>
<glyph name="Z" format="2">
  <advance width="685"/>
  <unicode hex="005A"/>
  <anchor x="339" y="0" name="bottom"/>
  <anchor x="339" y="361" name="center"/>
  <anchor x="339" y="722" name="top"/>
  <outline>
    <contour>
      <point x="38" y="-11" type="line"/>
      <point x="103" y="23"/>
      <point x="172" y="43"/>
      <point x="259" y="39" type="curve" smooth="yes"/>
      <point x="378" y="34"/>
      <point x="494" y="-27"/>
      <point x="616" y="3" type="curve"/>
      <point x="618" y="80"/>
      <point x="652" y="185"/>
      <point x="655" y="243" type="curve"/>
      <point x="638" y="246" type="line"/>
      <point x="626" y="182"/>
      <point x="599" y="138"/>
      <point x="537" y="130" type="curve" smooth="yes"/>
      <point x="472" y="124"/>
      <point x="402" y="151"/>
      <point x="313" y="151" type="curve" smooth="yes"/>
      <point x="261" y="151"/>
      <point x="208" y="146"/>
      <point x="155" y="125" type="curve"/>
      <point x="151" y="131" type="line"/>
      <point x="675" y="727" type="line"/>
      <point x="664" y="741" type="line"/>
      <point x="618" y="721"/>
      <point x="557" y="722"/>
      <point x="420" y="722" type="curve" smooth="yes"/>
      <point x="267" y="722"/>
      <point x="188" y="718"/>
      <point x="140" y="745" type="curve"/>
      <point x="52" y="483" type="line"/>
      <point x="70" y="477" type="line"/>
      <point x="115" y="577"/>
      <point x="137" y="598"/>
      <point x="243" y="598" type="curve" smooth="yes"/>
      <point x="470" y="598" type="line"/>
      <point x="10" y="20" type="line"/>
    </contour>
  </outline>
</glyph>
<glyph name="bracketleft" format="2">
  <advance width="461"/>
  <unicode hex="005B"/>
  <note>
bracketleft
</note>
  <outline>
    <contour>
      <point x="60" y="-96" type="curve"/>
      <point x="393" y="-96" type="line"/>
      <point x="394" y="-9"/>
      <point x="400" y="47"/>
      <point x="421" y="111" type="curve"/>
      <point x="403" y="116" type="line"/>
      <point x="356" y="6"/>
      <point x="303" y="-62"/>
      <point x="231" y="-62" type="curve" smooth="yes"/>
      <point x="194" y="-62"/>
      <point x="190" y="-49"/>
      <point x="190" y="1" type="curve" smooth="yes"/>
      <point x="190" y="786" type="line"/>
      <point x="215" y="786" type="line" smooth="yes"/>
      <point x="285" y="786"/>
      <point x="330" y="746"/>
      <point x="388" y="610" type="curve"/>
      <point x="406" y="618" type="line"/>
      <point x="385" y="682"/>
      <point x="381" y="788"/>
      <point x="380" y="820" type="curve"/>
      <point x="60" y="820" type="line"/>
      <point x="76" y="793"/>
      <point x="80" y="779"/>
      <point x="80" y="722" type="curve" smooth="yes"/>
      <point x="80" y="-7" type="line" smooth="yes"/>
      <point x="80" y="-52"/>
      <point x="75" y="-69"/>
    </contour>
  </outline>
</glyph>
<glyph name="bracketright" format="2">
  <advance width="461"/>
  <unicode hex="005D"/>
  <note>
bracketright
</note>
  <outline>
    <contour>
      <point x="68" y="-96" type="curve"/>
      <point x="401" y="-96" type="line"/>
      <point x="386" y="-69"/>
      <point x="381" y="-52"/>
      <point x="381" y="-7" type="curve" smooth="yes"/>
      <point x="381" y="722" type="line" smooth="yes"/>
      <point x="381" y="779"/>
      <point x="385" y="793"/>
      <point x="401" y="820" type="curve"/>
      <point x="81" y="820" type="line"/>
      <point x="80" y="788"/>
      <point x="75" y="682"/>
      <point x="54" y="618" type="curve"/>
      <point x="73" y="610" type="line"/>
      <point x="125" y="737"/>
      <point x="185" y="786"/>
      <point x="242" y="786" type="curve" smooth="yes"/>
      <point x="271" y="786" type="line"/>
      <point x="271" y="1" type="line" smooth="yes"/>
      <point x="271" y="-49"/>
      <point x="267" y="-62"/>
      <point x="230" y="-62" type="curve" smooth="yes"/>
      <point x="158" y="-62"/>
      <point x="105" y="6"/>
      <point x="57" y="116" type="curve"/>
      <point x="40" y="111" type="line"/>
      <point x="61" y="47"/>
      <point x="67" y="-9"/>
    </contour>
  </outline>
</glyph>
<glyph name="a" format="2">
  <advance width="584"/>
  <unicode hex="0061"/>
  <anchor x="565" y="0" name="ogonek"/>
  <anchor x="255" y="500" name="top"/>
  <outline>
    <contour>
      <point x="404" y="0" type="curve"/>
      <point x="564" y="0" type="line"/>
      <point x="356" y="460" type="line" smooth="yes"/>
      <point x="348" y="479"/>
      <point x="346" y="488"/>
      <point x="348" y="500" type="curve"/>
      <point x="85" y="500" type="line"/>
      <point x="85" y="482" type="line"/>
      <point x="112" y="482" type="line" smooth="yes"/>
      <point x="191" y="482"/>
      <point x="211" y="470"/>
      <point x="240" y="405" type="curve" smooth="yes"/>
      <point x="395" y="63" type="line" smooth="yes"/>
      <point x="408" y="34"/>
      <point x="411" y="19"/>
    </contour>
    <contour>
      <point x="197" y="-12" type="curve" smooth="yes"/>
      <point x="288" y="-12"/>
      <point x="363" y="50"/>
      <point x="378" y="136" type="curve"/>
      <point x="362" y="175" type="line"/>
      <point x="345" y="119"/>
      <point x="298" y="82"/>
      <point x="244" y="82" type="curve" smooth="yes"/>
      <point x="185" y="82"/>
      <point x="145" y="124"/>
      <point x="145" y="189" type="curve" smooth="yes"/>
      <point x="145" y="272"/>
      <point x="205" y="327"/>
      <point x="297" y="332" type="curve"/>
      <point x="282" y="356" type="line"/>
      <point x="135" y="356"/>
      <point x="30" y="272"/>
      <point x="30" y="153" type="curve" smooth="yes"/>
      <point x="30" y="57"/>
      <point x="99" y="-12"/>
    </contour>
  </outline>
</glyph>
<glyph name="c" format="2">
  <advance width="530"/>
  <unicode hex="0063"/>
  <anchor x="265" y="0" name="bottom"/>
  <anchor x="265" y="500" name="top"/>
  <outline>
    <contour>
      <point x="276" y="-10" type="curve" smooth="yes"/>
      <point x="369" y="-10"/>
      <point x="464" y="42"/>
      <point x="512" y="155" type="curve"/>
      <point x="500" y="162" type="line"/>
      <point x="471" y="110"/>
      <point x="413" y="81"/>
      <point x="353" y="81" type="curve" smooth="yes"/>
      <point x="245" y="81"/>
      <point x="161" y="168"/>
      <point x="161" y="294" type="curve" smooth="yes"/>
      <point x="161" y="392"/>
      <point x="224" y="462"/>
      <point x="312" y="462" type="curve" smooth="yes"/>
      <point x="400" y="462"/>
      <point x="425" y="397"/>
      <point x="410" y="330" type="curve"/>
      <point x="424" y="327" type="line"/>
      <point x="485" y="470" type="line"/>
      <point x="438" y="495"/>
      <point x="379" y="509"/>
      <point x="319" y="509" type="curve" smooth="yes"/>
      <point x="153" y="509"/>
      <point x="30" y="408"/>
      <point x="30" y="243" type="curve" smooth="yes"/>
      <point x="30" y="98"/>
      <point x="136" y="-10"/>
    </contour>
  </outline>
</glyph>
<glyph name="d" format="2">
  <advance width="583"/>
  <unicode hex="0064"/>
  <anchor x="316" y="0" name="bottom"/>
  <anchor x="316" y="250" name="center"/>
  <anchor x="316" y="800" name="top"/>
  <anchor x="571" y="500" name="topright"/>
  <outline>
    <contour>
      <point x="380" y="680" type="curve" smooth="yes"/>
      <point x="381" y="507" type="line"/>
      <point x="355" y="512"/>
      <point x="329" y="514"/>
      <point x="305" y="514" type="curve" smooth="yes"/>
      <point x="133" y="514"/>
      <point x="30" y="396"/>
      <point x="30" y="233" type="curve" smooth="yes"/>
      <point x="30" y="82"/>
      <point x="124" y="-13"/>
      <point x="250" y="-13" type="curve" smooth="yes"/>
      <point x="303" y="-13"/>
      <point x="352" y="2"/>
      <point x="390" y="29" type="curve"/>
      <point x="393" y="18"/>
      <point x="396" y="8"/>
      <point x="399" y="0" type="curve"/>
      <point x="522" y="0" type="line"/>
      <point x="513" y="22"/>
      <point x="509" y="43"/>
      <point x="509" y="80" type="curve" smooth="yes"/>
      <point x="509" y="572" type="line"/>
      <point x="511" y="612"/>
      <point x="517" y="636"/>
      <point x="533" y="657" type="curve"/>
      <point x="533" y="665" type="line"/>
      <point x="369" y="817" type="line"/>
      <point x="360" y="811" type="line"/>
      <point x="375" y="767"/>
      <point x="380" y="731"/>
    </contour>
    <contour>
      <point x="168" y="260" type="curve" smooth="yes"/>
      <point x="168" y="379"/>
      <point x="221" y="459"/>
      <point x="299" y="461" type="curve" smooth="yes"/>
      <point x="327" y="462"/>
      <point x="356" y="455"/>
      <point x="381" y="439" type="curve"/>
      <point x="381" y="96" type="line"/>
      <point x="365" y="61"/>
      <point x="335" y="43"/>
      <point x="302" y="43" type="curve" smooth="yes"/>
      <point x="209" y="43"/>
      <point x="168" y="151"/>
    </contour>
  </outline>
</glyph>
<glyph name="g" format="2">
  <advance width="608.53125"/>
  <unicode hex="0067"/>
  <anchor x="305" y="-200" name="bottom"/>
  <anchor x="306" y="508" name="top"/>
  <outline>
    <contour>
      <point x="126" y="-17" type="curve"/>
      <point x="25" y="-165" type="line"/>
      <point x="55" y="-257"/>
      <point x="150" y="-298"/>
      <point x="242" y="-301" type="curve" smooth="yes"/>
      <point x="402" y="-306"/>
      <point x="547" y="-201"/>
      <point x="551" y="-58" type="curve" smooth="yes"/>
      <point x="554" y="30"/>
      <point x="499" y="51"/>
      <point x="410" y="50" type="curve" smooth="yes"/>
      <point x="319" y="51"/>
      <point x="195" y="45"/>
      <point x="175" y="91" type="curve"/>
      <point x="228" y="108"/>
      <point x="288" y="128"/>
      <point x="361" y="161" type="curve" smooth="yes"/>
      <point x="459" y="204"/>
      <point x="519" y="269"/>
      <point x="519" y="339" type="curve" smooth="yes"/>
      <point x="519" y="385"/>
      <point x="495" y="431"/>
      <point x="443" y="467" type="curve"/>
      <point x="495" y="482"/>
      <point x="546" y="484"/>
      <point x="594" y="484" type="curve"/>
      <point x="594" y="500" type="line"/>
      <point x="553" y="503"/>
      <point x="526" y="519"/>
      <point x="508" y="547" type="curve"/>
      <point x="357" y="500" type="line"/>
      <point x="342" y="502"/>
      <point x="328" y="503"/>
      <point x="313" y="503" type="curve" smooth="yes"/>
      <point x="200" y="503"/>
      <point x="90" y="442"/>
      <point x="93" y="320" type="curve" smooth="yes"/>
      <point x="94" y="255"/>
      <point x="130" y="189"/>
      <point x="204" y="145" type="curve"/>
      <point x="165" y="125"/>
      <point x="107" y="105"/>
      <point x="46" y="88" type="curve"/>
      <point x="51" y="36"/>
      <point x="84" y="2"/>
    </contour>
    <contour>
      <point x="153" y="-30" type="curve"/>
      <point x="221" y="-57"/>
      <point x="296" y="-61"/>
      <point x="351" y="-64" type="curve" smooth="yes"/>
      <point x="419" y="-68"/>
      <point x="458" y="-77"/>
      <point x="458" y="-134" type="curve" smooth="yes"/>
      <point x="458" y="-194"/>
      <point x="395" y="-234"/>
      <point x="324" y="-233" type="curve" smooth="yes"/>
      <point x="227" y="-231"/>
      <point x="155" y="-183"/>
      <point x="140" y="-114" type="curve" smooth="yes"/>
      <point x="135" y="-88"/>
      <point x="140" y="-58"/>
    </contour>
    <contour>
      <point x="211" y="358" type="curve" smooth="yes"/>
      <point x="211" y="427"/>
      <point x="250" y="460"/>
      <point x="293" y="460" type="curve" smooth="yes"/>
      <point x="342" y="460"/>
      <point x="396" y="415"/>
      <point x="397" y="332" type="curve" smooth="yes"/>
      <point x="398" y="282"/>
      <point x="375" y="230"/>
      <point x="319" y="191" type="curve"/>
      <point x="247" y="226"/>
      <point x="211" y="298"/>
    </contour>
  </outline>
</glyph>
<glyph name="h" format="2">
  <advance width="562"/>
  <unicode hex="0068"/>
  <anchor x="281" y="0" name="bottom"/>
  <anchor x="281" y="400" name="center"/>
  <anchor x="318" y="786" name="top"/>
  <outline>
    <contour>
      <point x="282" y="-73" type="curve"/>
      <point x="291" y="-81" type="line"/>
      <point x="432" y="12"/>
      <point x="532" y="174"/>
      <point x="532" y="310" type="curve" smooth="yes"/>
      <point x="532" y="432"/>
      <point x="452" y="508"/>
      <point x="348" y="508" type="curve" smooth="yes"/>
      <point x="290" y="508"/>
      <point x="224" y="484"/>
      <point x="180" y="445" type="curve"/>
      <point x="184" y="380" type="line"/>
      <point x="204" y="420"/>
      <point x="245" y="446"/>
      <point x="285" y="446" type="curve" smooth="yes"/>
      <point x="356" y="446"/>
      <point x="397" y="371"/>
      <point x="397" y="256" type="curve" smooth="yes"/>
      <point x="397" y="134"/>
      <point x="352" y="3"/>
    </contour>
    <component base="l" identifier="E5C6C182"/>
  </outline>
</glyph>
<glyph name="k" format="2">
  <advance width="540"/>
  <unicode hex="006B"/>
  <guideline x="439" y="108" angle="122.7212"/>
  <anchor x="283" y="0" name="bottom"/>
  <anchor x="283" y="800" name="top"/>
  <outline>
    <contour>
      <point x="357" y="500" type="line"/>
      <point x="352" y="462"/>
      <point x="331" y="428"/>
      <point x="267" y="366" type="curve" smooth="yes"/>
      <point x="173" y="276" type="line"/>
      <point x="176" y="251" type="line"/>
      <point x="189" y="251" type="line"/>
      <point x="306" y="69" type="line" smooth="yes"/>
      <point x="330" y="31"/>
      <point x="336" y="19"/>
      <point x="336" y="0" type="curve"/>
      <point x="520" y="0" type="line"/>
      <point x="520" y="15" type="line"/>
      <point x="482" y="20"/>
      <point x="467" y="39"/>
      <point x="423" y="108" type="curve" smooth="yes"/>
      <point x="290" y="315" type="line"/>
      <point x="341" y="366" type="line" smooth="yes"/>
      <point x="413" y="438"/>
      <point x="466" y="478"/>
      <point x="499" y="484" type="curve"/>
      <point x="499" y="500" type="line"/>
    </contour>
    <component base="l" identifier="E02E210F"/>
  </outline>
</glyph>
<glyph name="l" format="2">
  <advance width="264"/>
  <unicode hex="006C"/>
  <anchor x="128" y="0" name="bottom"/>
  <anchor x="129" y="765" name="top"/>
  <outline>
    <contour>
      <point x="48" y="0" type="curve"/>
      <point x="205" y="0" type="line"/>
      <point x="196" y="22"/>
      <point x="192" y="43"/>
      <point x="192" y="80" type="curve" smooth="yes"/>
      <point x="193" y="666" type="line" smooth="yes"/>
      <point x="194" y="717"/>
      <point x="198" y="753"/>
      <point x="214" y="797" type="curve"/>
      <point x="205" y="803" type="line"/>
      <point x="40" y="652" type="line"/>
      <point x="40" y="644" type="line"/>
      <point x="56" y="623"/>
      <point x="61" y="599"/>
      <point x="63" y="559" type="curve"/>
      <point x="63" y="84" type="line" smooth="yes"/>
      <point x="63" y="44"/>
      <point x="59" y="24"/>
    </contour>
  </outline>
</glyph>
<glyph name="m" format="2">
  <advance width="852"/>
  <unicode hex="006D"/>
  <anchor x="408" y="0" name="bottom"/>
  <anchor x="408" y="500" name="top"/>
  <outline>
    <contour>
      <point x="557" y="-47" type="curve"/>
      <point x="567" y="-61" type="line"/>
      <point x="741" y="38"/>
      <point x="822" y="193"/>
      <point x="822" y="314" type="curve" smooth="yes"/>
      <point x="822" y="425"/>
      <point x="755" y="508"/>
      <point x="650" y="508" type="curve" smooth="yes"/>
      <point x="586" y="508"/>
      <point x="518" y="481"/>
      <point x="476" y="435" type="curve"/>
      <point x="484" y="382" type="line"/>
      <point x="503" y="419"/>
      <point x="541" y="445"/>
      <point x="581" y="445" type="curve" smooth="yes"/>
      <point x="648" y="445"/>
      <point x="687" y="375"/>
      <point x="687" y="279" type="curve" smooth="yes"/>
      <point x="687" y="159"/>
      <point x="643" y="23"/>
    </contour>
    <contour>
      <point x="64" y="0" type="curve"/>
      <point x="223" y="0" type="line"/>
      <point x="213" y="24"/>
      <point x="209" y="48"/>
      <point x="209" y="89" type="curve" smooth="yes"/>
      <point x="209" y="430" type="line" smooth="yes"/>
      <point x="209" y="453"/>
      <point x="207" y="479"/>
      <point x="203" y="500" type="curve"/>
      <point x="10" y="500" type="line"/>
      <point x="10" y="483" type="line"/>
      <point x="28" y="483" type="line" smooth="yes"/>
      <point x="63" y="483"/>
      <point x="80" y="461"/>
      <point x="80" y="413" type="curve" smooth="yes"/>
      <point x="80" y="94" type="line" smooth="yes"/>
      <point x="80" y="49"/>
      <point x="76" y="27"/>
    </contour>
    <contour>
      <point x="288" y="-62" type="curve"/>
      <point x="299" y="-75" type="line"/>
      <point x="443" y="18"/>
      <point x="528" y="174"/>
      <point x="528" y="310" type="curve" smooth="yes"/>
      <point x="528" y="426"/>
      <point x="458" y="508"/>
      <point x="350" y="508" type="curve" smooth="yes"/>
      <point x="287" y="508"/>
      <point x="225" y="478"/>
      <point x="185" y="434" type="curve"/>
      <point x="185" y="373" type="line"/>
      <point x="202" y="414"/>
      <point x="241" y="445"/>
      <point x="282" y="445" type="curve" smooth="yes"/>
      <point x="357" y="445"/>
      <point x="394" y="363"/>
      <point x="394" y="257" type="curve" smooth="yes"/>
      <point x="394" y="138"/>
      <point x="357" y="2"/>
    </contour>
  </outline>
</glyph>
<glyph name="n" format="2">
  <advance width="567"/>
  <unicode hex="006E"/>
  <anchor x="251" y="0" name="bottom"/>
  <anchor x="260" y="500" name="top"/>
  <outline>
    <contour>
      <point x="287" y="-73" type="curve"/>
      <point x="296" y="-81" type="line"/>
      <point x="437" y="12"/>
      <point x="537" y="174"/>
      <point x="537" y="310" type="curve" smooth="yes"/>
      <point x="537" y="432"/>
      <point x="457" y="508"/>
      <point x="353" y="508" type="curve" smooth="yes"/>
      <point x="294" y="508"/>
      <point x="232" y="484"/>
      <point x="185" y="445" type="curve"/>
      <point x="189" y="380" type="line"/>
      <point x="208" y="420"/>
      <point x="250" y="446"/>
      <point x="290" y="446" type="curve" smooth="yes"/>
      <point x="361" y="446"/>
      <point x="402" y="371"/>
      <point x="402" y="256" type="curve" smooth="yes"/>
      <point x="402" y="134"/>
      <point x="357" y="3"/>
    </contour>
    <contour>
      <point x="64" y="0" type="curve"/>
      <point x="223" y="0" type="line"/>
      <point x="213" y="24"/>
      <point x="209" y="48"/>
      <point x="209" y="89" type="curve" smooth="yes"/>
      <point x="209" y="432" type="line" smooth="yes"/>
      <point x="209" y="453"/>
      <point x="209" y="481"/>
      <point x="203" y="500" type="curve"/>
      <point x="10" y="500" type="line"/>
      <point x="10" y="483" type="line"/>
      <point x="28" y="483" type="line" smooth="yes"/>
      <point x="63" y="483"/>
      <point x="80" y="461"/>
      <point x="80" y="413" type="curve" smooth="yes"/>
      <point x="80" y="94" type="line" smooth="yes"/>
      <point x="80" y="49"/>
      <point x="76" y="27"/>
    </contour>
  </outline>
</glyph>
<glyph name="o" format="2">
  <advance width="586"/>
  <unicode hex="006F"/>
  <anchor x="292" y="500" name="top"/>
  <outline>
    <contour>
      <point x="296" y="-12" type="curve" smooth="yes"/>
      <point x="450" y="-12"/>
      <point x="556" y="95"/>
      <point x="556" y="245" type="curve" smooth="yes"/>
      <point x="556" y="399"/>
      <point x="448" y="508"/>
      <point x="290" y="508" type="curve" smooth="yes"/>
      <point x="136" y="508"/>
      <point x="30" y="401"/>
      <point x="30" y="251" type="curve" smooth="yes"/>
      <point x="30" y="97"/>
      <point x="139" y="-12"/>
    </contour>
    <contour>
      <point x="315" y="37" type="curve" smooth="yes"/>
      <point x="228" y="37"/>
      <point x="170" y="139"/>
      <point x="167" y="285" type="curve" smooth="yes"/>
      <point x="166" y="397"/>
      <point x="207" y="464"/>
      <point x="279" y="464" type="curve" smooth="yes"/>
      <point x="364" y="465"/>
      <point x="423" y="364"/>
      <point x="426" y="218" type="curve" smooth="yes"/>
      <point x="427" y="106"/>
      <point x="386" y="37"/>
    </contour>
  </outline>
</glyph>
<glyph name="p" format="2">
  <advance width="575"/>
  <unicode hex="0070"/>
  <anchor x="271" y="0" name="bottom"/>
  <anchor x="271" y="500" name="top"/>
  <outline>
    <contour>
      <point x="199" y="-174" type="curve" smooth="yes"/>
      <point x="199" y="3" type="line"/>
      <point x="239" y="-10"/>
      <point x="279" y="-15"/>
      <point x="316" y="-12" type="curve" smooth="yes"/>
      <point x="464" y="1"/>
      <point x="545" y="123"/>
      <point x="545" y="274" type="curve" smooth="yes"/>
      <point x="545" y="408"/>
      <point x="462" y="511"/>
      <point x="335" y="511" type="curve" smooth="yes"/>
      <point x="285" y="511"/>
      <point x="233" y="496"/>
      <point x="188" y="466" type="curve"/>
      <point x="179" y="500" type="line"/>
      <point x="0" y="500" type="line"/>
      <point x="0" y="483" type="line"/>
      <point x="18" y="483" type="line" smooth="yes"/>
      <point x="53" y="483"/>
      <point x="70" y="461"/>
      <point x="70" y="413" type="curve" smooth="yes"/>
      <point x="70" y="-66" type="line"/>
      <point x="68" y="-106"/>
      <point x="62" y="-130"/>
      <point x="46" y="-151" type="curve"/>
      <point x="46" y="-159" type="line"/>
      <point x="210" y="-311" type="line"/>
      <point x="219" y="-305" type="line"/>
      <point x="204" y="-261"/>
      <point x="200" y="-225"/>
    </contour>
    <contour>
      <point x="410" y="238" type="curve" smooth="yes"/>
      <point x="410" y="138"/>
      <point x="370" y="43"/>
      <point x="287" y="36" type="curve" smooth="yes"/>
      <point x="259" y="35"/>
      <point x="229" y="45"/>
      <point x="197" y="71" type="curve"/>
      <point x="197" y="407" type="line"/>
      <point x="215" y="440"/>
      <point x="245" y="457"/>
      <point x="278" y="457" type="curve" smooth="yes"/>
      <point x="361" y="457"/>
      <point x="410" y="356"/>
    </contour>
  </outline>
</glyph>
<glyph name="q" format="2">
  <advance width="568"/>
  <unicode hex="0071"/>
  <anchor x="294" y="0" name="bottom"/>
  <anchor x="294" y="500" name="top"/>
  <outline>
    <contour>
      <point x="386" y="8" type="curve"/>
      <point x="386" y="-99" type="line" smooth="yes"/>
      <point x="386" y="-197"/>
      <point x="359" y="-264"/>
      <point x="311" y="-323" type="curve"/>
      <point x="325" y="-335" type="line"/>
      <point x="385" y="-278"/>
      <point x="457" y="-213"/>
      <point x="515" y="-176" type="curve"/>
      <point x="515" y="338" type="line" smooth="yes"/>
      <point x="515" y="362"/>
      <point x="523" y="382"/>
      <point x="542" y="400" type="curve"/>
      <point x="487" y="472"/>
      <point x="396" y="509"/>
      <point x="300" y="509" type="curve" smooth="yes"/>
      <point x="134" y="508"/>
      <point x="30" y="392"/>
      <point x="30" y="241" type="curve" smooth="yes"/>
      <point x="30" y="110"/>
      <point x="124" y="-11"/>
      <point x="283" y="-11" type="curve" smooth="yes"/>
      <point x="317" y="-11"/>
      <point x="353" y="-5"/>
    </contour>
    <contour>
      <point x="386" y="355" type="curve" smooth="yes"/>
      <point x="386" y="75" type="line"/>
      <point x="349" y="49"/>
      <point x="315" y="40"/>
      <point x="286" y="41" type="curve" smooth="yes"/>
      <point x="209" y="44"/>
      <point x="170" y="120"/>
      <point x="170" y="243" type="curve" smooth="yes"/>
      <point x="170" y="393"/>
      <point x="229" y="465"/>
      <point x="297" y="465" type="curve" smooth="yes"/>
      <point x="349" y="465"/>
      <point x="386" y="431"/>
    </contour>
  </outline>
</glyph>
<glyph name="r" format="2">
  <advance width="460"/>
  <unicode hex="0072"/>
  <anchor x="151" y="0" name="bottom"/>
  <anchor x="272" y="500" name="top"/>
  <outline>
    <contour>
      <point x="64" y="0" type="curve"/>
      <point x="222" y="0" type="line"/>
      <point x="212" y="24"/>
      <point x="208" y="48"/>
      <point x="208" y="89" type="curve" smooth="yes"/>
      <point x="208" y="376" type="line"/>
      <point x="226" y="385"/>
      <point x="246" y="389"/>
      <point x="265" y="389" type="curve" smooth="yes"/>
      <point x="301" y="389"/>
      <point x="336" y="374"/>
      <point x="364" y="348" type="curve"/>
      <point x="409" y="383"/>
      <point x="440" y="445"/>
      <point x="440" y="502" type="curve"/>
      <point x="428" y="503" type="line"/>
      <point x="420" y="482"/>
      <point x="400" y="471"/>
      <point x="379" y="471" type="curve" smooth="yes"/>
      <point x="355" y="471"/>
      <point x="330" y="485"/>
      <point x="320" y="510" type="curve"/>
      <point x="206" y="423" type="line"/>
      <point x="206" y="455"/>
      <point x="206" y="481"/>
      <point x="200" y="500" type="curve"/>
      <point x="10" y="500" type="line"/>
      <point x="10" y="483" type="line"/>
      <point x="28" y="483" type="line" smooth="yes"/>
      <point x="63" y="483"/>
      <point x="80" y="461"/>
      <point x="80" y="413" type="curve" smooth="yes"/>
      <point x="80" y="94" type="line" smooth="yes"/>
      <point x="80" y="49"/>
      <point x="76" y="27"/>
    </contour>
  </outline>
</glyph>
<glyph name="s" format="2">
  <advance width="477"/>
  <unicode hex="0073"/>
  <anchor x="210" y="0" name="bottom"/>
  <anchor x="210" y="500" name="top"/>
  <outline>
    <contour>
      <point x="237" y="-16" type="curve" smooth="yes"/>
      <point x="354" y="-16"/>
      <point x="447" y="50"/>
      <point x="447" y="151" type="curve" smooth="yes"/>
      <point x="447" y="333"/>
      <point x="164" y="291"/>
      <point x="164" y="406" type="curve" smooth="yes"/>
      <point x="164" y="450"/>
      <point x="205" y="468"/>
      <point x="243" y="468" type="curve" smooth="yes"/>
      <point x="315" y="468"/>
      <point x="348" y="419"/>
      <point x="348" y="369" type="curve" smooth="yes"/>
      <point x="348" y="354"/>
      <point x="345" y="339"/>
      <point x="340" y="326" type="curve"/>
      <point x="356" y="320" type="line"/>
      <point x="426" y="435" type="line"/>
      <point x="385" y="487"/>
      <point x="315" y="515"/>
      <point x="245" y="515" type="curve" smooth="yes"/>
      <point x="149" y="515"/>
      <point x="58" y="467"/>
      <point x="58" y="370" type="curve" smooth="yes"/>
      <point x="59" y="200"/>
      <point x="338" y="236"/>
      <point x="338" y="107" type="curve" smooth="yes"/>
      <point x="338" y="61"/>
      <point x="299" y="28"/>
      <point x="249" y="28" type="curve" smooth="yes"/>
      <point x="158" y="28"/>
      <point x="97" y="123"/>
      <point x="88" y="220" type="curve"/>
      <point x="72" y="219" type="line"/>
      <point x="71" y="156"/>
      <point x="49" y="114"/>
      <point x="20" y="78" type="curve"/>
      <point x="58" y="18"/>
      <point x="144" y="-16"/>
    </contour>
  </outline>
</glyph>
<glyph name="t" format="2">
  <advance width="315"/>
  <unicode hex="0074"/>
  <anchor x="135" y="0" name="bottom"/>
  <anchor x="136" y="250" name="center"/>
  <anchor x="136" y="500" name="top"/>
  <anchor x="244" y="664" name="topright"/>
  <outline>
    <contour>
      <point x="52" y="0" type="curve"/>
      <point x="210" y="0" type="line"/>
      <point x="201" y="22"/>
      <point x="197" y="43"/>
      <point x="197" y="80" type="curve" smooth="yes"/>
      <point x="197" y="584" type="line" smooth="yes"/>
      <point x="197" y="635"/>
      <point x="202" y="671"/>
      <point x="218" y="715" type="curve"/>
      <point x="209" y="721" type="line"/>
      <point x="44" y="570" type="line"/>
      <point x="44" y="562" type="line"/>
      <point x="60" y="541"/>
      <point x="65" y="517"/>
      <point x="67" y="477" type="curve"/>
      <point x="67" y="84" type="line" smooth="yes"/>
      <point x="67" y="44"/>
      <point x="63" y="24"/>
    </contour>
    <contour>
      <point x="222" y="500" type="curve" smooth="yes"/>
      <point x="74" y="500" type="line"/>
      <point x="20" y="470" type="line"/>
      <point x="23" y="458" type="line"/>
      <point x="276" y="458" type="line"/>
      <point x="295" y="517" type="line"/>
      <point x="281" y="521" type="line"/>
      <point x="271" y="503"/>
      <point x="258" y="500"/>
    </contour>
  </outline>
</glyph>
<glyph name="u" format="2">
  <advance width="578"/>
  <unicode hex="0075"/>
  <anchor x="521" y="0" name="ogonek"/>
  <anchor x="301" y="500" name="top"/>
  <outline>
    <contour>
      <point x="219" y="-16" type="curve" smooth="yes"/>
      <point x="293" y="-17"/>
      <point x="378" y="30"/>
      <point x="415" y="92" type="curve"/>
      <point x="409" y="130" type="line"/>
      <point x="385" y="85"/>
      <point x="337" y="59"/>
      <point x="287" y="62" type="curve" smooth="yes"/>
      <point x="235" y="65"/>
      <point x="203" y="100"/>
      <point x="203" y="171" type="curve" smooth="yes"/>
      <point x="203" y="416" type="line" smooth="yes"/>
      <point x="203" y="456"/>
      <point x="206" y="476"/>
      <point x="216" y="500" type="curve"/>
      <point x="15" y="500" type="line"/>
      <point x="15" y="483" type="line"/>
      <point x="30" y="483" type="line" smooth="yes"/>
      <point x="59" y="483"/>
      <point x="73" y="462"/>
      <point x="73" y="416" type="curve" smooth="yes"/>
      <point x="73" y="151" type="line" smooth="yes"/>
      <point x="73" y="41"/>
      <point x="134" y="-14"/>
    </contour>
    <contour>
      <point x="401" y="0" type="curve"/>
      <point x="538" y="0" type="line"/>
      <point x="529" y="22"/>
      <point x="525" y="43"/>
      <point x="525" y="80" type="curve" smooth="yes"/>
      <point x="525" y="416" type="line" smooth="yes"/>
      <point x="525" y="456"/>
      <point x="529" y="476"/>
      <point x="538" y="500" type="curve"/>
      <point x="333" y="500" type="line"/>
      <point x="333" y="483" type="line"/>
      <point x="349" y="483" type="line" smooth="yes"/>
      <point x="380" y="483"/>
      <point x="395" y="463"/>
      <point x="395" y="417" type="curve" smooth="yes"/>
      <point x="395" y="85" type="line" smooth="yes"/>
      <point x="395" y="53"/>
      <point x="398" y="18"/>
    </contour>
  </outline>
</glyph>
<glyph name="v" format="2">
  <advance width="540"/>
  <unicode hex="0076"/>
  <outline>
    <contour>
      <point x="258" y="-19" type="line"/>
      <point x="276" y="10"/>
      <point x="310" y="28"/>
      <point x="342" y="33" type="curve"/>
      <point x="488" y="419" type="line" smooth="yes"/>
      <point x="502" y="457"/>
      <point x="513" y="476"/>
      <point x="530" y="500" type="curve"/>
      <point x="394" y="500" type="line"/>
      <point x="394" y="485" type="line"/>
      <point x="436" y="484"/>
      <point x="447" y="453"/>
      <point x="422" y="385" type="curve" smooth="yes"/>
      <point x="323" y="117" type="line"/>
      <point x="219" y="396" type="line" smooth="yes"/>
      <point x="201" y="444"/>
      <point x="198" y="469"/>
      <point x="208" y="500" type="curve"/>
      <point x="10" y="500" type="line"/>
      <point x="10" y="485" type="line"/>
      <point x="49" y="482"/>
      <point x="66" y="450"/>
      <point x="84" y="402" type="curve" smooth="yes"/>
      <point x="238" y="-15" type="line"/>
    </contour>
  </outline>
</glyph>
<glyph name="w" format="2">
  <advance width="818.75"/>
  <unicode hex="0077"/>
  <anchor x="367" y="0" name="bottom"/>
  <anchor x="427" y="542" name="top"/>
  <outline>
    <contour>
      <point x="195" y="-10" type="curve" smooth="yes"/>
      <point x="258" y="-10"/>
      <point x="315" y="15"/>
      <point x="362" y="58" type="curve"/>
      <point x="392" y="16"/>
      <point x="439" y="-10"/>
      <point x="502" y="-10" type="curve" smooth="yes"/>
      <point x="556" y="-10"/>
      <point x="613" y="12"/>
      <point x="660" y="58" type="curve"/>
      <point x="660" y="38"/>
      <point x="661" y="21"/>
      <point x="666" y="0" type="curve"/>
      <point x="795" y="0" type="line"/>
      <point x="786" y="22"/>
      <point x="782" y="43"/>
      <point x="782" y="80" type="curve" smooth="yes"/>
      <point x="782" y="420" type="line" smooth="yes"/>
      <point x="782" y="457"/>
      <point x="785" y="478"/>
      <point x="794" y="500" type="curve"/>
      <point x="593" y="500" type="line"/>
      <point x="593" y="485" type="line"/>
      <point x="640" y="485"/>
      <point x="655" y="468"/>
      <point x="655" y="423" type="curve" smooth="yes"/>
      <point x="655" y="121" type="line"/>
      <point x="627" y="83"/>
      <point x="590" y="64"/>
      <point x="556" y="64" type="curve" smooth="yes"/>
      <point x="490" y="64"/>
      <point x="451" y="136"/>
      <point x="445" y="239" type="curve" smooth="yes"/>
      <point x="440" y="341"/>
      <point x="470" y="474"/>
      <point x="554" y="556" type="curve"/>
      <point x="543" y="567" type="line"/>
      <point x="379" y="462"/>
      <point x="312" y="314"/>
      <point x="321" y="184" type="curve" smooth="yes"/>
      <point x="323" y="155"/>
      <point x="328" y="127"/>
      <point x="339" y="103" type="curve"/>
      <point x="310" y="75"/>
      <point x="280" y="61"/>
      <point x="252" y="61" type="curve" smooth="yes"/>
      <point x="188" y="61"/>
      <point x="152" y="127"/>
      <point x="153" y="225" type="curve" smooth="yes"/>
      <point x="153" y="332"/>
      <point x="203" y="454"/>
      <point x="322" y="533" type="curve"/>
      <point x="314" y="546" type="line"/>
      <point x="110" y="453"/>
      <point x="25" y="305"/>
      <point x="23" y="184" type="curve" smooth="yes"/>
      <point x="22" y="56"/>
      <point x="103" y="-10"/>
    </contour>
  </outline>
</glyph>
<glyph name="x" format="2">
  <advance width="571.07812"/>
  <unicode hex="0078"/>
  <anchor x="251" y="0" name="bottom"/>
  <anchor x="251" y="500" name="top"/>
  <outline>
    <contour>
      <point x="346" y="0" type="curve"/>
      <point x="557" y="0" type="line"/>
      <point x="557" y="14" type="line"/>
      <point x="511" y="21"/>
      <point x="499" y="41"/>
      <point x="470" y="85" type="curve" smooth="yes"/>
      <point x="347" y="271" type="line"/>
      <point x="440" y="402" type="line" smooth="yes"/>
      <point x="477" y="454"/>
      <point x="500" y="479"/>
      <point x="524" y="484" type="curve"/>
      <point x="524" y="500" type="line"/>
      <point x="402" y="500" type="line"/>
      <point x="403" y="473"/>
      <point x="390" y="435"/>
      <point x="352" y="378" type="curve" smooth="yes"/>
      <point x="314" y="320" type="line"/>
      <point x="244" y="428" type="line" smooth="yes"/>
      <point x="223" y="460"/>
      <point x="219" y="478"/>
      <point x="230" y="500" type="curve"/>
      <point x="17" y="500" type="line"/>
      <point x="17" y="484" type="line"/>
      <point x="57" y="482"/>
      <point x="73" y="464"/>
      <point x="107" y="412" type="curve" smooth="yes"/>
      <point x="207" y="261" type="line"/>
      <point x="129" y="153" type="line" smooth="yes"/>
      <point x="77" y="80"/>
      <point x="53" y="43"/>
      <point x="20" y="0" type="curve"/>
      <point x="180" y="0" type="line"/>
      <point x="180" y="15" type="line"/>
      <point x="128" y="32"/>
      <point x="148" y="76"/>
      <point x="181" y="124" type="curve" smooth="yes"/>
      <point x="240" y="210" type="line"/>
      <point x="324" y="83" type="line" smooth="yes"/>
      <point x="352" y="40"/>
      <point x="356" y="22"/>
    </contour>
  </outline>
</glyph>
<glyph name="y" format="2">
  <advance width="563"/>
  <unicode hex="0079"/>
  <anchor x="280" y="0" name="bottom"/>
  <anchor x="271" y="500" name="top"/>
  <outline>
    <contour>
      <point x="132" y="-283" type="line"/>
      <point x="182" y="-254"/>
      <point x="236" y="-230"/>
      <point x="287" y="-218" type="curve"/>
      <point x="286" y="-119"/>
      <point x="297" y="-56"/>
      <point x="355" y="83" type="curve" smooth="yes"/>
      <point x="483" y="390" type="line" smooth="yes"/>
      <point x="508" y="450"/>
      <point x="523" y="477"/>
      <point x="548" y="486" type="curve"/>
      <point x="548" y="500" type="line"/>
      <point x="433" y="500" type="line"/>
      <point x="441" y="474"/>
      <point x="438" y="446"/>
      <point x="415" y="390" type="curve" smooth="yes"/>
      <point x="316" y="143" type="line"/>
      <point x="216" y="391" type="line" smooth="yes"/>
      <point x="195" y="443"/>
      <point x="189" y="474"/>
      <point x="197" y="500" type="curve"/>
      <point x="15" y="500" type="line"/>
      <point x="15" y="486" type="line"/>
      <point x="42" y="478"/>
      <point x="58" y="454"/>
      <point x="85" y="390" type="curve" smooth="yes"/>
      <point x="244" y="6" type="line"/>
      <point x="121" y="-272" type="line"/>
    </contour>
  </outline>
</glyph>
<glyph name="z" format="2">
  <advance width="517.1875"/>
  <unicode hex="007A"/>
  <anchor x="256" y="0" name="bottom"/>
  <anchor x="261" y="250" name="center"/>
  <anchor x="266" y="500" name="top"/>
  <outline>
    <contour>
      <point x="32" y="-10" type="line"/>
      <point x="82" y="7"/>
      <point x="128" y="20"/>
      <point x="185" y="20" type="curve" smooth="yes"/>
      <point x="266" y="20"/>
      <point x="341" y="10"/>
      <point x="431" y="-3" type="curve"/>
      <point x="494" y="153" type="line"/>
      <point x="478" y="159" type="line"/>
      <point x="448" y="100"/>
      <point x="402" y="122"/>
      <point x="331" y="122" type="curve" smooth="yes"/>
      <point x="287" y="121"/>
      <point x="215" y="117"/>
      <point x="155" y="99" type="curve"/>
      <point x="151" y="104" type="line"/>
      <point x="238" y="220"/>
      <point x="409" y="414"/>
      <point x="494" y="493" type="curve"/>
      <point x="485" y="507" type="line"/>
      <point x="468" y="501"/>
      <point x="448" y="500"/>
      <point x="408" y="500" type="curve" smooth="yes"/>
      <point x="214" y="500" type="line" smooth="yes"/>
      <point x="143" y="500"/>
      <point x="128" y="503"/>
      <point x="109" y="513" type="curve"/>
      <point x="39" y="351" type="line"/>
      <point x="54" y="344" type="line"/>
      <point x="87" y="392"/>
      <point x="119" y="400"/>
      <point x="185" y="400" type="curve" smooth="yes"/>
      <point x="340" y="400" type="line"/>
      <point x="20" y="3" type="line"/>
    </contour>
  </outline>
</glyph>
<glyph name="braceleft" format="2">
  <advance width="537"/>
  <unicode hex="007B"/>
  <note>
braceleft
</note>
  <outline>
    <contour>
      <point x="108" y="0" type="curve"/>
      <point x="479" y="0" type="line"/>
      <point x="480" y="32"/>
      <point x="486" y="88"/>
      <point x="507" y="152" type="curve"/>
      <point x="498" y="155" type="line"/>
      <point x="445" y="45"/>
      <point x="389" y="18"/>
      <point x="317" y="18" type="curve" smooth="yes"/>
      <point x="289" y="18"/>
      <point x="270" y="26"/>
      <point x="270" y="44" type="curve" smooth="yes"/>
      <point x="270" y="81"/>
      <point x="310" y="155"/>
      <point x="310" y="239" type="curve" smooth="yes"/>
      <point x="310" y="351"/>
      <point x="232" y="402"/>
      <point x="108" y="408" type="curve"/>
      <point x="108" y="418" type="line"/>
      <point x="236" y="450"/>
      <point x="300" y="514"/>
      <point x="300" y="608" type="curve" smooth="yes"/>
      <point x="300" y="681"/>
      <point x="256" y="741"/>
      <point x="256" y="775" type="curve" smooth="yes"/>
      <point x="256" y="787"/>
      <point x="262" y="792"/>
      <point x="280" y="792" type="curve" smooth="yes"/>
      <point x="346" y="792"/>
      <point x="412" y="764"/>
      <point x="465" y="654" type="curve"/>
      <point x="474" y="657" type="line"/>
      <point x="453" y="721"/>
      <point x="447" y="777"/>
      <point x="446" y="809" type="curve"/>
      <point x="104" y="809" type="line"/>
      <point x="145" y="766"/>
      <point x="182" y="672"/>
      <point x="182" y="601" type="curve" smooth="yes"/>
      <point x="182" y="511"/>
      <point x="139" y="452"/>
      <point x="30" y="412" type="curve"/>
      <point x="30" y="400" type="line"/>
      <point x="135" y="357"/>
      <point x="186" y="294"/>
      <point x="186" y="205" type="curve" smooth="yes"/>
      <point x="186" y="136"/>
      <point x="150" y="46"/>
    </contour>
  </outline>
</glyph>
<glyph name="braceright" format="2">
  <advance width="552.29688"/>
  <unicode hex="007D"/>
  <note>
braceright
</note>
  <outline>
    <contour>
      <point x="58" y="0" type="curve"/>
      <point x="429" y="0" type="line"/>
      <point x="387" y="46"/>
      <point x="351" y="136"/>
      <point x="351" y="205" type="curve" smooth="yes"/>
      <point x="351" y="294"/>
      <point x="402" y="357"/>
      <point x="507" y="400" type="curve"/>
      <point x="507" y="412" type="line"/>
      <point x="398" y="452"/>
      <point x="355" y="511"/>
      <point x="355" y="601" type="curve" smooth="yes"/>
      <point x="355" y="672"/>
      <point x="392" y="766"/>
      <point x="433" y="809" type="curve"/>
      <point x="91" y="809" type="line"/>
      <point x="90" y="777"/>
      <point x="84" y="721"/>
      <point x="63" y="657" type="curve"/>
      <point x="72" y="654" type="line"/>
      <point x="125" y="764"/>
      <point x="191" y="792"/>
      <point x="257" y="792" type="curve" smooth="yes"/>
      <point x="275" y="792"/>
      <point x="281" y="787"/>
      <point x="281" y="775" type="curve" smooth="yes"/>
      <point x="281" y="741"/>
      <point x="237" y="681"/>
      <point x="237" y="608" type="curve" smooth="yes"/>
      <point x="237" y="514"/>
      <point x="301" y="450"/>
      <point x="429" y="418" type="curve"/>
      <point x="429" y="408" type="line"/>
      <point x="305" y="402"/>
      <point x="227" y="351"/>
      <point x="227" y="239" type="curve" smooth="yes"/>
      <point x="227" y="155"/>
      <point x="267" y="81"/>
      <point x="267" y="44" type="curve" smooth="yes"/>
      <point x="267" y="26"/>
      <point x="248" y="18"/>
      <point x="220" y="18" type="curve" smooth="yes"/>
      <point x="148" y="18"/>
      <point x="92" y="45"/>
      <point x="39" y="155" type="curve"/>
      <point x="30" y="152" type="line"/>
      <point x="51" y="88"/>
      <point x="57" y="32"/>
    </contour>
  </outline>
</glyph>
<glyph name="asciitilde" format="2">
  <advance width="543.75"/>
  <unicode hex="007E"/>
  <outline>
    <contour>
      <point x="56" y="279" type="curve"/>
      <point x="73" y="277" type="line"/>
      <point x="86" y="338"/>
      <point x="123" y="341"/>
      <point x="162" y="335" type="curve" smooth="yes"/>
      <point x="227" y="325"/>
      <point x="305" y="288"/>
      <point x="366" y="290" type="curve" smooth="yes"/>
      <point x="412" y="291"/>
      <point x="460" y="326"/>
      <point x="480" y="419" type="curve"/>
      <point x="465" y="425" type="line"/>
      <point x="445" y="366"/>
      <point x="412" y="369"/>
      <point x="380" y="373" type="curve" smooth="yes"/>
      <point x="325" y="380"/>
      <point x="241" y="418"/>
      <point x="179" y="416" type="curve" smooth="yes"/>
      <point x="118" y="414"/>
      <point x="65" y="381"/>
    </contour>
  </outline>
</glyph>
<glyph name="exclamdown" format="2">
  <advance width="306.29688"/>
  <unicode hex="00A1"/>
  <anchor x="239" y="803" name="_bottom"/>
  <outline>
    <contour>
      <point x="248" y="-52" type="curve"/>
      <point x="221" y="8"/>
      <point x="209" y="83"/>
      <point x="194" y="240" type="curve" smooth="yes"/>
      <point x="172" y="523" type="line"/>
      <point x="130" y="523" type="line"/>
      <point x="91" y="170" type="line" smooth="yes"/>
      <point x="79" y="51"/>
      <point x="72" y="21"/>
      <point x="48" y="-29" type="curve"/>
      <point x="132" y="-26"/>
      <point x="194" y="-52"/>
    </contour>
    <component base="period" xOffset="54" yOffset="608" identifier="945095DA"/>
  </outline>
</glyph>
<glyph name="sterling" format="2">
  <advance width="659.04688"/>
  <unicode hex="00A3"/>
  <note>
sterling
</note>
  <outline>
    <contour>
      <point x="252" y="93" type="line"/>
      <point x="271" y="98"/>
      <point x="289" y="101"/>
      <point x="301" y="99" type="curve"/>
      <point x="564" y="379" type="line"/>
      <point x="555" y="391" type="line"/>
      <point x="541" y="387"/>
      <point x="526" y="386"/>
      <point x="510" y="386" type="curve" smooth="yes"/>
      <point x="118" y="386" type="line"/>
      <point x="144" y="341" type="line"/>
      <point x="195" y="341" type="line"/>
      <point x="196" y="321" type="line" smooth="yes"/>
      <point x="198" y="227"/>
      <point x="172" y="118"/>
      <point x="54" y="-10" type="curve"/>
      <point x="70" y="-26" type="line"/>
      <point x="96" y="-1"/>
      <point x="169" y="40"/>
      <point x="234" y="33" type="curve" smooth="yes"/>
      <point x="326" y="23"/>
      <point x="374" y="-40"/>
      <point x="457" y="-40" type="curve" smooth="yes"/>
      <point x="533" y="-40"/>
      <point x="604" y="48"/>
      <point x="630" y="102" type="curve"/>
      <point x="615" y="112" type="line"/>
      <point x="593" y="76"/>
      <point x="558" y="51"/>
      <point x="483" y="51" type="curve" smooth="yes"/>
      <point x="426" y="51"/>
      <point x="348" y="91"/>
      <point x="275" y="89" type="curve" smooth="yes"/>
      <point x="237" y="88"/>
      <point x="194" y="68"/>
      <point x="166" y="51" type="curve"/>
      <point x="161" y="60" type="line"/>
      <point x="271" y="188"/>
      <point x="307" y="264"/>
      <point x="310" y="341" type="curve"/>
      <point x="445" y="341" type="line"/>
    </contour>
    <contour>
      <point x="78" y="480" type="curve"/>
      <point x="66" y="471" type="line"/>
      <point x="103" y="415" type="line"/>
      <point x="538" y="415" type="line" smooth="yes"/>
      <point x="566" y="415"/>
      <point x="570" y="415"/>
      <point x="590" y="409" type="curve"/>
      <point x="633" y="469" type="line"/>
      <point x="623" y="479" type="line"/>
      <point x="607" y="472"/>
      <point x="594" y="467"/>
      <point x="560" y="467" type="curve" smooth="yes"/>
      <point x="301" y="467" type="line"/>
      <point x="297" y="498"/>
      <point x="293" y="527"/>
      <point x="293" y="559" type="curve" smooth="yes"/>
      <point x="293" y="642"/>
      <point x="335" y="683"/>
      <point x="383" y="683" type="curve" smooth="yes"/>
      <point x="442" y="683"/>
      <point x="511" y="623"/>
      <point x="532" y="512" type="curve"/>
      <point x="546" y="513" type="line"/>
      <point x="551" y="695" type="line"/>
      <point x="497" y="719"/>
      <point x="441" y="732"/>
      <point x="390" y="732" type="curve" smooth="yes"/>
      <point x="281" y="732"/>
      <point x="167" y="678"/>
      <point x="167" y="534" type="curve" smooth="yes"/>
      <point x="167" y="513"/>
      <point x="170" y="491"/>
      <point x="173" y="467" type="curve"/>
      <point x="116" y="467" type="line" smooth="yes"/>
      <point x="99" y="467"/>
      <point x="87" y="472"/>
    </contour>
    <contour>
      <point x="198" y="24" type="curve"/>
      <point x="119" y="-77" type="line"/>
      <point x="130" y="-87" type="line"/>
      <point x="230" y="23" type="line"/>
      <point x="222" y="27"/>
      <point x="211" y="26"/>
    </contour>
  </outline>
</glyph>
<glyph name="currency" format="2">
  <advance width="773.82812"/>
  <unicode hex="00A4"/>
  <note>
currency
</note>
  <outline>
    <contour>
      <point x="380" y="63" type="curve" smooth="yes"/>
      <point x="425" y="63"/>
      <point x="467" y="74"/>
      <point x="503" y="94" type="curve"/>
      <point x="683" y="-36" type="line"/>
      <point x="708" y="-14" type="line"/>
      <point x="583" y="161" type="line"/>
      <point x="614" y="201"/>
      <point x="632" y="253"/>
      <point x="632" y="313" type="curve" smooth="yes"/>
      <point x="632" y="375"/>
      <point x="613" y="428"/>
      <point x="581" y="470" type="curve"/>
      <point x="708" y="647" type="line"/>
      <point x="683" y="669" type="line"/>
      <point x="499" y="535" type="line"/>
      <point x="464" y="555"/>
      <point x="423" y="564"/>
      <point x="380" y="564" type="curve" smooth="yes"/>
      <point x="342" y="564"/>
      <point x="304" y="555"/>
      <point x="271" y="538" type="curve"/>
      <point x="91" y="669" type="line"/>
      <point x="65" y="647" type="line"/>
      <point x="188" y="477" type="line"/>
      <point x="151" y="434"/>
      <point x="129" y="378"/>
      <point x="129" y="313" type="curve" smooth="yes"/>
      <point x="129" y="249"/>
      <point x="151" y="194"/>
      <point x="185" y="152" type="curve"/>
      <point x="65" y="-15" type="line"/>
      <point x="91" y="-37" type="line"/>
      <point x="265" y="91" type="line"/>
      <point x="299" y="72"/>
      <point x="339" y="63"/>
    </contour>
    <contour>
      <point x="271" y="317" type="curve" smooth="yes"/>
      <point x="271" y="436"/>
      <point x="309" y="530"/>
      <point x="379" y="530" type="curve" smooth="yes"/>
      <point x="451" y="530"/>
      <point x="491" y="432"/>
      <point x="491" y="311" type="curve" smooth="yes"/>
      <point x="491" y="192"/>
      <point x="454" y="100"/>
      <point x="383" y="100" type="curve" smooth="yes"/>
      <point x="312" y="100"/>
      <point x="271" y="197"/>
    </contour>
  </outline>
</glyph>
<glyph name="yen" format="2">
  <advance width="652"/>
  <unicode hex="00A5"/>
  <outline>
    <contour>
      <point x="118" y="310" type="line"/>
      <point x="564" y="310" type="line"/>
      <point x="572" y="379" type="line"/>
      <point x="110" y="379" type="line"/>
    </contour>
    <contour>
      <point x="147" y="153" type="line"/>
      <point x="533" y="153" type="line"/>
      <point x="538" y="222" type="line"/>
      <point x="138" y="222" type="line"/>
    </contour>
    <component base="Y" identifier="1A92DDDE"/>
  </outline>
</glyph>
<glyph name="brokenbar" format="2">
  <advance width="120"/>
  <unicode hex="00A6"/>
  <outline>
    <contour>
      <point x="0" y="406" type="line"/>
      <point x="120" y="307" type="line"/>
      <point x="120" y="733" type="line"/>
      <point x="0" y="733" type="line"/>
    </contour>
    <contour>
      <point x="120" y="205" type="line"/>
      <point x="0" y="302" type="line"/>
      <point x="0" y="-221" type="line"/>
      <point x="120" y="-221" type="line"/>
    </contour>
  </outline>
</glyph>
<glyph name="section" format="2">
  <advance width="482"/>
  <unicode hex="00A7"/>
  <note>
section
</note>
  <outline>
    <contour>
      <point x="228" y="-93" type="curve" smooth="yes"/>
      <point x="373" y="-93"/>
      <point x="447" y="-7"/>
      <point x="447" y="97" type="curve" smooth="yes"/>
      <point x="447" y="170"/>
      <point x="412" y="211"/>
      <point x="350" y="245" type="curve"/>
      <point x="415" y="280"/>
      <point x="455" y="344"/>
      <point x="452" y="411" type="curve" smooth="yes"/>
      <point x="449" y="471"/>
      <point x="411" y="511"/>
      <point x="363" y="540" type="curve" smooth="yes"/>
      <point x="276" y="594"/>
      <point x="154" y="614"/>
      <point x="152" y="698" type="curve" smooth="yes"/>
      <point x="151" y="745"/>
      <point x="190" y="775"/>
      <point x="241" y="775" type="curve" smooth="yes"/>
      <point x="298" y="775"/>
      <point x="347" y="741"/>
      <point x="353" y="675" type="curve" smooth="yes"/>
      <point x="354" y="650"/>
      <point x="349" y="622"/>
      <point x="339" y="591" type="curve"/>
      <point x="352" y="586" type="line"/>
      <point x="435" y="732" type="line"/>
      <point x="393" y="784"/>
      <point x="323" y="813"/>
      <point x="249" y="813" type="curve" smooth="yes"/>
      <point x="141" y="813"/>
      <point x="62" y="752"/>
      <point x="62" y="658" type="curve" smooth="yes"/>
      <point x="62" y="572"/>
      <point x="114" y="529"/>
      <point x="188" y="496" type="curve"/>
      <point x="107" y="481"/>
      <point x="54" y="424"/>
      <point x="54" y="347" type="curve" smooth="yes"/>
      <point x="54" y="249"/>
      <point x="130" y="210"/>
      <point x="221" y="175" type="curve" smooth="yes"/>
      <point x="289" y="148"/>
      <point x="347" y="118"/>
      <point x="347" y="40" type="curve" smooth="yes"/>
      <point x="347" y="-14"/>
      <point x="304" y="-52"/>
      <point x="245" y="-52" type="curve" smooth="yes"/>
      <point x="135" y="-49"/>
      <point x="69" y="64"/>
      <point x="102" y="182" type="curve"/>
      <point x="89" y="187" type="line"/>
      <point x="20" y="1" type="line"/>
      <point x="70" y="-57"/>
      <point x="142" y="-93"/>
    </contour>
    <contour>
      <point x="145" y="388" type="curve" smooth="yes"/>
      <point x="145" y="436"/>
      <point x="182" y="467"/>
      <point x="233" y="464" type="curve" smooth="yes"/>
      <point x="301" y="461"/>
      <point x="351" y="407"/>
      <point x="351" y="351" type="curve" smooth="yes"/>
      <point x="351" y="317"/>
      <point x="335" y="284"/>
      <point x="301" y="268" type="curve"/>
      <point x="209" y="303"/>
      <point x="145" y="330"/>
    </contour>
  </outline>
</glyph>
<glyph name="dieresis" format="2">
  <advance width="405"/>
  <unicode hex="00A8"/>
  <outline>
    <contour>
      <point x="134" y="546" type="curve"/>
      <point x="153" y="582"/>
      <point x="176" y="607"/>
      <point x="198" y="615" type="curve"/>
      <point x="234" y="597"/>
      <point x="260" y="574"/>
      <point x="266" y="546" type="curve"/>
      <point x="285" y="586"/>
      <point x="311" y="613"/>
      <point x="338" y="619" type="curve"/>
      <point x="299" y="638"/>
      <point x="271" y="664"/>
      <point x="266" y="691" type="curve"/>
      <point x="247" y="655"/>
      <point x="224" y="630"/>
      <point x="202" y="622" type="curve"/>
      <point x="166" y="640"/>
      <point x="140" y="663"/>
      <point x="134" y="691" type="curve"/>
      <point x="116" y="652"/>
      <point x="90" y="624"/>
      <point x="62" y="619" type="curve"/>
      <point x="101" y="600"/>
      <point x="129" y="574"/>
    </contour>
  </outline>
</glyph>
<glyph name="guillemetleft" format="2">
  <advance width="628.90625"/>
  <unicode hex="00AB"/>
  <note>
guillemotleft
</note>
  <outline>
    <contour>
      <point x="380" y="6" type="curve"/>
      <point x="382" y="19" type="line"/>
      <point x="348" y="27"/>
      <point x="325" y="55"/>
      <point x="303" y="79" type="curve"/>
      <point x="255" y="140"/>
      <point x="199" y="248"/>
      <point x="157" y="276" type="curve"/>
      <point x="271" y="418" type="line" smooth="yes"/>
      <point x="303" y="457"/>
      <point x="323" y="474"/>
      <point x="372" y="474" type="curve" smooth="yes"/>
      <point x="389" y="474"/>
      <point x="405" y="472"/>
      <point x="405" y="459" type="curve" smooth="yes"/>
      <point x="405" y="447"/>
      <point x="397" y="433"/>
      <point x="363" y="391" type="curve" smooth="yes"/>
      <point x="292" y="303" type="line" smooth="yes"/>
      <point x="280" y="288"/>
      <point x="265" y="272"/>
      <point x="253" y="263" type="curve"/>
      <point x="253" y="254" type="line"/>
      <point x="287" y="229"/>
      <point x="348" y="126"/>
      <point x="397" y="66" type="curve" smooth="yes"/>
      <point x="439" y="16"/>
      <point x="489" y="-5"/>
      <point x="589" y="5" type="curve"/>
      <point x="591" y="19" type="line"/>
      <point x="555" y="26"/>
      <point x="533" y="54"/>
      <point x="513" y="79" type="curve" smooth="yes"/>
      <point x="464" y="140"/>
      <point x="408" y="248"/>
      <point x="367" y="276" type="curve"/>
      <point x="482" y="423" type="line" smooth="yes"/>
      <point x="518" y="469"/>
      <point x="534" y="484"/>
      <point x="579" y="486" type="curve"/>
      <point x="579" y="499" type="line"/>
      <point x="180" y="499" type="line"/>
      <point x="175" y="486" type="line"/>
      <point x="204" y="468"/>
      <point x="196" y="444"/>
      <point x="168" y="411" type="curve" smooth="yes"/>
      <point x="83" y="309" type="line" smooth="yes"/>
      <point x="71" y="294"/>
      <point x="57" y="278"/>
      <point x="44" y="270" type="curve"/>
      <point x="44" y="260" type="line"/>
      <point x="80" y="235"/>
      <point x="132" y="129"/>
      <point x="190" y="59" type="curve" smooth="yes"/>
      <point x="221" y="23"/>
      <point x="262" y="-5"/>
    </contour>
  </outline>
</glyph>
<glyph name="registered" format="2">
  <advance width="917"/>
  <unicode hex="00AE"/>
  <note>
registered
</note>
  <anchor x="483" y="36" name="bottom"/>
  <anchor x="451" y="361" name="center"/>
  <anchor x="814" y="10" name="ogonek"/>
  <anchor x="483" y="708" name="top"/>
  <anchor x="16" y="722" name="topleft"/>
  <anchor x="885" y="722" name="topright"/>
  <outline>
    <contour>
      <point x="40" y="321" type="curve" smooth="yes"/>
      <point x="40" y="75"/>
      <point x="229" y="-43"/>
      <point x="423" y="-43" type="curve" smooth="yes"/>
      <point x="646" y="-43"/>
      <point x="877" y="115"/>
      <point x="877" y="416" type="curve" smooth="yes"/>
      <point x="877" y="659"/>
      <point x="695" y="777"/>
      <point x="501" y="777" type="curve" smooth="yes"/>
      <point x="279" y="777"/>
      <point x="40" y="622"/>
    </contour>
    <contour>
      <point x="486" y="16" type="curve" smooth="yes"/>
      <point x="258" y="16"/>
      <point x="148" y="197"/>
      <point x="138" y="381" type="curve" smooth="yes"/>
      <point x="130" y="554"/>
      <point x="224" y="735"/>
      <point x="446" y="735" type="curve" smooth="yes"/>
      <point x="662" y="735"/>
      <point x="774" y="547"/>
      <point x="783" y="370" type="curve" smooth="yes"/>
      <point x="792" y="189"/>
      <point x="702" y="16"/>
    </contour>
    <contour>
      <point x="787" y="9" type="curve"/>
      <point x="791" y="19" type="line"/>
      <point x="709" y="45"/>
      <point x="681" y="203"/>
      <point x="617" y="277" type="curve"/>
      <point x="586" y="317"/>
      <point x="544" y="348"/>
      <point x="474" y="353" type="curve"/>
      <point x="474" y="354" type="line"/>
      <point x="606" y="355"/>
      <point x="672" y="437"/>
      <point x="672" y="509" type="curve" smooth="yes"/>
      <point x="672" y="578"/>
      <point x="617" y="643"/>
      <point x="527" y="643" type="curve" smooth="yes"/>
      <point x="486" y="643"/>
      <point x="438" y="630"/>
      <point x="392" y="601" type="curve"/>
      <point x="392" y="637" type="line"/>
      <point x="234" y="637" type="line"/>
      <point x="234" y="624" type="line"/>
      <point x="248" y="624" type="line" smooth="yes"/>
      <point x="277" y="624"/>
      <point x="291" y="608"/>
      <point x="291" y="571" type="curve" smooth="yes"/>
      <point x="291" y="184" type="line" smooth="yes"/>
      <point x="291" y="151"/>
      <point x="288" y="135"/>
      <point x="279" y="115" type="curve"/>
      <point x="404" y="115" type="line"/>
      <point x="395" y="135"/>
      <point x="392" y="151"/>
      <point x="392" y="184" type="curve" smooth="yes"/>
      <point x="392" y="347" type="line"/>
      <point x="454" y="335"/>
      <point x="490" y="320"/>
      <point x="559" y="194" type="curve" smooth="yes"/>
      <point x="617" y="90"/>
      <point x="650" y="45"/>
    </contour>
    <contour>
      <point x="459" y="375" type="curve" smooth="yes"/>
      <point x="437" y="373"/>
      <point x="413" y="375"/>
      <point x="392" y="380" type="curve"/>
      <point x="392" y="571" type="line"/>
      <point x="422" y="587"/>
      <point x="449" y="594"/>
      <point x="472" y="594" type="curve" smooth="yes"/>
      <point x="535" y="594"/>
      <point x="568" y="542"/>
      <point x="568" y="489" type="curve" smooth="yes"/>
      <point x="568" y="417"/>
      <point x="516" y="381"/>
    </contour>
  </outline>
</glyph>
<glyph name="degree" format="2">
  <advance width="364"/>
  <unicode hex="00B0"/>
  <outline>
    <contour>
      <point x="182" y="501" type="curve" smooth="yes"/>
      <point x="224" y="501"/>
      <point x="264" y="530"/>
      <point x="264" y="585" type="curve" smooth="yes"/>
      <point x="264" y="628"/>
      <point x="235" y="675"/>
      <point x="182" y="675" type="curve" smooth="yes"/>
      <point x="128" y="675"/>
      <point x="100" y="630"/>
      <point x="100" y="587" type="curve" smooth="yes"/>
      <point x="100" y="544"/>
      <point x="128" y="501"/>
    </contour>
    <contour>
      <point x="183" y="550" type="curve" smooth="yes"/>
      <point x="157" y="550"/>
      <point x="135" y="565"/>
      <point x="135" y="593" type="curve" smooth="yes"/>
      <point x="135" y="617"/>
      <point x="156" y="632"/>
      <point x="182" y="632" type="curve" smooth="yes"/>
      <point x="209" y="632"/>
      <point x="230" y="618"/>
      <point x="230" y="592" type="curve" smooth="yes"/>
      <point x="230" y="565"/>
      <point x="210" y="550"/>
    </contour>
  </outline>
</glyph>
<glyph name="paragraph" format="2">
  <advance width="919"/>
  <unicode hex="00B6"/>
  <outline>
    <contour>
      <point x="222" y="-425" type="curve"/>
      <point x="230" y="-440" type="line"/>
      <point x="504" y="-327"/>
      <point x="644" y="-158"/>
      <point x="644" y="109" type="curve" smooth="yes"/>
      <point x="644" y="642" type="line" smooth="yes"/>
      <point x="644" y="686"/>
      <point x="661" y="706"/>
      <point x="696" y="706" type="curve" smooth="yes"/>
      <point x="714" y="706" type="line"/>
      <point x="714" y="722" type="line"/>
      <point x="508" y="722" type="line"/>
      <point x="509" y="666" type="line"/>
      <point x="454" y="711"/>
      <point x="391" y="732"/>
      <point x="330" y="732" type="curve" smooth="yes"/>
      <point x="177" y="732"/>
      <point x="40" y="596"/>
      <point x="40" y="391" type="curve" smooth="yes"/>
      <point x="40" y="193"/>
      <point x="163" y="17"/>
      <point x="356" y="17" type="curve" smooth="yes"/>
      <point x="405" y="17"/>
      <point x="458" y="30"/>
      <point x="509" y="58" type="curve"/>
      <point x="509" y="34" type="line" smooth="yes"/>
      <point x="509" y="-143"/>
      <point x="446" y="-314"/>
    </contour>
    <contour>
      <point x="399" y="75" type="curve" smooth="yes"/>
      <point x="282" y="75"/>
      <point x="200" y="224"/>
      <point x="200" y="385" type="curve" smooth="yes"/>
      <point x="200" y="538"/>
      <point x="275" y="667"/>
      <point x="379" y="667" type="curve" smooth="yes"/>
      <point x="426" y="667"/>
      <point x="473" y="647"/>
      <point x="509" y="611" type="curve"/>
      <point x="509" y="181" type="line" smooth="yes"/>
      <point x="509" y="111"/>
      <point x="453" y="75"/>
    </contour>
    <contour>
      <point x="433" y="-408" type="curve"/>
      <point x="441" y="-422" type="line"/>
      <point x="770" y="-243"/>
      <point x="799" y="-71"/>
      <point x="799" y="156" type="curve" smooth="yes"/>
      <point x="799" y="562" type="line" smooth="yes"/>
      <point x="799" y="606"/>
      <point x="816" y="626"/>
      <point x="851" y="626" type="curve" smooth="yes"/>
      <point x="869" y="626" type="line"/>
      <point x="869" y="642" type="line"/>
      <point x="705" y="642" type="line"/>
      <point x="709" y="109" type="line" smooth="yes"/>
      <point x="711" y="-117"/>
      <point x="661" y="-283"/>
    </contour>
  </outline>
</glyph>
<glyph name="periodcentered" format="2">
  <advance width="398.28125"/>
  <unicode hex="00B7"/>
  <outline>
    <contour>
      <point x="199" y="145" type="curve"/>
      <point x="207" y="174"/>
      <point x="221" y="204"/>
      <point x="241" y="228" type="curve"/>
      <point x="253" y="225"/>
      <point x="264" y="220"/>
      <point x="274" y="212" type="curve"/>
      <point x="269" y="225"/>
      <point x="265" y="238"/>
      <point x="262" y="251" type="curve"/>
      <point x="282" y="268"/>
      <point x="304" y="279"/>
      <point x="329" y="282" type="curve"/>
      <point x="304" y="293"/>
      <point x="283" y="307"/>
      <point x="264" y="324" type="curve"/>
      <point x="267" y="335"/>
      <point x="271" y="347"/>
      <point x="276" y="359" type="curve"/>
      <point x="265" y="353"/>
      <point x="254" y="348"/>
      <point x="243" y="344" type="curve"/>
      <point x="225" y="364"/>
      <point x="211" y="388"/>
      <point x="199" y="416" type="curve"/>
      <point x="192" y="389"/>
      <point x="180" y="364"/>
      <point x="163" y="343" type="curve"/>
      <point x="151" y="346"/>
      <point x="139" y="351"/>
      <point x="127" y="357" type="curve"/>
      <point x="133" y="346"/>
      <point x="138" y="334"/>
      <point x="142" y="322" type="curve"/>
      <point x="122" y="305"/>
      <point x="98" y="292"/>
      <point x="70" y="282" type="curve"/>
      <point x="96" y="276"/>
      <point x="121" y="263"/>
      <point x="141" y="246" type="curve"/>
      <point x="137" y="232"/>
      <point x="131" y="220"/>
      <point x="122" y="208" type="curve"/>
      <point x="134" y="215"/>
      <point x="148" y="221"/>
      <point x="162" y="225" type="curve"/>
      <point x="182" y="202"/>
      <point x="195" y="174"/>
    </contour>
    <contour>
      <point x="172" y="283" type="curve"/>
      <point x="189" y="291"/>
      <point x="198" y="299"/>
      <point x="202" y="313" type="curve"/>
      <point x="206" y="299"/>
      <point x="216" y="291"/>
      <point x="231" y="283" type="curve"/>
      <point x="216" y="282"/>
      <point x="206" y="269"/>
      <point x="202" y="255" type="curve"/>
      <point x="198" y="269"/>
      <point x="189" y="281"/>
    </contour>
  </outline>
</glyph>
<glyph name="guillemetright" format="2">
  <advance width="628.73438"/>
  <unicode hex="00BB"/>
  <note>
guillemotleft
</note>
  <outline>
    <contour>
      <point x="42" y="17" type="curve"/>
      <point x="44" y="4" type="line"/>
      <point x="145" y="-7"/>
      <point x="197" y="14"/>
      <point x="239" y="65" type="curve" smooth="yes"/>
      <point x="288" y="126"/>
      <point x="350" y="229"/>
      <point x="384" y="256" type="curve"/>
      <point x="384" y="265" type="line"/>
      <point x="373" y="274"/>
      <point x="358" y="290"/>
      <point x="345" y="305" type="curve" smooth="yes"/>
      <point x="272" y="394" type="line" smooth="yes"/>
      <point x="251" y="419"/>
      <point x="233" y="451"/>
      <point x="234" y="467" type="curve"/>
      <point x="236" y="475"/>
      <point x="249" y="478"/>
      <point x="264" y="477" type="curve" smooth="yes"/>
      <point x="312" y="476"/>
      <point x="333" y="462"/>
      <point x="365" y="421" type="curve" smooth="yes"/>
      <point x="481" y="278" type="line"/>
      <point x="439" y="249"/>
      <point x="383" y="140"/>
      <point x="333" y="79" type="curve" smooth="yes"/>
      <point x="312" y="53"/>
      <point x="289" y="26"/>
      <point x="254" y="18" type="curve"/>
      <point x="256" y="5" type="line"/>
      <point x="375" y="-6"/>
      <point x="417" y="21"/>
      <point x="447" y="58" type="curve" smooth="yes"/>
      <point x="506" y="129"/>
      <point x="559" y="236"/>
      <point x="595" y="262" type="curve"/>
      <point x="595" y="271" type="line"/>
      <point x="581" y="280"/>
      <point x="568" y="296"/>
      <point x="556" y="311" type="curve" smooth="yes"/>
      <point x="469" y="415" type="line" smooth="yes"/>
      <point x="442" y="448"/>
      <point x="433" y="472"/>
      <point x="462" y="491" type="curve"/>
      <point x="457" y="503" type="line"/>
      <point x="54" y="503" type="line"/>
      <point x="54" y="491" type="line"/>
      <point x="100" y="489"/>
      <point x="115" y="473"/>
      <point x="153" y="427" type="curve" smooth="yes"/>
      <point x="269" y="278" type="line"/>
      <point x="228" y="249"/>
      <point x="171" y="140"/>
      <point x="122" y="78" type="curve" smooth="yes"/>
      <point x="101" y="52"/>
      <point x="79" y="26"/>
    </contour>
  </outline>
</glyph>
<glyph name="AE" format="2">
  <advance width="925"/>
  <unicode hex="00C6"/>
  <anchor x="446" y="0" name="bottom"/>
  <anchor x="446" y="722" name="top"/>
  <outline>
    <contour>
      <point x="10" y="-38" type="curve"/>
      <point x="22" y="-48" type="line"/>
      <point x="137" y="47"/>
      <point x="277" y="167"/>
      <point x="384" y="297" type="curve"/>
      <point x="384" y="84" type="line" smooth="yes"/>
      <point x="384" y="44"/>
      <point x="380" y="24"/>
      <point x="369" y="0" type="curve"/>
      <point x="837" y="0" type="line"/>
      <point x="853" y="52"/>
      <point x="872" y="111"/>
      <point x="895" y="215" type="curve"/>
      <point x="876" y="221" type="line"/>
      <point x="823" y="91"/>
      <point x="710" y="62"/>
      <point x="526" y="61" type="curve"/>
      <point x="526" y="414" type="line"/>
      <point x="661" y="413" type="line" smooth="yes"/>
      <point x="740" y="413"/>
      <point x="774" y="407"/>
      <point x="797" y="364" type="curve"/>
      <point x="809" y="368" type="line"/>
      <point x="808" y="508" type="line"/>
      <point x="797" y="510" type="line"/>
      <point x="774" y="473"/>
      <point x="740" y="462"/>
      <point x="661" y="461" type="curve" smooth="yes"/>
      <point x="526" y="461" type="line"/>
      <point x="526" y="676" type="line"/>
      <point x="613" y="676" type="line" smooth="yes"/>
      <point x="751" y="676"/>
      <point x="794" y="641"/>
      <point x="847" y="549" type="curve"/>
      <point x="862" y="556" type="line"/>
      <point x="820" y="722" type="line"/>
      <point x="295" y="722" type="line"/>
      <point x="295" y="707" type="line"/>
      <point x="317" y="707" type="line" smooth="yes"/>
      <point x="362" y="707"/>
      <point x="384" y="688"/>
      <point x="384" y="647" type="curve" smooth="yes"/>
      <point x="384" y="559" type="line"/>
      <point x="252" y="527"/>
      <point x="170" y="450"/>
      <point x="113" y="341" type="curve" smooth="yes"/>
      <point x="49" y="218"/>
      <point x="22" y="54"/>
    </contour>
    <contour>
      <point x="185" y="163" type="curve"/>
      <point x="170" y="338"/>
      <point x="247" y="481"/>
      <point x="383" y="520" type="curve"/>
      <point x="383" y="426" type="line"/>
      <point x="338" y="302"/>
      <point x="276" y="235"/>
    </contour>
  </outline>
</glyph>
<glyph name="multiply" format="2">
  <advance width="702"/>
  <unicode hex="00D7"/>
  <note>
multiply
</note>
  <outline>
    <contour>
      <point x="300" y="-4" type="curve"/>
      <point x="244" y="75"/>
      <point x="296" y="151"/>
      <point x="354" y="216" type="curve"/>
      <point x="406" y="148"/>
      <point x="455" y="85"/>
      <point x="411" y="-10" type="curve"/>
      <point x="516" y="7"/>
      <point x="595" y="-15"/>
      <point x="615" y="-5" type="curve"/>
      <point x="623" y="90"/>
      <point x="605" y="123"/>
      <point x="623" y="215" type="curve"/>
      <point x="535" y="150"/>
      <point x="476" y="196"/>
      <point x="396" y="257" type="curve"/>
      <point x="460" y="312"/>
      <point x="523" y="362"/>
      <point x="622" y="317" type="curve"/>
      <point x="601" y="416"/>
      <point x="632" y="461"/>
      <point x="611" y="534" type="curve"/>
      <point x="553" y="511"/>
      <point x="491" y="546"/>
      <point x="416" y="514" type="curve"/>
      <point x="447" y="427"/>
      <point x="407" y="361"/>
      <point x="356" y="301" type="curve"/>
      <point x="301" y="379"/>
      <point x="256" y="435"/>
      <point x="289" y="533" type="curve"/>
      <point x="221" y="504"/>
      <point x="168" y="556"/>
      <point x="81" y="518" type="curve"/>
      <point x="95" y="473"/>
      <point x="73" y="376"/>
      <point x="98" y="319" type="curve"/>
      <point x="188" y="362"/>
      <point x="253" y="312"/>
      <point x="311" y="258" type="curve"/>
      <point x="246" y="208"/>
      <point x="184" y="157"/>
      <point x="92" y="192" type="curve"/>
      <point x="64" y="94"/>
      <point x="110" y="43"/>
      <point x="78" y="-12" type="curve"/>
      <point x="173" y="8"/>
      <point x="188" y="-17"/>
    </contour>
  </outline>
</glyph>
<glyph name="Oslash" format="2">
  <advance width="840.21875"/>
  <unicode hex="00D8"/>
  <anchor x="492" y="0" name="bottom"/>
  <anchor x="492" y="722" name="top"/>
  <outline>
    <contour>
      <point x="52" y="-86" type="line"/>
      <point x="482" y="336" type="line"/>
      <point x="792" y="765" type="line"/>
      <point x="393" y="379" type="line"/>
    </contour>
    <component base="O" xOffset="10" identifier="FF1EB49A"/>
  </outline>
</glyph>
<glyph name="Thorn" format="2">
  <advance width="670"/>
  <unicode hex="00DE"/>
  <anchor x="416" y="0" name="bottom"/>
  <anchor x="630" y="0" name="bottom_1"/>
  <anchor x="1322" y="0" name="bottom_2"/>
  <anchor x="977" y="0" name="caret_1"/>
  <anchor x="416" y="722" name="top"/>
  <anchor x="630" y="722" name="top_1"/>
  <anchor x="1322" y="722" name="top_2"/>
  <outline>
    <contour>
      <point x="134" y="157" type="line"/>
      <point x="246" y="96" type="line"/>
      <point x="246" y="115" type="line"/>
      <point x="290" y="96"/>
      <point x="336" y="89"/>
      <point x="379" y="94" type="curve" smooth="yes"/>
      <point x="542" y="114"/>
      <point x="630" y="273"/>
      <point x="630" y="420" type="curve" smooth="yes"/>
      <point x="630" y="550"/>
      <point x="560" y="670"/>
      <point x="410" y="670" type="curve" smooth="yes"/>
      <point x="354" y="670"/>
      <point x="305" y="657"/>
      <point x="247" y="615" type="curve"/>
      <point x="247" y="661" type="line"/>
      <point x="134" y="661" type="line"/>
    </contour>
    <contour>
      <point x="247" y="217" type="curve" smooth="yes"/>
      <point x="247" y="566" type="line"/>
      <point x="280" y="598"/>
      <point x="321" y="616"/>
      <point x="362" y="616" type="curve" smooth="yes"/>
      <point x="449" y="616"/>
      <point x="487" y="520"/>
      <point x="487" y="414" type="curve" smooth="yes"/>
      <point x="487" y="281"/>
      <point x="430" y="130"/>
      <point x="339" y="130" type="curve" smooth="yes"/>
      <point x="291" y="130"/>
      <point x="247" y="162"/>
    </contour>
    <component base="I" xOffset="20" identifier="F627A0E0"/>
  </outline>
</glyph>
<glyph name="germandbls" format="2">
  <advance width="669"/>
  <unicode hex="00DF"/>
  <anchor x="255" y="0" name="bottom"/>
  <anchor x="255" y="500" name="top"/>
  <outline>
    <contour>
      <point x="40" y="-184" type="curve"/>
      <point x="51" y="-191" type="line"/>
      <point x="111" y="-105"/>
      <point x="155" y="-51"/>
      <point x="228" y="0" type="curve"/>
      <point x="228" y="598" type="line" smooth="yes"/>
      <point x="228" y="684"/>
      <point x="255" y="727"/>
      <point x="310" y="727" type="curve" smooth="yes"/>
      <point x="386" y="728"/>
      <point x="426" y="630"/>
      <point x="416" y="553" type="curve"/>
      <point x="413" y="493"/>
      <point x="347" y="429"/>
      <point x="307" y="385" type="curve"/>
      <point x="318" y="192"/>
      <point x="531" y="227"/>
      <point x="541" y="113" type="curve" smooth="yes"/>
      <point x="546" y="60"/>
      <point x="507" y="28"/>
      <point x="458" y="28" type="curve" smooth="yes"/>
      <point x="409" y="28"/>
      <point x="359" y="89"/>
      <point x="352" y="182" type="curve"/>
      <point x="336" y="182" type="line"/>
      <point x="333" y="125"/>
      <point x="309" y="86"/>
      <point x="277" y="61" type="curve"/>
      <point x="315" y="10"/>
      <point x="391" y="-15"/>
      <point x="452" y="-15" type="curve" smooth="yes"/>
      <point x="558" y="-15"/>
      <point x="639" y="54"/>
      <point x="639" y="151" type="curve" smooth="yes"/>
      <point x="639" y="309"/>
      <point x="390" y="287"/>
      <point x="386" y="396" type="curve" smooth="yes"/>
      <point x="384" y="468"/>
      <point x="528" y="490"/>
      <point x="532" y="511" type="curve" smooth="yes"/>
      <point x="556" y="647"/>
      <point x="448" y="776"/>
      <point x="312" y="775" type="curve" smooth="yes"/>
      <point x="180" y="773"/>
      <point x="105" y="687"/>
      <point x="101" y="548" type="curve" smooth="yes"/>
      <point x="100" y="500" type="line"/>
      <point x="61" y="458" type="line"/>
      <point x="64" y="446" type="line"/>
      <point x="100" y="444" type="line"/>
      <point x="100" y="34" type="line" smooth="yes"/>
      <point x="100" y="-46"/>
      <point x="74" y="-119"/>
    </contour>
  </outline>
</glyph>
<glyph name="ae" format="2">
  <advance width="814"/>
  <unicode hex="00E6"/>
  <anchor x="409" y="0" name="bottom"/>
  <anchor x="409" y="500" name="top"/>
  <outline>
    <contour>
      <point x="197" y="-12" type="curve" smooth="yes"/>
      <point x="280" y="-12"/>
      <point x="351" y="40"/>
      <point x="374" y="115" type="curve"/>
      <point x="410" y="39"/>
      <point x="480" y="-11"/>
      <point x="571" y="-11" type="curve" smooth="yes"/>
      <point x="667" y="-11"/>
      <point x="758" y="49"/>
      <point x="794" y="152" type="curve"/>
      <point x="783" y="158" type="line"/>
      <point x="758" y="108"/>
      <point x="700" y="80"/>
      <point x="638" y="80" type="curve" smooth="yes"/>
      <point x="522" y="80"/>
      <point x="455" y="185"/>
      <point x="455" y="291" type="curve"/>
      <point x="756" y="291" type="line"/>
      <point x="765" y="307" type="line"/>
      <point x="771" y="422"/>
      <point x="687" y="506"/>
      <point x="575" y="506" type="curve" smooth="yes"/>
      <point x="491" y="506"/>
      <point x="418" y="462"/>
      <point x="389" y="388" type="curve"/>
      <point x="356" y="460" type="line" smooth="yes"/>
      <point x="348" y="479"/>
      <point x="346" y="488"/>
      <point x="348" y="500" type="curve"/>
      <point x="86" y="500" type="line"/>
      <point x="86" y="477" type="line"/>
      <point x="124" y="477" type="line" smooth="yes"/>
      <point x="200" y="477"/>
      <point x="221" y="446"/>
      <point x="247" y="389" type="curve" smooth="yes"/>
      <point x="262" y="356" type="line"/>
      <point x="125" y="348"/>
      <point x="30" y="266"/>
      <point x="30" y="153" type="curve" smooth="yes"/>
      <point x="30" y="57"/>
      <point x="99" y="-12"/>
    </contour>
    <contour>
      <point x="145" y="189" type="curve" smooth="yes"/>
      <point x="145" y="264"/>
      <point x="195" y="317"/>
      <point x="274" y="329" type="curve"/>
      <point x="354" y="155" type="line"/>
      <point x="333" y="110"/>
      <point x="292" y="82"/>
      <point x="244" y="82" type="curve" smooth="yes"/>
      <point x="185" y="82"/>
      <point x="145" y="124"/>
    </contour>
    <contour>
      <point x="641" y="332" type="curve"/>
      <point x="455" y="332" type="line"/>
      <point x="462" y="407"/>
      <point x="498" y="463"/>
      <point x="553" y="463" type="curve" smooth="yes"/>
      <point x="601" y="463"/>
      <point x="643" y="407"/>
    </contour>
  </outline>
</glyph>
<glyph name="eth" format="2">
  <advance width="564.9375"/>
  <unicode hex="00F0"/>
  <outline>
    <contour>
      <point x="298" y="-10" type="curve" smooth="yes"/>
      <point x="454" y="9"/>
      <point x="544" y="144"/>
      <point x="529" y="305" type="curve" smooth="yes"/>
      <point x="513" y="484"/>
      <point x="378" y="667"/>
      <point x="121" y="746" type="curve"/>
      <point x="116" y="732" type="line"/>
      <point x="290" y="634"/>
      <point x="366" y="473"/>
      <point x="380" y="317" type="curve" smooth="yes"/>
      <point x="394" y="202"/>
      <point x="360" y="42"/>
      <point x="281" y="31" type="curve" smooth="yes"/>
      <point x="220" y="22"/>
      <point x="173" y="91"/>
      <point x="165" y="177" type="curve" smooth="yes"/>
      <point x="157" y="289"/>
      <point x="200" y="358"/>
      <point x="277" y="369" type="curve" smooth="yes"/>
      <point x="311" y="374"/>
      <point x="346" y="363"/>
      <point x="368" y="349" type="curve"/>
      <point x="398" y="354" type="line"/>
      <point x="333" y="412"/>
      <point x="271" y="424"/>
      <point x="228" y="468" type="curve"/>
      <point x="76" y="445"/>
      <point x="20" y="337"/>
      <point x="30" y="229" type="curve" smooth="yes"/>
      <point x="40" y="100"/>
      <point x="146" y="-29"/>
    </contour>
    <component base="hyphen" xScale="0.8631" xyScale="0.6271" yScale="-0.6331" yxScale="0.4599" xOffset="-23" yOffset="674" identifier="CA3F021B"/>
  </outline>
</glyph>
<glyph name="oslash" format="2">
  <advance width="600"/>
  <unicode hex="00F8"/>
  <outline>
    <contour>
      <point x="90" y="-40" type="line"/>
      <point x="362" y="276" type="line"/>
      <point x="546" y="530" type="line"/>
      <point x="244" y="235" type="line"/>
    </contour>
    <component base="o" xOffset="14" identifier="DA2B662C"/>
  </outline>
</glyph>
<glyph name="thorn" format="2">
  <advance width="612"/>
  <unicode hex="00FE"/>
  <anchor x="300" y="0" name="bottom"/>
  <anchor x="300" y="500" name="top"/>
  <outline>
    <contour>
      <point x="58" y="630" type="line"/>
      <point x="58" y="621" type="line"/>
      <point x="74" y="600"/>
      <point x="82" y="577"/>
      <point x="82" y="510" type="curve" smooth="yes"/>
      <point x="82" y="-130" type="line" smooth="yes"/>
      <point x="82" y="-213"/>
      <point x="73" y="-257"/>
      <point x="40" y="-315" type="curve"/>
      <point x="52" y="-323" type="line"/>
      <point x="219" y="-161" type="line"/>
      <point x="212" y="-127"/>
      <point x="212" y="-102"/>
      <point x="212" y="-68" type="curve" smooth="yes"/>
      <point x="212" y="21" type="line"/>
      <point x="253" y="0"/>
      <point x="295" y="-10"/>
      <point x="336" y="-10" type="curve" smooth="yes"/>
      <point x="465" y="-10"/>
      <point x="582" y="86"/>
      <point x="582" y="243" type="curve" smooth="yes"/>
      <point x="582" y="422"/>
      <point x="443" y="510"/>
      <point x="295" y="510" type="curve" smooth="yes"/>
      <point x="267" y="510"/>
      <point x="239" y="506"/>
      <point x="212" y="500" type="curve"/>
      <point x="212" y="641" type="line" smooth="yes"/>
      <point x="212" y="694"/>
      <point x="215" y="732"/>
      <point x="230" y="776" type="curve"/>
      <point x="220" y="783" type="line"/>
    </contour>
    <contour>
      <point x="212" y="91" type="curve"/>
      <point x="212" y="436" type="line"/>
      <point x="233" y="452"/>
      <point x="265" y="462"/>
      <point x="298" y="462" type="curve" smooth="yes"/>
      <point x="371" y="462"/>
      <point x="451" y="414"/>
      <point x="451" y="294" type="curve" smooth="yes"/>
      <point x="451" y="174"/>
      <point x="379" y="102"/>
      <point x="293" y="89" type="curve" smooth="yes"/>
      <point x="268" y="84"/>
      <point x="239" y="85"/>
    </contour>
  </outline>
</glyph>
<glyph name="idotless" format="2">
  <advance width="267"/>
  <unicode hex="0131"/>
  <anchor x="214" y="0" name="ogonek"/>
  <anchor x="140" y="500" name="top"/>
  <outline>
    <contour>
      <point x="68" y="0" type="curve"/>
      <point x="227" y="0" type="line"/>
      <point x="217" y="24"/>
      <point x="213" y="48"/>
      <point x="213" y="89" type="curve" smooth="yes"/>
      <point x="213" y="427" type="line" smooth="yes"/>
      <point x="213" y="462"/>
      <point x="216" y="479"/>
      <point x="223" y="500" type="curve"/>
      <point x="10" y="500" type="line"/>
      <point x="10" y="484" type="line"/>
      <point x="29" y="484" type="line" smooth="yes"/>
      <point x="66" y="484"/>
      <point x="84" y="460"/>
      <point x="84" y="411" type="curve" smooth="yes"/>
      <point x="84" y="94" type="line" smooth="yes"/>
      <point x="84" y="49"/>
      <point x="80" y="27"/>
    </contour>
  </outline>
</glyph>
<glyph name="Eng" format="2">
  <advance width="807"/>
  <unicode hex="014A"/>
  <outline>
    <contour>
      <point x="534" y="-170" type="curve"/>
      <point x="544" y="-189" type="line"/>
      <point x="675" y="-147"/>
      <point x="731" y="-70"/>
      <point x="751" y="-15" type="curve"/>
      <point x="751" y="26" type="line"/>
      <point x="624" y="48" type="line"/>
      <point x="643" y="24"/>
      <point x="656" y="2"/>
      <point x="656" y="-21" type="curve" smooth="yes"/>
      <point x="656" y="-79"/>
      <point x="607" y="-142"/>
    </contour>
    <component base="N" identifier="DE9C2F10"/>
  </outline>
</glyph>
<glyph name="eng" format="2">
  <advance width="567"/>
  <unicode hex="014B"/>
  <outline>
    <contour>
      <point x="243" y="-128" type="curve"/>
      <point x="243" y="-145" type="line"/>
      <point x="500" y="-165"/>
      <point x="537" y="-49"/>
      <point x="537" y="129" type="curve" smooth="yes"/>
      <point x="537" y="319" type="line" smooth="yes"/>
      <point x="537" y="453"/>
      <point x="467" y="510"/>
      <point x="363" y="510" type="curve" smooth="yes"/>
      <point x="307" y="510"/>
      <point x="252" y="492"/>
      <point x="205" y="456" type="curve"/>
      <point x="205" y="500" type="line"/>
      <point x="10" y="500" type="line"/>
      <point x="10" y="484" type="line"/>
      <point x="28" y="484" type="line" smooth="yes"/>
      <point x="62" y="484"/>
      <point x="80" y="464"/>
      <point x="80" y="420" type="curve" smooth="yes"/>
      <point x="80" y="84" type="line" smooth="yes"/>
      <point x="80" y="44"/>
      <point x="75" y="24"/>
      <point x="64" y="0" type="curve"/>
      <point x="223" y="0" type="line"/>
      <point x="212" y="23"/>
      <point x="208" y="44"/>
      <point x="208" y="84" type="curve" smooth="yes"/>
      <point x="208" y="399" type="line"/>
      <point x="238" y="429"/>
      <point x="275" y="448"/>
      <point x="310" y="448" type="curve" smooth="yes"/>
      <point x="373" y="448"/>
      <point x="400" y="398"/>
      <point x="400" y="306" type="curve" smooth="yes"/>
      <point x="401" y="88" type="line" smooth="yes"/>
      <point x="402" y="-102"/>
      <point x="362" y="-123"/>
    </contour>
  </outline>
</glyph>
<glyph name="OE" format="2">
  <advance width="1092"/>
  <unicode hex="0152"/>
  <anchor x="664" y="0" name="bottom"/>
  <anchor x="664" y="722" name="top"/>
  <outline>
    <contour>
      <point x="412" y="-13" type="curve" smooth="yes"/>
      <point x="474" y="-13"/>
      <point x="520" y="0"/>
      <point x="572" y="0" type="curve" smooth="yes"/>
      <point x="1004" y="0" type="line"/>
      <point x="1062" y="215" type="line"/>
      <point x="1043" y="221" type="line"/>
      <point x="989" y="91"/>
      <point x="857" y="62"/>
      <point x="693" y="61" type="curve"/>
      <point x="693" y="414" type="line"/>
      <point x="827" y="413" type="line" smooth="yes"/>
      <point x="906" y="413"/>
      <point x="941" y="407"/>
      <point x="964" y="364" type="curve"/>
      <point x="976" y="368" type="line"/>
      <point x="976" y="507" type="line"/>
      <point x="964" y="510" type="line"/>
      <point x="941" y="473"/>
      <point x="906" y="462"/>
      <point x="827" y="461" type="curve" smooth="yes"/>
      <point x="693" y="461" type="line"/>
      <point x="693" y="676" type="line"/>
      <point x="780" y="676" type="line" smooth="yes"/>
      <point x="917" y="676"/>
      <point x="961" y="641"/>
      <point x="1013" y="549" type="curve"/>
      <point x="1028" y="556" type="line"/>
      <point x="987" y="722" type="line"/>
      <point x="559" y="722" type="line" smooth="yes"/>
      <point x="518" y="722"/>
      <point x="473" y="731"/>
      <point x="412" y="731" type="curve" smooth="yes"/>
      <point x="186" y="731"/>
      <point x="40" y="571"/>
      <point x="40" y="358" type="curve" smooth="yes"/>
      <point x="40" y="137"/>
      <point x="191" y="-13"/>
    </contour>
    <contour>
      <point x="429" y="35" type="curve" smooth="yes"/>
      <point x="295" y="35"/>
      <point x="209" y="161"/>
      <point x="206" y="361" type="curve" smooth="yes"/>
      <point x="203" y="569"/>
      <point x="287" y="684"/>
      <point x="420" y="686" type="curve" smooth="yes"/>
      <point x="511" y="689"/>
      <point x="555" y="658"/>
      <point x="557" y="561" type="curve" smooth="yes"/>
      <point x="557" y="100" type="line" smooth="yes"/>
      <point x="558" y="48"/>
      <point x="499" y="35"/>
    </contour>
  </outline>
</glyph>
<glyph name="tbar" format="2">
  <advance width="353"/>
  <unicode hex="0167"/>
  <outline>
    <contour>
      <point x="95" y="0" type="curve"/>
      <point x="253" y="0" type="line"/>
      <point x="244" y="22"/>
      <point x="240" y="43"/>
      <point x="240" y="80" type="curve" smooth="yes"/>
      <point x="240" y="486" type="line" smooth="yes"/>
      <point x="238" y="537"/>
      <point x="236" y="696"/>
      <point x="249" y="741" type="curve"/>
      <point x="240" y="747" type="line"/>
      <point x="83" y="587" type="line"/>
      <point x="83" y="579" type="line"/>
      <point x="100" y="559"/>
      <point x="108" y="535"/>
      <point x="110" y="495" type="curve"/>
      <point x="110" y="84" type="line" smooth="yes"/>
      <point x="110" y="44"/>
      <point x="106" y="24"/>
    </contour>
    <contour>
      <point x="20" y="442" type="line"/>
      <point x="36" y="451"/>
      <point x="60" y="455"/>
      <point x="92" y="455" type="curve" smooth="yes"/>
      <point x="321" y="455" type="line"/>
      <point x="333" y="506" type="line"/>
      <point x="320" y="498"/>
      <point x="291" y="495"/>
      <point x="257" y="495" type="curve" smooth="yes"/>
      <point x="33" y="495" type="line"/>
    </contour>
    <contour>
      <point x="20" y="280" type="line"/>
      <point x="36" y="290"/>
      <point x="60" y="293"/>
      <point x="92" y="293" type="curve" smooth="yes"/>
      <point x="321" y="293" type="line"/>
      <point x="333" y="345" type="line"/>
      <point x="320" y="336"/>
      <point x="291" y="334"/>
      <point x="257" y="334" type="curve" smooth="yes"/>
      <point x="33" y="334" type="line"/>
    </contour>
  </outline>
</glyph>
<glyph name="Uring" format="2">
  <advance width="680.45312"/>
  <unicode hex="016E"/>
  <anchor x="338" y="0" name="bottom"/>
  <anchor x="609" y="10" name="ogonek"/>
  <anchor x="338" y="873" name="top"/>
  <anchor x="657" y="722" name="topright"/>
  <outline>
    <contour>
      <point x="57" y="638" type="curve" smooth="yes"/>
      <point x="57" y="250" type="line" smooth="yes"/>
      <point x="57" y="36"/>
      <point x="197" y="-23"/>
      <point x="338" y="-24" type="curve" smooth="yes"/>
      <point x="504" y="-25"/>
      <point x="617" y="73"/>
      <point x="617" y="276" type="curve" smooth="yes"/>
      <point x="617" y="636" type="line" smooth="yes"/>
      <point x="617" y="676"/>
      <point x="622" y="704"/>
      <point x="636" y="727" type="curve"/>
      <point x="588" y="734"/>
      <point x="529" y="713"/>
      <point x="466" y="721" type="curve" smooth="yes"/>
      <point x="393" y="729"/>
      <point x="341" y="765"/>
      <point x="341" y="825" type="curve" smooth="yes"/>
      <point x="341" y="868"/>
      <point x="369" y="895"/>
      <point x="404" y="895" type="curve" smooth="yes"/>
      <point x="462" y="895"/>
      <point x="475" y="832"/>
      <point x="445" y="791" type="curve"/>
      <point x="453" y="786" type="line"/>
      <point x="502" y="845"/>
      <point x="467" y="962"/>
      <point x="372" y="962" type="curve" smooth="yes"/>
      <point x="316" y="962"/>
      <point x="265" y="916"/>
      <point x="271" y="851" type="curve" smooth="yes"/>
      <point x="276" y="799"/>
      <point x="321" y="732"/>
      <point x="454" y="701" type="curve" smooth="yes"/>
      <point x="511" y="689"/>
      <point x="534" y="669"/>
      <point x="534" y="591" type="curve" smooth="yes"/>
      <point x="534" y="240" type="line" smooth="yes"/>
      <point x="534" y="109"/>
      <point x="459" y="53"/>
      <point x="366" y="53" type="curve" smooth="yes"/>
      <point x="278" y="53"/>
      <point x="198" y="88"/>
      <point x="198" y="223" type="curve" smooth="yes"/>
      <point x="198" y="642" type="line" smooth="yes"/>
      <point x="198" y="686"/>
      <point x="219" y="706"/>
      <point x="263" y="706" type="curve" smooth="yes"/>
      <point x="285" y="706" type="line"/>
      <point x="285" y="722" type="line"/>
      <point x="42" y="722" type="line"/>
      <point x="53" y="698"/>
      <point x="57" y="678"/>
    </contour>
  </outline>
</glyph>
<glyph name="florin" format="2">
  <advance width="678.375"/>
  <unicode hex="0192"/>
  <outline>
    <contour>
      <point x="295" y="521" type="curve" smooth="yes"/>
      <point x="277" y="393" type="line"/>
      <point x="161" y="393" type="line"/>
      <point x="130" y="324" type="line"/>
      <point x="143" y="321" type="line"/>
      <point x="156" y="338"/>
      <point x="170" y="341"/>
      <point x="206" y="341" type="curve" smooth="yes"/>
      <point x="270" y="341" type="line"/>
      <point x="245" y="157" type="line" smooth="yes"/>
      <point x="233" y="72"/>
      <point x="216" y="23"/>
      <point x="162" y="23" type="curve" smooth="yes"/>
      <point x="106" y="23"/>
      <point x="72" y="83"/>
      <point x="85" y="185" type="curve"/>
      <point x="73" y="189" type="line"/>
      <point x="-1" y="71" type="line"/>
      <point x="38" y="14"/>
      <point x="91" y="-17"/>
      <point x="173" y="-17" type="curve" smooth="yes"/>
      <point x="291" y="-17"/>
      <point x="357" y="58"/>
      <point x="374" y="187" type="curve" smooth="yes"/>
      <point x="396" y="341" type="line"/>
      <point x="514" y="341" type="line"/>
      <point x="546" y="410" type="line"/>
      <point x="533" y="414" type="line"/>
      <point x="520" y="396"/>
      <point x="505" y="393"/>
      <point x="470" y="393" type="curve" smooth="yes"/>
      <point x="403" y="393" type="line"/>
      <point x="424" y="552" type="line" smooth="yes"/>
      <point x="436" y="636"/>
      <point x="453" y="685"/>
      <point x="507" y="685" type="curve" smooth="yes"/>
      <point x="563" y="685"/>
      <point x="594" y="626"/>
      <point x="582" y="523" type="curve"/>
      <point x="594" y="520" type="line"/>
      <point x="670" y="638" type="line"/>
      <point x="631" y="695"/>
      <point x="578" y="726"/>
      <point x="496" y="726" type="curve" smooth="yes"/>
      <point x="378" y="726"/>
      <point x="312" y="650"/>
    </contour>
  </outline>
</glyph>
<glyph name="jdotless" format="2">
  <advance width="262"/>
  <unicode hex="0237"/>
  <anchor x="138" y="500" name="top"/>
  <outline>
    <contour>
      <point x="-4" y="-187" type="curve"/>
      <point x="12" y="-200" type="line"/>
      <point x="90" y="-111"/>
      <point x="160" y="-42"/>
      <point x="212" y="0" type="curve"/>
      <point x="212" y="427" type="line" smooth="yes"/>
      <point x="212" y="462"/>
      <point x="215" y="479"/>
      <point x="222" y="500" type="curve"/>
      <point x="8" y="500" type="line"/>
      <point x="8" y="482" type="line"/>
      <point x="27" y="482" type="line" smooth="yes"/>
      <point x="64" y="482"/>
      <point x="82" y="460"/>
      <point x="82" y="411" type="curve" smooth="yes"/>
      <point x="82" y="80" type="line" smooth="yes"/>
      <point x="82" y="-35"/>
      <point x="57" y="-108"/>
    </contour>
  </outline>
</glyph>
<glyph name="circumflex" format="2">
  <advance width="399.9375"/>
  <unicode hex="02C6"/>
  <outline>
    <contour>
      <point x="56" y="528" type="line"/>
      <point x="206" y="604" type="line"/>
      <point x="357" y="528" type="line"/>
      <point x="365" y="549" type="line"/>
      <point x="206" y="706" type="line"/>
      <point x="47" y="549" type="line"/>
    </contour>
  </outline>
</glyph>
<glyph name="ring" format="2">
  <advance width="284"/>
  <unicode hex="02DA"/>
  <outline>
    <contour>
      <point x="125" y="555" type="curve" smooth="yes"/>
      <point x="186" y="555"/>
      <point x="222" y="595"/>
      <point x="222" y="639" type="curve" smooth="yes"/>
      <point x="222" y="684"/>
      <point x="186" y="724"/>
      <point x="125" y="724" type="curve" smooth="yes"/>
      <point x="64" y="724"/>
      <point x="28" y="684"/>
      <point x="28" y="639" type="curve" smooth="yes"/>
      <point x="28" y="595"/>
      <point x="64" y="555"/>
    </contour>
    <contour>
      <point x="126" y="573" type="curve" smooth="yes"/>
      <point x="105" y="573"/>
      <point x="86" y="591"/>
      <point x="86" y="638" type="curve" smooth="yes"/>
      <point x="86" y="686"/>
      <point x="105" y="708"/>
      <point x="126" y="708" type="curve" smooth="yes"/>
      <point x="145" y="708"/>
      <point x="165" y="688"/>
      <point x="165" y="641" type="curve" smooth="yes"/>
      <point x="167" y="593"/>
      <point x="145" y="573"/>
    </contour>
  </outline>
</glyph>
<glyph name="tildecomb" format="2">
  <advance width="472.82812"/>
  <unicode hex="0303"/>
  <anchor x="218" y="500" name="_top"/>
  <anchor x="218" y="605" name="top"/>
  <outline>
    <contour>
      <point x="71" y="576" type="curve"/>
      <point x="86" y="570" type="line"/>
      <point x="105" y="602"/>
      <point x="132" y="617"/>
      <point x="172" y="611" type="curve" smooth="yes"/>
      <point x="236" y="601"/>
      <point x="316" y="559"/>
      <point x="377" y="562" type="curve" smooth="yes"/>
      <point x="419" y="564"/>
      <point x="456" y="602"/>
      <point x="484" y="674" type="curve"/>
      <point x="469" y="681" type="line"/>
      <point x="446" y="646"/>
      <point x="423" y="641"/>
      <point x="391" y="646" type="curve" smooth="yes"/>
      <point x="336" y="652"/>
      <point x="256" y="690"/>
      <point x="194" y="689" type="curve"/>
      <point x="136" y="684"/>
      <point x="95" y="637"/>
    </contour>
  </outline>
</glyph>
<glyph name="macroncomb" format="2">
  <advance width="567.40625"/>
  <unicode hex="0304"/>
  <anchor x="213" y="500" name="_top"/>
  <anchor x="213" y="625" name="top"/>
  <outline>
    <contour>
      <point x="60" y="638" type="line"/>
      <point x="480" y="638" type="line"/>
      <point x="505" y="751" type="line"/>
      <point x="270" y="725" type="line"/>
      <point x="35" y="751" type="line"/>
    </contour>
  </outline>
</glyph>
<glyph name="dotaccentcomb" format="2">
  <advance width="400"/>
  <unicode hex="0307"/>
  <anchor x="200" y="500" name="_top"/>
  <outline>
    <contour>
      <point x="189" y="562" type="curve"/>
      <point x="211" y="603"/>
      <point x="238" y="635"/>
      <point x="267" y="640" type="curve"/>
      <point x="227" y="662"/>
      <point x="195" y="690"/>
      <point x="189" y="719" type="curve"/>
      <point x="169" y="679"/>
      <point x="141" y="647"/>
      <point x="111" y="640" type="curve"/>
      <point x="152" y="619"/>
      <point x="183" y="591"/>
    </contour>
  </outline>
</glyph>
<glyph name="dieresiscomb" format="2">
  <advance width="400"/>
  <unicode hex="0308"/>
  <anchor x="192" y="495" name="_top"/>
  <outline>
    <contour>
      <point x="100" y="577" type="curve" smooth="yes"/>
      <point x="132" y="577"/>
      <point x="158" y="603"/>
      <point x="158" y="635" type="curve" smooth="yes"/>
      <point x="158" y="667"/>
      <point x="132" y="693"/>
      <point x="100" y="693" type="curve" smooth="yes"/>
      <point x="68" y="693"/>
      <point x="42" y="667"/>
      <point x="42" y="635" type="curve" smooth="yes"/>
      <point x="42" y="603"/>
      <point x="68" y="577"/>
    </contour>
    <contour>
      <point x="280" y="577" type="curve" smooth="yes"/>
      <point x="312" y="577"/>
      <point x="338" y="603"/>
      <point x="338" y="635" type="curve" smooth="yes"/>
      <point x="338" y="667"/>
      <point x="312" y="693"/>
      <point x="280" y="693" type="curve" smooth="yes"/>
      <point x="248" y="693"/>
      <point x="222" y="667"/>
      <point x="222" y="635" type="curve" smooth="yes"/>
      <point x="222" y="603"/>
      <point x="248" y="577"/>
    </contour>
  </outline>
</glyph>
<glyph name="ringcomb" format="2">
  <advance width="284"/>
  <unicode hex="030A"/>
  <anchor x="142" y="500" name="_top"/>
  <anchor x="142" y="651" name="top"/>
  <outline>
    <contour>
      <point x="125" y="554" type="curve" smooth="yes"/>
      <point x="186" y="554"/>
      <point x="222" y="594"/>
      <point x="222" y="638" type="curve" smooth="yes"/>
      <point x="222" y="683"/>
      <point x="186" y="723"/>
      <point x="125" y="723" type="curve" smooth="yes"/>
      <point x="64" y="723"/>
      <point x="28" y="683"/>
      <point x="28" y="638" type="curve" smooth="yes"/>
      <point x="28" y="594"/>
      <point x="64" y="554"/>
    </contour>
    <contour>
      <point x="126" y="568" type="curve" smooth="yes"/>
      <point x="105" y="568"/>
      <point x="86" y="590"/>
      <point x="86" y="637" type="curve" smooth="yes"/>
      <point x="86" y="685"/>
      <point x="105" y="709"/>
      <point x="126" y="709" type="curve" smooth="yes"/>
      <point x="145" y="709"/>
      <point x="165" y="687"/>
      <point x="165" y="640" type="curve" smooth="yes"/>
      <point x="167" y="592"/>
      <point x="145" y="568"/>
    </contour>
  </outline>
</glyph>
<glyph name="hungarumlautcomb" format="2">
  <advance width="434"/>
  <unicode hex="030B"/>
  <anchor x="223" y="500" name="_top"/>
  <anchor x="223" y="695" name="top"/>
  <outline>
    <contour>
      <point x="47" y="554" type="line"/>
      <point x="285" y="641" type="line"/>
      <point x="264" y="724" type="line"/>
      <point x="37" y="584" type="line"/>
    </contour>
    <contour>
      <point x="157" y="539" type="line"/>
      <point x="413" y="568" type="line"/>
      <point x="409" y="654" type="line"/>
      <point x="156" y="570" type="line"/>
    </contour>
  </outline>
</glyph>
<glyph name="cedillacomb" format="2">
  <advance width="285"/>
  <unicode hex="0327"/>
  <anchor x="142" y="0" name="_bottom"/>
  <anchor x="142" y="-164" name="bottom"/>
  <outline>
    <contour>
      <point x="131" y="-210" type="curve" smooth="yes"/>
      <point x="220" y="-210"/>
      <point x="262" y="-154"/>
      <point x="262" y="-106" type="curve" smooth="yes"/>
      <point x="262" y="-71"/>
      <point x="240" y="-41"/>
      <point x="199" y="-41" type="curve" smooth="yes"/>
      <point x="170" y="-41"/>
      <point x="146" y="-50"/>
      <point x="124" y="-68" type="curve"/>
      <point x="162" y="5" type="line"/>
      <point x="100" y="14" type="line"/>
      <point x="76" y="-133" type="line"/>
      <point x="91" y="-136" type="line"/>
      <point x="104" y="-108"/>
      <point x="127" y="-93"/>
      <point x="146" y="-93" type="curve" smooth="yes"/>
      <point x="166" y="-93"/>
      <point x="179" y="-106"/>
      <point x="180" y="-125" type="curve" smooth="yes"/>
      <point x="182" y="-163"/>
      <point x="145" y="-184"/>
      <point x="104" y="-184" type="curve" smooth="yes"/>
      <point x="89" y="-184"/>
      <point x="73" y="-181"/>
      <point x="60" y="-175" type="curve"/>
      <point x="56" y="-194" type="line"/>
      <point x="78" y="-205"/>
      <point x="104" y="-210"/>
    </contour>
  </outline>
</glyph>
<glyph name="Dje-cy" format="2">
  <advance width="789"/>
  <unicode hex="0402"/>
  <outline>
    <component base="T"/>
    <contour>
      <point x="509" y="-104" type="curve"/>
      <point x="518" y="-112" type="line"/>
      <point x="659" y="-19"/>
      <point x="759" y="143"/>
      <point x="759" y="279" type="curve" smooth="yes"/>
      <point x="759" y="401"/>
      <point x="679" y="477"/>
      <point x="575" y="477" type="curve" smooth="yes"/>
      <point x="517" y="477"/>
      <point x="451" y="453"/>
      <point x="407" y="414" type="curve"/>
      <point x="411" y="349" type="line"/>
      <point x="431" y="389"/>
      <point x="472" y="415"/>
      <point x="512" y="415" type="curve" smooth="yes"/>
      <point x="583" y="415"/>
      <point x="624" y="340"/>
      <point x="624" y="225" type="curve" smooth="yes"/>
      <point x="624" y="103"/>
      <point x="579" y="-28"/>
    </contour>
  </outline>
</glyph>
<glyph name="Tshe-cy" format="2">
  <advance width="833"/>
  <unicode hex="040B"/>
  <outline>
    <component base="T"/>
    <contour>
      <point x="599" y="465" type="curve" smooth="yes"/>
      <point x="525" y="466"/>
      <point x="451" y="426"/>
      <point x="406" y="357" type="curve"/>
      <point x="406" y="319" type="line"/>
      <point x="433" y="364"/>
      <point x="481" y="390"/>
      <point x="531" y="387" type="curve" smooth="yes"/>
      <point x="583" y="384"/>
      <point x="615" y="349"/>
      <point x="615" y="249" type="curve" smooth="yes"/>
      <point x="615" y="84" type="line" smooth="yes"/>
      <point x="615" y="44"/>
      <point x="612" y="24"/>
      <point x="602" y="0" type="curve"/>
      <point x="803" y="0" type="line"/>
      <point x="803" y="17" type="line"/>
      <point x="780" y="17" type="line" smooth="yes"/>
      <point x="751" y="17"/>
      <point x="745" y="38"/>
      <point x="745" y="84" type="curve" smooth="yes"/>
      <point x="745" y="269" type="line" smooth="yes"/>
      <point x="745" y="408"/>
      <point x="684" y="463"/>
    </contour>
  </outline>
</glyph>
<glyph name="De-cy" format="2">
  <advance width="801"/>
  <unicode hex="0414"/>
  <outline>
    <contour>
      <point x="751" y="42" type="line"/>
      <point x="626" y="42" type="line"/>
      <point x="626" y="584" type="line" smooth="yes"/>
      <point x="626" y="647"/>
      <point x="627" y="684"/>
      <point x="637" y="722" type="curve"/>
      <point x="144" y="722" type="line"/>
      <point x="144" y="706" type="line"/>
      <point x="161" y="706" type="line" smooth="yes"/>
      <point x="237" y="706"/>
      <point x="251" y="651"/>
      <point x="251" y="526" type="curve" smooth="yes"/>
      <point x="251" y="368"/>
      <point x="239" y="161"/>
      <point x="104" y="42" type="curve"/>
      <point x="30" y="42" type="line"/>
      <point x="30" y="-149" type="line"/>
      <point x="46" y="-149" type="line"/>
      <point x="57" y="-40"/>
      <point x="127" y="0"/>
      <point x="293" y="0" type="curve" smooth="yes"/>
      <point x="618" y="0" type="line" smooth="yes"/>
      <point x="684" y="0"/>
      <point x="724" y="-26"/>
      <point x="735" y="-152" type="curve"/>
      <point x="751" y="-152" type="line"/>
    </contour>
    <contour>
      <point x="153" y="42" type="line"/>
      <point x="295" y="174"/>
      <point x="321" y="391"/>
      <point x="321" y="558" type="curve" smooth="yes"/>
      <point x="321" y="618"/>
      <point x="319" y="652"/>
      <point x="317" y="680" type="curve"/>
      <point x="490" y="680" type="line"/>
      <point x="490" y="42" type="line"/>
    </contour>
  </outline>
</glyph>
<glyph name="Zhe-cy" format="2">
  <advance width="1029"/>
  <unicode hex="0416"/>
  <anchor x="1042" y="0" name="bottomright"/>
  <anchor x="541" y="722" name="top"/>
  <outline>
    <contour>
      <point x="444" y="642" type="curve" smooth="yes"/>
      <point x="444" y="84" type="line" smooth="yes"/>
      <point x="444" y="44"/>
      <point x="440" y="24"/>
      <point x="429" y="0" type="curve"/>
      <point x="600" y="0" type="line"/>
      <point x="589" y="24"/>
      <point x="585" y="44"/>
      <point x="585" y="84" type="curve" smooth="yes"/>
      <point x="585" y="722" type="line"/>
      <point x="374" y="722" type="line"/>
      <point x="374" y="706" type="line"/>
      <point x="392" y="706" type="line" smooth="yes"/>
      <point x="427" y="706"/>
      <point x="444" y="686"/>
    </contour>
    <contour>
      <point x="595" y="361" type="curve"/>
      <point x="730" y="368"/>
      <point x="763" y="276"/>
      <point x="811" y="127" type="curve" smooth="yes"/>
      <point x="849" y="8"/>
      <point x="886" y="-95"/>
      <point x="1064" y="-140" type="curve"/>
      <point x="1069" y="-125" type="line"/>
      <point x="933" y="-67"/>
      <point x="943" y="222"/>
      <point x="882" y="344" type="curve" smooth="yes"/>
      <point x="849" y="409"/>
      <point x="794" y="450"/>
      <point x="694" y="450" type="curve"/>
      <point x="797" y="626" type="line" smooth="yes"/>
      <point x="839" y="697"/>
      <point x="878" y="703"/>
      <point x="930" y="707" type="curve"/>
      <point x="930" y="722" type="line"/>
      <point x="784" y="722" type="line"/>
      <point x="771" y="674"/>
      <point x="731" y="600"/>
    </contour>
    <contour>
      <point x="434" y="361" type="curve"/>
      <point x="298" y="600"/>
      <point x="258" y="674"/>
      <point x="245" y="722" type="curve"/>
      <point x="99" y="722" type="line"/>
      <point x="99" y="707" type="line"/>
      <point x="151" y="703"/>
      <point x="190" y="697"/>
      <point x="232" y="626" type="curve" smooth="yes"/>
      <point x="335" y="450" type="line"/>
      <point x="235" y="450"/>
      <point x="180" y="409"/>
      <point x="147" y="344" type="curve" smooth="yes"/>
      <point x="86" y="222"/>
      <point x="96" y="-67"/>
      <point x="-40" y="-125" type="curve"/>
      <point x="-35" y="-140" type="line"/>
      <point x="143" y="-95"/>
      <point x="180" y="8"/>
      <point x="218" y="127" type="curve" smooth="yes"/>
      <point x="266" y="276"/>
      <point x="299" y="368"/>
    </contour>
  </outline>
</glyph>
<glyph name="Ze-cy" format="2">
  <advance width="556"/>
  <unicode hex="0417"/>
  <anchor x="286" y="0" name="bottom"/>
  <anchor x="286" y="722" name="top"/>
  <outline>
    <contour>
      <point x="285" y="410" type="curve"/>
      <point x="330" y="404" type="line"/>
      <point x="384" y="435"/>
      <point x="471" y="526"/>
      <point x="471" y="602" type="curve" smooth="yes"/>
      <point x="471" y="704"/>
      <point x="361" y="735"/>
      <point x="241" y="735" type="curve" smooth="yes"/>
      <point x="176" y="735"/>
      <point x="110" y="725"/>
      <point x="56" y="711" type="curve"/>
      <point x="56" y="701" type="line"/>
      <point x="83" y="697"/>
      <point x="81" y="664"/>
      <point x="81" y="568" type="curve"/>
      <point x="97" y="568" type="line"/>
      <point x="107" y="655"/>
      <point x="171" y="693"/>
      <point x="234" y="693" type="curve" smooth="yes"/>
      <point x="318" y="693"/>
      <point x="356" y="630"/>
      <point x="356" y="560" type="curve" smooth="yes"/>
      <point x="356" y="504"/>
      <point x="331" y="444"/>
    </contour>
    <contour>
      <point x="21" y="57" type="curve"/>
      <point x="20" y="47" type="line"/>
      <point x="78" y="9"/>
      <point x="159" y="-14"/>
      <point x="239" y="-14" type="curve" smooth="yes"/>
      <point x="434" y="-14"/>
      <point x="526" y="113"/>
      <point x="526" y="230" type="curve" smooth="yes"/>
      <point x="526" y="415"/>
      <point x="344" y="448"/>
      <point x="153" y="416" type="curve"/>
      <point x="155" y="397" type="line"/>
      <point x="173" y="400"/>
      <point x="189" y="401"/>
      <point x="205" y="401" type="curve" smooth="yes"/>
      <point x="331" y="401"/>
      <point x="388" y="303"/>
      <point x="388" y="206" type="curve" smooth="yes"/>
      <point x="388" y="86"/>
      <point x="317" y="28"/>
      <point x="241" y="28" type="curve" smooth="yes"/>
      <point x="154" y="28"/>
      <point x="61" y="104"/>
      <point x="61" y="242" type="curve"/>
      <point x="45" y="242" type="line"/>
      <point x="39" y="113"/>
      <point x="50" y="71"/>
    </contour>
  </outline>
</glyph>
<glyph name="Ii-cy" format="2">
  <advance width="755"/>
  <unicode hex="0418"/>
  <anchor x="777" y="0" name="bottomright"/>
  <anchor x="366" y="722" name="top"/>
  <outline>
    <contour>
      <point x="237" y="722" type="curve"/>
      <point x="20" y="722" type="line"/>
      <point x="20" y="706" type="line"/>
      <point x="38" y="706" type="line" smooth="yes"/>
      <point x="73" y="706"/>
      <point x="90" y="686"/>
      <point x="90" y="642" type="curve" smooth="yes"/>
      <point x="90" y="84" type="line" smooth="yes"/>
      <point x="90" y="44"/>
      <point x="86" y="24"/>
      <point x="75" y="0" type="curve"/>
      <point x="240" y="0" type="line"/>
      <point x="235" y="17"/>
      <point x="232" y="30"/>
      <point x="232" y="59" type="curve" smooth="yes"/>
      <point x="232" y="66" type="line"/>
      <point x="550" y="550" type="line"/>
      <point x="550" y="84" type="line" smooth="yes"/>
      <point x="550" y="44"/>
      <point x="546" y="24"/>
      <point x="535" y="0" type="curve"/>
      <point x="705" y="0" type="line"/>
      <point x="696" y="22"/>
      <point x="692" y="43"/>
      <point x="692" y="80" type="curve" smooth="yes"/>
      <point x="692" y="602" type="line" smooth="yes"/>
      <point x="692" y="658"/>
      <point x="694" y="689"/>
      <point x="697" y="722" type="curve"/>
      <point x="480" y="722" type="line"/>
      <point x="480" y="706" type="line"/>
      <point x="498" y="706" type="line" smooth="yes"/>
      <point x="533" y="706"/>
      <point x="550" y="686"/>
      <point x="550" y="642" type="curve" smooth="yes"/>
      <point x="550" y="633" type="line"/>
      <point x="232" y="141" type="line"/>
      <point x="232" y="602" type="line" smooth="yes"/>
      <point x="232" y="658"/>
      <point x="234" y="689"/>
    </contour>
  </outline>
</glyph>
<glyph name="Ka-cy" format="2">
  <advance width="685"/>
  <unicode hex="041A"/>
  <anchor x="696" y="0" name="bottomright"/>
  <anchor x="358" y="722" name="top"/>
  <outline>
    <contour>
      <point x="238" y="84" type="curve" smooth="yes"/>
      <point x="238" y="384" type="line"/>
      <point x="388" y="375"/>
      <point x="418" y="280"/>
      <point x="467" y="127" type="curve" smooth="yes"/>
      <point x="505" y="8"/>
      <point x="542" y="-95"/>
      <point x="720" y="-140" type="curve"/>
      <point x="725" y="-125" type="line"/>
      <point x="637" y="-84"/>
      <point x="625" y="97"/>
      <point x="580" y="233" type="curve" smooth="yes"/>
      <point x="548" y="329"/>
      <point x="511" y="395"/>
      <point x="322" y="408" type="curve"/>
      <point x="461" y="626" type="line" smooth="yes"/>
      <point x="506" y="696"/>
      <point x="546" y="703"/>
      <point x="599" y="707" type="curve"/>
      <point x="599" y="722" type="line"/>
      <point x="453" y="722" type="line"/>
      <point x="440" y="682"/>
      <point x="376" y="575"/>
      <point x="274" y="411" type="curve"/>
      <point x="262" y="411"/>
      <point x="250" y="411"/>
      <point x="238" y="411" type="curve"/>
      <point x="238" y="722" type="line"/>
      <point x="27" y="722" type="line"/>
      <point x="27" y="706" type="line"/>
      <point x="45" y="706" type="line" smooth="yes"/>
      <point x="80" y="706"/>
      <point x="97" y="686"/>
      <point x="97" y="642" type="curve" smooth="yes"/>
      <point x="97" y="84" type="line" smooth="yes"/>
      <point x="97" y="44"/>
      <point x="93" y="24"/>
      <point x="82" y="0" type="curve"/>
      <point x="253" y="0" type="line"/>
      <point x="242" y="24"/>
      <point x="238" y="44"/>
    </contour>
  </outline>
</glyph>
<glyph name="U-cy" format="2">
  <advance width="626"/>
  <unicode hex="0423"/>
  <anchor x="354" y="722" name="top"/>
  <outline>
    <contour>
      <point x="76" y="652" type="curve" smooth="yes"/>
      <point x="291" y="155" type="line"/>
      <point x="267" y="96"/>
      <point x="219" y="64"/>
      <point x="173" y="64" type="curve" smooth="yes"/>
      <point x="150" y="64"/>
      <point x="127" y="73"/>
      <point x="107" y="93" type="curve"/>
      <point x="95" y="84" type="line"/>
      <point x="125" y="-24" type="line"/>
      <point x="245" y="-31"/>
      <point x="299" y="42"/>
      <point x="335" y="133" type="curve" smooth="yes"/>
      <point x="543" y="658" type="line" smooth="yes"/>
      <point x="556" y="691"/>
      <point x="572" y="706"/>
      <point x="603" y="706" type="curve" smooth="yes"/>
      <point x="611" y="706" type="line"/>
      <point x="611" y="722" type="line"/>
      <point x="497" y="722" type="line"/>
      <point x="501" y="700"/>
      <point x="497" y="669"/>
      <point x="477" y="618" type="curve" smooth="yes"/>
      <point x="395" y="407" type="line" smooth="yes"/>
      <point x="378" y="363"/>
      <point x="372" y="354"/>
      <point x="368" y="339" type="curve"/>
      <point x="367" y="345"/>
      <point x="362" y="357"/>
      <point x="354" y="376" type="curve" smooth="yes"/>
      <point x="252" y="613" type="line" smooth="yes"/>
      <point x="227" y="672"/>
      <point x="221" y="694"/>
      <point x="221" y="722" type="curve"/>
      <point x="10" y="722" type="line"/>
      <point x="10" y="706" type="line"/>
      <point x="17" y="706" type="line" smooth="yes"/>
      <point x="47" y="706"/>
      <point x="60" y="688"/>
    </contour>
  </outline>
</glyph>
<glyph name="Ef-cy" format="2">
  <advance width="870"/>
  <unicode hex="0424"/>
  <outline>
    <contour>
      <point x="351" y="0" type="curve"/>
      <point x="515" y="0" type="line"/>
      <point x="506" y="22"/>
      <point x="502" y="43"/>
      <point x="502" y="80" type="curve" smooth="yes"/>
      <point x="502" y="91" type="line"/>
      <point x="709" y="109"/>
      <point x="829" y="227"/>
      <point x="830" y="416" type="curve" smooth="yes"/>
      <point x="831" y="591"/>
      <point x="714" y="711"/>
      <point x="502" y="722" type="curve"/>
      <point x="502" y="800" type="line"/>
      <point x="296" y="800" type="line"/>
      <point x="296" y="784" type="line"/>
      <point x="314" y="784" type="line" smooth="yes"/>
      <point x="349" y="784"/>
      <point x="366" y="764"/>
      <point x="366" y="724" type="curve" smooth="yes"/>
      <point x="366" y="721" type="line"/>
      <point x="182" y="702"/>
      <point x="42" y="597"/>
      <point x="40" y="415" type="curve" smooth="yes"/>
      <point x="38" y="204"/>
      <point x="176" y="105"/>
      <point x="366" y="89" type="curve"/>
      <point x="366" y="84" type="line" smooth="yes"/>
      <point x="366" y="44"/>
      <point x="362" y="24"/>
    </contour>
    <contour>
      <point x="199" y="416" type="curve" smooth="yes"/>
      <point x="197" y="570"/>
      <point x="273" y="650"/>
      <point x="366" y="662" type="curve"/>
      <point x="366" y="153" type="line"/>
      <point x="279" y="166"/>
      <point x="201" y="249"/>
    </contour>
    <contour>
      <point x="502" y="151" type="curve"/>
      <point x="502" y="665" type="line"/>
      <point x="588" y="660"/>
      <point x="669" y="577"/>
      <point x="671" y="411" type="curve" smooth="yes"/>
      <point x="673" y="258"/>
      <point x="608" y="162"/>
    </contour>
  </outline>
</glyph>
<glyph name="Tse-cy" format="2">
  <advance width="762"/>
  <unicode hex="0426"/>
  <outline>
    <contour>
      <point x="75" y="0" type="curve"/>
      <point x="587" y="0" type="line" smooth="yes"/>
      <point x="616" y="0"/>
      <point x="639" y="-1"/>
      <point x="652" y="-3" type="curve" smooth="yes"/>
      <point x="662" y="-5"/>
      <point x="665" y="-10"/>
      <point x="665" y="-18" type="curve" smooth="yes"/>
      <point x="665" y="-45"/>
      <point x="657" y="-85"/>
      <point x="632" y="-155" type="curve"/>
      <point x="646" y="-162" type="line"/>
      <point x="692" y="-78"/>
      <point x="738" y="9"/>
      <point x="752" y="42" type="curve"/>
      <point x="653" y="42" type="line"/>
      <point x="653" y="602" type="line" smooth="yes"/>
      <point x="653" y="658"/>
      <point x="655" y="689"/>
      <point x="658" y="722" type="curve"/>
      <point x="447" y="722" type="line"/>
      <point x="447" y="706" type="line"/>
      <point x="465" y="706" type="line" smooth="yes"/>
      <point x="500" y="706"/>
      <point x="517" y="686"/>
      <point x="517" y="642" type="curve" smooth="yes"/>
      <point x="517" y="42" type="line"/>
      <point x="226" y="42" type="line"/>
      <point x="226" y="602" type="line" smooth="yes"/>
      <point x="226" y="658"/>
      <point x="228" y="689"/>
      <point x="231" y="722" type="curve"/>
      <point x="20" y="722" type="line"/>
      <point x="20" y="706" type="line"/>
      <point x="38" y="706" type="line" smooth="yes"/>
      <point x="73" y="706"/>
      <point x="90" y="686"/>
      <point x="90" y="642" type="curve" smooth="yes"/>
      <point x="90" y="84" type="line" smooth="yes"/>
      <point x="90" y="44"/>
      <point x="86" y="24"/>
    </contour>
  </outline>
</glyph>
<glyph name="Che-cy" format="2">
  <advance width="626"/>
  <unicode hex="0427"/>
  <anchor x="606" y="0" name="bottomright"/>
  <anchor x="332" y="722" name="top"/>
  <outline>
    <contour>
      <point x="412" y="0" type="curve"/>
      <point x="576" y="0" type="line"/>
      <point x="567" y="22"/>
      <point x="563" y="43"/>
      <point x="563" y="80" type="curve" smooth="yes"/>
      <point x="563" y="722" type="line"/>
      <point x="357" y="722" type="line"/>
      <point x="357" y="706" type="line"/>
      <point x="375" y="706" type="line" smooth="yes"/>
      <point x="410" y="706"/>
      <point x="427" y="686"/>
      <point x="427" y="642" type="curve" smooth="yes"/>
      <point x="427" y="84" type="line" smooth="yes"/>
      <point x="427" y="44"/>
      <point x="423" y="24"/>
    </contour>
    <contour>
      <point x="264" y="747" type="curve"/>
      <point x="255" y="756" type="line"/>
      <point x="103" y="669"/>
      <point x="20" y="519"/>
      <point x="20" y="397" type="curve" smooth="yes"/>
      <point x="20" y="267"/>
      <point x="111" y="194"/>
      <point x="220" y="194" type="curve" smooth="yes"/>
      <point x="290" y="194"/>
      <point x="368" y="224"/>
      <point x="431" y="287" type="curve"/>
      <point x="431" y="351" type="line"/>
      <point x="389" y="304"/>
      <point x="338" y="278"/>
      <point x="292" y="278" type="curve" smooth="yes"/>
      <point x="223" y="278"/>
      <point x="165" y="336"/>
      <point x="165" y="474" type="curve" smooth="yes"/>
      <point x="165" y="577"/>
      <point x="203" y="693"/>
    </contour>
  </outline>
</glyph>
<glyph name="Hardsign-cy" format="2">
  <advance width="793"/>
  <unicode hex="042A"/>
  <anchor x="400" y="722" name="top"/>
  <outline>
    <contour>
      <point x="375" y="722" type="curve"/>
      <point x="42" y="722" type="line"/>
      <point x="30" y="500" type="line"/>
      <point x="45" y="497" type="line"/>
      <point x="64" y="618"/>
      <point x="108" y="680"/>
      <point x="210" y="680" type="curve" smooth="yes"/>
      <point x="230" y="680" type="line"/>
      <point x="230" y="84" type="line" smooth="yes"/>
      <point x="230" y="44"/>
      <point x="226" y="24"/>
      <point x="215" y="0" type="curve"/>
      <point x="430" y="0" type="line" smooth="yes"/>
      <point x="645" y="0"/>
      <point x="756" y="98"/>
      <point x="756" y="250" type="curve" smooth="yes"/>
      <point x="756" y="437"/>
      <point x="585" y="489"/>
      <point x="390" y="480" type="curve"/>
      <point x="390" y="460" type="line"/>
      <point x="548" y="457"/>
      <point x="609" y="371"/>
      <point x="609" y="247" type="curve" smooth="yes"/>
      <point x="609" y="120"/>
      <point x="534" y="46"/>
      <point x="366" y="43" type="curve"/>
      <point x="366" y="602" type="line" smooth="yes"/>
      <point x="366" y="658"/>
      <point x="369" y="689"/>
    </contour>
  </outline>
</glyph>
<glyph name="Yeru-cy" format="2">
  <advance width="897"/>
  <unicode hex="042B"/>
  <anchor x="462" y="722" name="top"/>
  <outline>
    <contour>
      <point x="77" y="0" type="curve"/>
      <point x="292" y="0" type="line" smooth="yes"/>
      <point x="507" y="0"/>
      <point x="618" y="98"/>
      <point x="618" y="250" type="curve" smooth="yes"/>
      <point x="618" y="437"/>
      <point x="447" y="489"/>
      <point x="252" y="480" type="curve"/>
      <point x="252" y="460" type="line"/>
      <point x="410" y="457"/>
      <point x="471" y="371"/>
      <point x="471" y="247" type="curve" smooth="yes"/>
      <point x="471" y="120"/>
      <point x="396" y="46"/>
      <point x="228" y="43" type="curve"/>
      <point x="228" y="602" type="line" smooth="yes"/>
      <point x="228" y="658"/>
      <point x="231" y="689"/>
      <point x="237" y="722" type="curve"/>
      <point x="22" y="722" type="line"/>
      <point x="22" y="706" type="line"/>
      <point x="40" y="706" type="line" smooth="yes"/>
      <point x="75" y="706"/>
      <point x="92" y="686"/>
      <point x="92" y="642" type="curve" smooth="yes"/>
      <point x="92" y="84" type="line" smooth="yes"/>
      <point x="92" y="44"/>
      <point x="88" y="24"/>
    </contour>
    <contour>
      <point x="628" y="706" type="line"/>
      <point x="646" y="706" type="line" smooth="yes"/>
      <point x="681" y="706"/>
      <point x="698" y="686"/>
      <point x="698" y="642" type="curve" smooth="yes"/>
      <point x="698" y="84" type="line" smooth="yes"/>
      <point x="698" y="44"/>
      <point x="694" y="24"/>
      <point x="683" y="0" type="curve"/>
      <point x="847" y="0" type="line"/>
      <point x="838" y="22"/>
      <point x="834" y="43"/>
      <point x="834" y="80" type="curve" smooth="yes"/>
      <point x="834" y="722" type="line"/>
      <point x="628" y="722" type="line"/>
    </contour>
  </outline>
</glyph>
<glyph name="Ereversed-cy" format="2">
  <advance width="735"/>
  <unicode hex="042D"/>
  <anchor x="367" y="722" name="top"/>
  <outline>
    <contour>
      <point x="301" y="-17" type="curve" smooth="yes"/>
      <point x="529" y="-21"/>
      <point x="690" y="112"/>
      <point x="695" y="346" type="curve" smooth="yes"/>
      <point x="700" y="614"/>
      <point x="490" y="738"/>
      <point x="281" y="738" type="curve" smooth="yes"/>
      <point x="202" y="738"/>
      <point x="125" y="720"/>
      <point x="58" y="686" type="curve"/>
      <point x="85" y="527" type="line"/>
      <point x="97" y="526" type="line"/>
      <point x="114" y="630"/>
      <point x="201" y="688"/>
      <point x="293" y="688" type="curve" smooth="yes"/>
      <point x="395" y="688"/>
      <point x="505" y="616"/>
      <point x="531" y="454" type="curve"/>
      <point x="249" y="454" type="line" smooth="yes"/>
      <point x="169" y="454"/>
      <point x="111" y="462"/>
      <point x="98" y="506" type="curve"/>
      <point x="86" y="503" type="line"/>
      <point x="86" y="353" type="line"/>
      <point x="98" y="350" type="line"/>
      <point x="111" y="396"/>
      <point x="169" y="402"/>
      <point x="249" y="402" type="curve" smooth="yes"/>
      <point x="535" y="402" type="line"/>
      <point x="537" y="180"/>
      <point x="435" y="29"/>
      <point x="287" y="34" type="curve" smooth="yes"/>
      <point x="183" y="37"/>
      <point x="92" y="130"/>
      <point x="42" y="249" type="curve"/>
      <point x="30" y="246" type="line"/>
      <point x="60" y="34" type="line"/>
      <point x="138" y="0"/>
      <point x="219" y="-15"/>
    </contour>
  </outline>
</glyph>
<glyph name="be-cy" format="2">
  <advance width="600"/>
  <unicode hex="0431"/>
  <outline>
    <contour>
      <point x="151" y="456" type="curve"/>
      <point x="152" y="420" type="line"/>
      <point x="200" y="445"/>
      <point x="247" y="460"/>
      <point x="289" y="460" type="curve" smooth="yes"/>
      <point x="394" y="460"/>
      <point x="438" y="348"/>
      <point x="440" y="238" type="curve" smooth="yes"/>
      <point x="443" y="102"/>
      <point x="405" y="27"/>
      <point x="328" y="29" type="curve" smooth="yes"/>
      <point x="215" y="32"/>
      <point x="165" y="244"/>
      <point x="165" y="380" type="curve" smooth="yes"/>
      <point x="165" y="537"/>
      <point x="182" y="579"/>
      <point x="340" y="592" type="curve" smooth="yes"/>
      <point x="506" y="606"/>
      <point x="558" y="639"/>
      <point x="558" y="785" type="curve"/>
      <point x="542" y="785" type="line"/>
      <point x="533" y="716"/>
      <point x="452" y="733"/>
      <point x="312" y="713" type="curve" smooth="yes"/>
      <point x="145" y="689"/>
      <point x="35" y="490"/>
      <point x="40" y="300" type="curve" smooth="yes"/>
      <point x="44" y="135"/>
      <point x="127" y="-14"/>
      <point x="301" y="-14" type="curve" smooth="yes"/>
      <point x="435" y="-14"/>
      <point x="570" y="84"/>
      <point x="570" y="253" type="curve" smooth="yes"/>
      <point x="570" y="384"/>
      <point x="491" y="514"/>
      <point x="341" y="514" type="curve" smooth="yes"/>
      <point x="283" y="514"/>
      <point x="218" y="495"/>
    </contour>
  </outline>
</glyph>
<glyph name="ve-cy" format="2">
  <advance width="577"/>
  <unicode hex="0432"/>
  <outline>
    <contour>
      <point x="68" y="0" type="curve"/>
      <point x="213" y="0" type="line" smooth="yes"/>
      <point x="358" y="0"/>
      <point x="547" y="22"/>
      <point x="547" y="171" type="curve" smooth="yes"/>
      <point x="547" y="236"/>
      <point x="495" y="303"/>
      <point x="345" y="322" type="curve"/>
      <point x="467" y="355"/>
      <point x="500" y="398"/>
      <point x="495" y="439" type="curve" smooth="yes"/>
      <point x="487" y="508"/>
      <point x="370" y="500"/>
      <point x="187" y="500" type="curve" smooth="yes"/>
      <point x="10" y="500" type="line"/>
      <point x="10" y="482" type="line"/>
      <point x="29" y="482" type="line" smooth="yes"/>
      <point x="66" y="482"/>
      <point x="84" y="460"/>
      <point x="84" y="411" type="curve" smooth="yes"/>
      <point x="84" y="94" type="line" smooth="yes"/>
      <point x="84" y="49"/>
      <point x="80" y="27"/>
    </contour>
    <contour>
      <point x="213" y="42" type="curve"/>
      <point x="213" y="455" type="line"/>
      <point x="228" y="458"/>
      <point x="244" y="460"/>
      <point x="260" y="460" type="curve" smooth="yes"/>
      <point x="310" y="460"/>
      <point x="358" y="443"/>
      <point x="358" y="407" type="curve" smooth="yes"/>
      <point x="358" y="362"/>
      <point x="309" y="338"/>
      <point x="209" y="338" type="curve"/>
      <point x="209" y="296" type="line"/>
      <point x="357" y="302"/>
      <point x="415" y="247"/>
      <point x="415" y="167" type="curve" smooth="yes"/>
      <point x="415" y="95"/>
      <point x="366" y="41"/>
    </contour>
  </outline>
</glyph>
